<?xml version="1.0" encoding="UTF-8" standalone="no"?>
<svg width="60px" height="157px" viewBox="0 0 60 157" version="1.1" xmlns="http://www.w3.org/2000/svg" xmlns:xlink="http://www.w3.org/1999/xlink">
    <!-- Generator: Sketch 3.8.3 (29802) - http://www.bohemiancoding.com/sketch -->
    <title>Group 2</title>
    <desc>Created with Sketch.</desc>
    <defs>
        <circle id="path-1" cx="13.5" cy="10.5" r="4.5"></circle>
        <mask id="mask-2" maskContentUnits="userSpaceOnUse" maskUnits="objectBoundingBox" x="0" y="0" width="9" height="9" fill="white">
            <use xlink:href="#path-1"></use>
        </mask>
        <rect id="path-3" x="13" y="9" width="1" height="3"></rect>
        <mask id="mask-4" maskContentUnits="userSpaceOnUse" maskUnits="objectBoundingBox" x="0" y="0" width="1" height="3" fill="white">
            <use xlink:href="#path-3"></use>
        </mask>
        <rect id="path-5" x="12" y="10" width="3" height="1"></rect>
        <mask id="mask-6" maskContentUnits="userSpaceOnUse" maskUnits="objectBoundingBox" x="0" y="0" width="3" height="1" fill="white">
            <use xlink:href="#path-5"></use>
        </mask>
        <rect id="path-7" x="16.8106602" y="10.8713203" width="2.12132034" height="6"></rect>
        <mask id="mask-8" maskContentUnits="userSpaceOnUse" maskUnits="objectBoundingBox" x="0" y="0" width="2.12132034" height="6" fill="white">
            <use xlink:href="#path-7"></use>
        </mask>
        <path d="M11.2515478,1 L1.99188419,1 C0.893397331,1 0,1.89547804 0,3.00010618 L0,15.9998938 C0,17.1099416 0.891796927,18 1.99188419,18 L13.0081158,18 C14.1066027,18 15,17.1028865 15,15.9962409 L15,15.1808162 L15,14.9645556 C14.8366985,14.987914 14.6697607,15 14.5,15" id="path-9"></path>
        <mask id="mask-10" maskContentUnits="userSpaceOnUse" maskUnits="objectBoundingBox" x="0" y="0" width="15" height="17" fill="white">
            <use xlink:href="#path-9"></use>
        </mask>
        <polygon id="path-11" points="11.0814209 0.963256836 15 5 11 5"></polygon>
        <mask id="mask-12" maskContentUnits="userSpaceOnUse" maskUnits="objectBoundingBox" x="0" y="0" width="4" height="4.03674316" fill="white">
            <use xlink:href="#path-11"></use>
        </mask>
    </defs>
    <g id="Final" stroke="none" stroke-width="1" fill="none" fill-rule="evenodd">
        <g id="new-icons" transform="translate(0.000000, -1.000000)">
            <g id="Group-3">
                <g id="Group-2">
                    <g id="zoom-icon">
                        <use id="Oval-11" stroke="#404040" mask="url(#mask-2)" stroke-width="4" xlink:href="#path-1"></use>
                        <use id="Rectangle-111" stroke="#404040" mask="url(#mask-4)" stroke-width="2" fill="#D8D8D8" xlink:href="#path-3"></use>
                        <use id="Rectangle-110" stroke="#404040" mask="url(#mask-6)" stroke-width="2" fill="#D8D8D8" xlink:href="#path-5"></use>
                        <use id="Rectangle-106" stroke="#404040" mask="url(#mask-8)" stroke-width="2" transform="translate(17.871320, 13.871320) rotate(-45.000000) translate(-17.871320, -13.871320) " xlink:href="#path-7"></use>
                        <use id="Combined-Shape" stroke="#404040" mask="url(#mask-10)" stroke-width="2" xlink:href="#path-9"></use>
                        <use id="Rectangle-109" stroke="#404040" mask="url(#mask-12)" stroke-width="2" fill="#D8D8D8" xlink:href="#path-11"></use>
                        <polygon id="Line" fill="#404040" points="3 13 8 13 8 13 8 12 8 12 3 12 3 12 3 13"></polygon>
                        <polygon id="Line" fill="#404040" points="3 9 6 9 6 9 6 8 6 8 3 8 3 8 3 9"></polygon>
                        <polygon id="Line" fill="#404040" points="7 11 7 11 7 10 7 10 3 10 3 10 3 11 3 11"></polygon>
                        <polygon id="Line" fill="#404040" points="3 7 8 7 8 7 8 6 8 6 3 6 3 6 3 7"></polygon>
                    </g>
                    <g id="share" transform="translate(40.000000, 12.000000)" fill="#404040">
                        <g id="Capa_1">
                            <path d="M12.9474566,10.16902 C12.0211465,10.16902 11.2040841,10.6103323 10.6702691,11.2861423 L5.71901029,8.75406598 C5.78382972,8.51230978 5.83041868,8.26251867 5.83041868,7.99962864 C5.83041868,7.71344412 5.77508585,7.44400463 5.69787646,7.18182355 L10.6272925,4.66142822 C11.1581703,5.36782492 11.9963665,5.82952829 12.9481655,5.82952829 C14.5604812,5.82952829 15.8647358,4.52527367 15.8647358,2.91440966 C15.8647696,1.30499734 14.5604812,0 12.9481993,0 C11.3395297,0 10.0338234,1.30499734 10.0338234,2.9143759 C10.0338234,3.17800866 10.0804461,3.42850873 10.1459745,3.67100766 L5.19542463,6.20308399 C4.66090069,5.52656499 3.84235288,5.08380105 2.91459109,5.08380105 C1.30372709,5.08380105 0.000215189873,6.38950736 0.000215189873,7.99962864 C0.000215189873,9.60974992 1.30376085,10.9147473 2.91459109,10.9147473 C3.86784177,10.9147473 4.705329,10.4515922 5.2383675,9.74448655 L10.1655891,12.2648819 C10.0883797,12.5263202 10.0323379,12.7979541 10.0323379,13.0848814 C10.0323379,14.6950027 11.3380442,16 12.9467138,16 C14.5590295,16 15.8632842,14.6950027 15.8632842,13.0848814 C15.8640269,11.4733084 14.5597723,10.16902 12.9474566,10.16902 L12.9474566,10.16902 Z" id="Shape"></path>
                        </g>
                    </g>
                    <g id="zoom-in" transform="translate(42.000000, 80.000000)" fill="#404040">
                        <g id="Capa_1">
                            <g id="Group">
                                <path d="M17.7603273,16.6033091 L12.1815273,11.0245636 C13.0928182,9.86514545 13.6369636,8.40414545 13.6369636,6.81850909 C13.6369636,3.05874545 10.5782182,0 6.81845455,0 C3.05874545,0 0,3.05874545 0,6.81850909 C0,10.5781636 3.05874545,13.6369091 6.81845455,13.6369091 C8.40409091,13.6369091 9.86509091,13.0928182 11.0244545,12.1815818 L16.6032545,17.7603273 C16.7630182,17.9201455 16.9724182,18 17.1818182,18 C17.3912182,18 17.6006182,17.9201455 17.7603273,17.7603273 C18.0799091,17.4408545 18.0799091,16.9227818 17.7603273,16.6033091 L17.7603273,16.6033091 Z M1.63636364,6.81850909 C1.63636364,3.96103636 3.96103636,1.63636364 6.81845455,1.63636364 C9.67592727,1.63636364 12.0006,3.96103636 12.0006,6.81845455 C12.0006,9.67587273 9.67592727,12.0004909 6.81845455,12.0004909 C3.96103636,12.0005455 1.63636364,9.67587273 1.63636364,6.81850909 L1.63636364,6.81850909 Z" id="Shape"></path>
                                <path d="M9.546,6.00032727 L7.63663636,6.00032727 L7.63663636,4.09090909 C7.63663636,3.63905455 7.27030909,3.27272727 6.81845455,3.27272727 C6.3666,3.27272727 6.00027273,3.63905455 6.00027273,4.09090909 L6.00027273,6.00027273 L4.09090909,6.00027273 C3.63905455,6.00027273 3.27272727,6.3666 3.27272727,6.81845455 C3.27272727,7.27030909 3.63905455,7.63663636 4.09090909,7.63663636 L6.00027273,7.63663636 L6.00027273,9.54594545 C6.00027273,9.9978 6.3666,10.3641273 6.81845455,10.3641273 C7.27030909,10.3641273 7.63663636,9.9978 7.63663636,9.54594545 L7.63663636,7.63663636 L9.546,7.63663636 C9.99785455,7.63663636 10.3641818,7.27030909 10.3641818,6.81845455 C10.3641818,6.3666 9.99785455,6.00032727 9.546,6.00032727 L9.546,6.00032727 Z" id="Shape"></path>
                            </g>
                        </g>
                    </g>
                </g>
                <g id="ic_metadata" transform="translate(46.000000, 140.000000)" fill="#FFFFFF">
                    <path d="M8,0 L0,0 L0,18 L14,18 L14,5 L8,5 L8,-2.77555756e-16 Z M5,10 L8,10 L8,15 L5,15 L5,10 Z M4,10 L5,10 L5,11 L4,11 L4,10 Z M8,14 L9,14 L9,15 L8,15 L8,14 Z M5,7 L8,7 L8,9 L5,9 L5,7 Z M9,0 L9,4 L14,4 L9,0 Z"></path>
                </g>
            </g>
        </g>
    </g>
</svg>