<?xml version="1.0" encoding="UTF-8" standalone="no"?>
<svg width="375px" height="499px" viewBox="0 0 375 499" version="1.1" xmlns="http://www.w3.org/2000/svg" xmlns:xlink="http://www.w3.org/1999/xlink">
    <!-- Generator: Sketch 3.8.3 (29802) - http://www.bohemiancoding.com/sketch -->
    <title>Group 10</title>
    <desc>Created with Sketch.</desc>
    <defs>
        <circle id="path-1" cx="13.5" cy="10.5" r="4.5"></circle>
        <mask id="mask-2" maskContentUnits="userSpaceOnUse" maskUnits="objectBoundingBox" x="0" y="0" width="9" height="9" fill="white">
            <use xlink:href="#path-1"></use>
        </mask>
        <rect id="path-3" x="13" y="9" width="1" height="3"></rect>
        <mask id="mask-4" maskContentUnits="userSpaceOnUse" maskUnits="objectBoundingBox" x="0" y="0" width="1" height="3" fill="white">
            <use xlink:href="#path-3"></use>
        </mask>
        <rect id="path-5" x="12" y="10" width="3" height="1"></rect>
        <mask id="mask-6" maskContentUnits="userSpaceOnUse" maskUnits="objectBoundingBox" x="0" y="0" width="3" height="1" fill="white">
            <use xlink:href="#path-5"></use>
        </mask>
        <rect id="path-7" x="16.8106602" y="10.8713203" width="2.12132034" height="6"></rect>
        <mask id="mask-8" maskContentUnits="userSpaceOnUse" maskUnits="objectBoundingBox" x="0" y="0" width="2.12132034" height="6" fill="white">
            <use xlink:href="#path-7"></use>
        </mask>
        <path d="M11.2515478,1 L1.99188419,1 C0.893397331,1 0,1.89547804 0,3.00010618 L0,15.9998938 C0,17.1099416 0.891796927,18 1.99188419,18 L13.0081158,18 C14.1066027,18 15,17.1028865 15,15.9962409 L15,15.1808162 L15,14.9645556 C14.8366985,14.987914 14.6697607,15 14.5,15" id="path-9"></path>
        <mask id="mask-10" maskContentUnits="userSpaceOnUse" maskUnits="objectBoundingBox" x="0" y="0" width="15" height="17" fill="white">
            <use xlink:href="#path-9"></use>
        </mask>
        <polygon id="path-11" points="11.0814209 0.963256836 15 5 11 5"></polygon>
        <mask id="mask-12" maskContentUnits="userSpaceOnUse" maskUnits="objectBoundingBox" x="0" y="0" width="4" height="4.03674316" fill="white">
            <use xlink:href="#path-11"></use>
        </mask>
        <rect id="path-13" x="0" y="3.17647059" width="6.74074074" height="1.05882353"></rect>
        <mask id="mask-14" maskContentUnits="userSpaceOnUse" maskUnits="objectBoundingBox" x="0" y="0" width="6.74074074" height="1.05882353" fill="white">
            <use xlink:href="#path-13"></use>
        </mask>
        <rect id="path-15" x="2.88888889" y="0" width="0.962962963" height="7.41176471"></rect>
        <mask id="mask-16" maskContentUnits="userSpaceOnUse" maskUnits="objectBoundingBox" x="0" y="0" width="0.962962963" height="7.41176471" fill="white">
            <use xlink:href="#path-15"></use>
        </mask>
    </defs>
    <g id="Page-1" stroke="none" stroke-width="1" fill="none" fill-rule="evenodd">
        <g id="new-icons" transform="translate(0.000000, -1.000000)">
            <g id="Group-10">
                <g id="Group-9">
                    <g id="Group-8">
                        <g id="Group-6">
                            <g id="Group-5">
                                <g id="Group-3">
                                    <g id="Group-2">
                                        <g id="zoom-icon">
                                            <g id="Group-4">
                                                <use id="Oval-11" stroke="#404040" mask="url(#mask-2)" stroke-width="4" xlink:href="#path-1"></use>
                                                <use id="Rectangle-111" stroke="#404040" mask="url(#mask-4)" stroke-width="2" fill="#D8D8D8" xlink:href="#path-3"></use>
                                                <use id="Rectangle-110" stroke="#404040" mask="url(#mask-6)" stroke-width="2" fill="#D8D8D8" xlink:href="#path-5"></use>
                                                <use id="Rectangle-106" stroke="#404040" mask="url(#mask-8)" stroke-width="2" transform="translate(17.871320, 13.871320) rotate(-45.000000) translate(-17.871320, -13.871320) " xlink:href="#path-7"></use>
                                                <use id="Combined-Shape" stroke="#404040" mask="url(#mask-10)" stroke-width="2" xlink:href="#path-9"></use>
                                                <use id="Rectangle-109" stroke="#404040" mask="url(#mask-12)" stroke-width="2" fill="#D8D8D8" xlink:href="#path-11"></use>
                                                <polygon id="Line" fill="#404040" points="3 13 8 13 8 13 8 12 8 12 3 12 3 12 3 13"></polygon>
                                                <polygon id="Line" fill="#404040" points="3 9 6 9 6 9 6 8 6 8 3 8 3 8 3 9"></polygon>
                                                <polygon id="Line" fill="#404040" points="7 11 7 11 7 10 7 10 3 10 3 10 3 11 3 11"></polygon>
                                                <polygon id="Line" fill="#404040" points="3 7 8 7 8 7 8 6 8 6 3 6 3 6 3 7"></polygon>
                                                <path d="M52.9474566,22.16902 C52.0211465,22.16902 51.2040841,22.6103323 50.6702691,23.2861423 L45.7190103,20.754066 C45.7838297,20.5123098 45.8304187,20.2625187 45.8304187,19.9996286 C45.8304187,19.7134441 45.7750858,19.4440046 45.6978765,19.1818236 L50.6272925,16.6614282 C51.1581703,17.3678249 51.9963665,17.8295283 52.9481655,17.8295283 C54.5604812,17.8295283 55.8647358,16.5252737 55.8647358,14.9144097 C55.8647696,13.3049973 54.5604812,12 52.9481993,12 C51.3395297,12 50.0338234,13.3049973 50.0338234,14.9143759 C50.0338234,15.1780087 50.0804461,15.4285087 50.1459745,15.6710077 L45.1954246,18.203084 C44.6609007,17.526565 43.8423529,17.0838011 42.9145911,17.0838011 C41.3037271,17.0838011 40.0002152,18.3895074 40.0002152,19.9996286 C40.0002152,21.6097499 41.3037608,22.9147473 42.9145911,22.9147473 C43.8678418,22.9147473 44.705329,22.4515922 45.2383675,21.7444866 L50.1655891,24.2648819 C50.0883797,24.5263202 50.0323379,24.7979541 50.0323379,25.0848814 C50.0323379,26.6950027 51.3380442,28 52.9467138,28 C54.5590295,28 55.8632842,26.6950027 55.8632842,25.0848814 C55.8640269,23.4733084 54.5597723,22.16902 52.9474566,22.16902 L52.9474566,22.16902 Z" id="Shape" fill="#404040"></path>
                                                <path d="M59.7603273,96.6033091 L54.1815273,91.0245636 C55.0928182,89.8651455 55.6369636,88.4041455 55.6369636,86.8185091 C55.6369636,83.0587455 52.5782182,80 48.8184545,80 C45.0587455,80 42,83.0587455 42,86.8185091 C42,90.5781636 45.0587455,93.6369091 48.8184545,93.6369091 C50.4040909,93.6369091 51.8650909,93.0928182 53.0244545,92.1815818 L58.6032545,97.7603273 C58.7630182,97.9201455 58.9724182,98 59.1818182,98 C59.3912182,98 59.6006182,97.9201455 59.7603273,97.7603273 C60.0799091,97.4408545 60.0799091,96.9227818 59.7603273,96.6033091 L59.7603273,96.6033091 Z M43.6363636,86.8185091 C43.6363636,83.9610364 45.9610364,81.6363636 48.8184545,81.6363636 C51.6759273,81.6363636 54.0006,83.9610364 54.0006,86.8184545 C54.0006,89.6758727 51.6759273,92.0004909 48.8184545,92.0004909 C45.9610364,92.0005455 43.6363636,89.6758727 43.6363636,86.8185091 L43.6363636,86.8185091 Z" id="Shape" fill="#404040"></path>
                                                <path d="M51.546,86.0003273 L49.6366364,86.0003273 L49.6366364,84.0909091 C49.6366364,83.6390545 49.2703091,83.2727273 48.8184545,83.2727273 C48.3666,83.2727273 48.0002727,83.6390545 48.0002727,84.0909091 L48.0002727,86.0002727 L46.0909091,86.0002727 C45.6390545,86.0002727 45.2727273,86.3666 45.2727273,86.8184545 C45.2727273,87.2703091 45.6390545,87.6366364 46.0909091,87.6366364 L48.0002727,87.6366364 L48.0002727,89.5459455 C48.0002727,89.9978 48.3666,90.3641273 48.8184545,90.3641273 C49.2703091,90.3641273 49.6366364,89.9978 49.6366364,89.5459455 L49.6366364,87.6366364 L51.546,87.6366364 C51.9978545,87.6366364 52.3641818,87.2703091 52.3641818,86.8184545 C52.3641818,86.3666 51.9978545,86.0003273 51.546,86.0003273 L51.546,86.0003273 Z" id="Shape" fill="#404040"></path>
                                                <path d="M54,140 L46,140 L46,158 L60,158 L60,145 L54,145 L54,140 Z M51,150 L54,150 L54,155 L51,155 L51,150 Z M50,150 L51,150 L51,151 L50,151 L50,150 Z M54,154 L55,154 L55,155 L54,155 L54,154 Z M51,147 L54,147 L54,149 L51,149 L51,147 Z M55,140 L55,144 L60,144 L55,140 Z" id="ic_metadata" fill="#FFFFFF"></path>
                                                <polygon id="Shape" fill="#FFFFFF" points="53.0149254 204.492537 49.2537313 200.731343 48 201.985075 53.0149254 207 63.761194 196.253731 62.5074627 195"></polygon>
                                            </g>
                                        </g>
                                        <g id="share" transform="translate(40.000000, 12.000000)">
                                            <g id="Capa_1"></g>
                                        </g>
                                        <g id="zoom-in" transform="translate(42.000000, 80.000000)">
                                            <g id="Capa_1">
                                                <g id="Group"></g>
                                            </g>
                                        </g>
                                    </g>
                                    <g id="ic_metadata" transform="translate(46.000000, 140.000000)"></g>
                                </g>
                            </g>
                            <polygon id="arrow-right-gray" fill="#404040" transform="translate(8.500000, 349.250000) rotate(90.000000) translate(-8.500000, -349.250000) " points="4 351.5 8.5 347 13 351.5"></polygon>
                            <polygon id="arrow-right-white" fill="#FFFFFF" transform="translate(8.500000, 388.250000) rotate(90.000000) translate(-8.500000, -388.250000) " points="4 390.5 8.5 386 13 390.5"></polygon>
                            <polygon id="Shape" fill="#D5D5CE" points="14.8333333 425 11 428.833333 7.16666667 425 6 426.166667 11 431.166667 16 426.166667"></polygon>
                            <polygon id="Shape" fill="#404040" points="14.8333333 462 11 465.833333 7.16666667 462 6 463.166667 11 468.166667 16 463.166667"></polygon>
                            <path d="M93.2643615,404.000287 C91.9015158,404.007831 90.6210042,404.594689 89.6593566,405.652463 L85.2176497,410.536331 L82.1398718,413.9197 C80.643775,415.565127 80.6170525,418.212739 82.0795657,419.820842 C82.80035,420.613378 83.7500809,421.007661 84.7073951,421.007661 C85.6932373,421.007661 86.6870241,420.58876 87.4457254,419.754532 L93.0599707,413.582197 C93.0606929,413.581403 94.996266,411.452751 94.996266,411.452751 C95.4996595,410.899643 95.7820509,410.166269 95.7910788,409.388027 C95.8004677,408.603828 95.5325209,407.872042 95.0363497,407.326479 C94.0129516,406.200807 92.3294363,406.219866 91.2829268,407.369361 L84.498671,414.82937 C84.2953636,415.052916 84.2953636,415.41464 84.498671,415.637789 C84.6001441,415.748967 84.7330342,415.804952 84.8662854,415.804952 C84.9995366,415.804952 85.1324267,415.748967 85.2338999,415.637789 L92.0181557,408.17778 C92.6584115,407.473392 93.6825319,407.453539 94.3011208,408.134104 C94.5972346,408.459695 94.7572083,408.89964 94.7514305,409.372541 C94.7452915,409.851001 94.5719566,410.302461 94.2613983,410.643538 L92.2572134,412.847632 C92.2564912,412.848426 86.7104966,418.946113 86.7104966,418.946113 C85.6199311,420.145242 83.8721375,420.174624 82.8144335,419.012423 C81.7570906,417.849427 81.7838131,415.927248 82.8747396,414.727722 L83.2206872,414.347336 C83.2210483,414.346542 90.3945855,406.460485 90.3945855,406.460485 C91.1612313,405.617125 92.1824628,405.148988 93.2694171,405.143429 C94.352038,405.151371 95.3689361,405.59211 96.1258318,406.424353 C97.6966794,408.151971 97.6818737,410.979453 96.0922482,412.726925 L90.1934448,419.212145 C89.9901374,419.435294 89.9901374,419.797018 90.1934448,420.020167 C90.2949179,420.131742 90.4281691,420.187727 90.5610592,420.187727 C90.6943104,420.187727 90.8272005,420.131742 90.9286736,420.020167 L96.827477,413.53455 C98.8222729,411.341574 98.8370786,407.789056 96.8606996,405.615934 C95.9062743,404.566101 94.6214293,403.985198 93.2643615,404.000287 Z" id="Shape" fill="#9B9B9B"></path>
                            <g id="Group-7" transform="translate(100.259259, 404.000000)" stroke="#979797" fill="#D8D8D8">
                                <use id="Rectangle-21" mask="url(#mask-14)" stroke-width="4" xlink:href="#path-13"></use>
                                <use id="Rectangle-22" mask="url(#mask-16)" stroke-width="2" xlink:href="#path-15"></use>
                            </g>
                            <path d="M96.8606996,482.615934 C95.9062743,481.566101 94.6214293,480.985198 93.2643615,481.000287 C91.9015158,481.007831 90.6210042,481.594689 89.6593566,482.652463 L85.2176497,487.536331 L82.1398718,490.9197 C80.643775,492.565127 80.6170525,495.212739 82.0795657,496.820842 C82.80035,497.613378 83.7500809,498.007661 84.7073951,498.007661 C85.6932373,498.007661 86.6870241,497.58876 87.4457254,496.754532 L93.0599707,490.582197 C93.0606929,490.581403 93.0606929,490.580609 93.0614152,490.580212 L94.996266,488.452751 C95.4996595,487.899643 95.7820509,487.166269 95.7910788,486.388027 C95.8004677,485.603828 95.5325209,484.872042 95.0363497,484.326479 C94.0129516,483.200807 92.3294363,483.219866 91.2829268,484.369361 L84.498671,491.82937 C84.2953636,492.052916 84.2953636,492.41464 84.498671,492.637789 C84.6001441,492.748967 84.7330342,492.804952 84.8662854,492.804952 C84.9995366,492.804952 85.1324267,492.748967 85.2338999,492.637789 L92.0181557,485.17778 C92.6584115,484.473392 93.6825319,484.453539 94.3011208,485.134104 C94.5972346,485.459695 94.7572083,485.89964 94.7514305,486.372541 C94.7452915,486.851001 94.5719566,487.302461 94.2613983,487.643538 L92.2572134,489.847632 C92.2564912,489.848426 92.2564912,489.84922 92.255769,489.849617 L86.7104966,495.946113 C85.6199311,497.145242 83.8721375,497.174624 82.8144335,496.012423 C81.7570906,494.849427 81.7838131,492.927248 82.8747396,491.727722 L83.2206872,491.347336 C83.2210483,491.346542 83.2221316,491.346542 83.2224928,491.345748 L90.3945855,483.460485 C91.1612313,482.617125 92.1824628,482.148988 93.2694171,482.143429 C94.352038,482.151371 95.3689361,482.59211 96.1258318,483.424353 C97.6966794,485.151971 97.6818737,487.979453 96.0922482,489.726925 L90.1934448,496.212145 C89.9901374,496.435294 89.9901374,496.797018 90.1934448,497.020167 C90.2949179,497.131742 90.4281691,497.187727 90.5610592,497.187727 C90.6943104,497.187727 90.8272005,497.131742 90.9286736,497.020167 L96.827477,490.53455 C98.8222729,488.341574 98.8370786,484.789056 96.8606996,482.615934 L96.8606996,482.615934 Z" id="Shape" fill="#404040"></path>
                            <g id="Group-7" transform="translate(100.259259, 481.000000)" fill="#404040">
                                <rect id="Rectangle-21" x="0" y="3.17647059" width="6.74074074" height="1.05882353"></rect>
                                <rect id="Rectangle-22" x="2.88888889" y="0" width="0.962962963" height="7.41176471"></rect>
                            </g>
                            <g id="clipped_default" transform="translate(186.000000, 405.000000)" fill="#404040">
                                <path d="M15.8606996,1.61593373 C14.9062743,0.566100693 13.6214293,-0.0148016256 12.2643615,0.000286746305 C10.9015158,0.00783093226 9.62100419,0.594689187 8.65935659,1.65246347 L4.2176497,6.53633122 L1.13987184,9.91970009 C-0.356225043,11.5651268 -0.382947508,14.212739 1.07956573,15.8208418 C1.80035004,16.6133783 2.75008086,17.0076613 3.70739508,17.0076613 C4.69323734,17.0076613 5.68702412,16.5887605 6.44572543,15.7545323 L12.0599707,9.58219704 C12.0606929,9.58140291 12.0606929,9.58060879 12.0614152,9.58021172 L13.996266,7.45275128 C14.4996595,6.89964333 14.7820509,6.16626905 14.7910788,5.38802671 C14.8004677,4.60382843 14.5325209,3.87204239 14.0363497,3.32647863 C13.0129516,2.20080667 11.3294363,2.21986567 10.2829268,3.36936137 L3.49867097,10.8293701 C3.29536358,11.0529162 3.29536358,11.4146401 3.49867097,11.6377892 C3.60014411,11.7489667 3.73303421,11.8049525 3.86628541,11.8049525 C3.99953662,11.8049525 4.13242671,11.7489667 4.23389985,11.6377892 L11.0181557,4.17778045 C11.6584115,3.47339172 12.6825319,3.4535386 13.3011208,4.13410359 C13.5972346,4.45969477 13.7572083,4.89963993 13.7514305,5.37254127 C13.7452915,5.85100149 13.5719566,6.30246146 13.2613983,6.64353807 L11.2572134,8.84763156 C11.2564912,8.84842569 11.2564912,8.84921981 11.255769,8.84961687 L5.71049655,14.9461133 C4.61993112,16.1452418 2.87213752,16.1746244 1.8144335,15.0124227 C0.757090593,13.8494269 0.783813057,11.9272477 1.8747396,10.7277221 L2.22068718,10.3473363 C2.22104829,10.3465422 2.22213164,10.3465422 2.22249275,10.3457481 L9.39458547,2.46048549 C10.1612313,1.61712492 11.1824628,1.14898832 12.2694171,1.14342945 C13.352038,1.1513707 14.3689361,1.59210998 15.1258318,2.42435281 C16.6966794,4.1519714 16.6818737,6.97945288 15.0922482,8.72692459 L9.19344476,15.2121451 C8.99013736,15.4352942 8.99013736,15.797018 9.19344476,16.0201671 C9.2949179,16.1317416 9.42816911,16.1877274 9.5610592,16.1877274 C9.6943104,16.1877274 9.8272005,16.1317416 9.92867364,16.0201671 L15.827477,9.53454955 C17.8222729,7.34157381 17.8370786,3.78905635 15.8606996,1.61593373 L15.8606996,1.61593373 Z" id="Shape"></path>
                            </g>
                            <g id="clip_default_dark" transform="translate(186.000000, 483.000000)" fill="#404040">
                                <path d="M15.8606996,1.61593373 C14.9062743,0.566100693 13.6214293,-0.0148016256 12.2643615,0.000286746305 C10.9015158,0.00783093226 9.62100419,0.594689187 8.65935659,1.65246347 L4.2176497,6.53633122 L1.13987184,9.91970009 C-0.356225043,11.5651268 -0.382947508,14.212739 1.07956573,15.8208418 C1.80035004,16.6133783 2.75008086,17.0076613 3.70739508,17.0076613 C4.69323734,17.0076613 5.68702412,16.5887605 6.44572543,15.7545323 L12.0599707,9.58219704 C12.0606929,9.58140291 12.0606929,9.58060879 12.0614152,9.58021172 L13.996266,7.45275128 C14.4996595,6.89964333 14.7820509,6.16626905 14.7910788,5.38802671 C14.8004677,4.60382843 14.5325209,3.87204239 14.0363497,3.32647863 C13.0129516,2.20080667 11.3294363,2.21986567 10.2829268,3.36936137 L3.49867097,10.8293701 C3.29536358,11.0529162 3.29536358,11.4146401 3.49867097,11.6377892 C3.60014411,11.7489667 3.73303421,11.8049525 3.86628541,11.8049525 C3.99953662,11.8049525 4.13242671,11.7489667 4.23389985,11.6377892 L11.0181557,4.17778045 C11.6584115,3.47339172 12.6825319,3.4535386 13.3011208,4.13410359 C13.5972346,4.45969477 13.7572083,4.89963993 13.7514305,5.37254127 C13.7452915,5.85100149 13.5719566,6.30246146 13.2613983,6.64353807 L11.2572134,8.84763156 C11.2564912,8.84842569 11.2564912,8.84921981 11.255769,8.84961687 L5.71049655,14.9461133 C4.61993112,16.1452418 2.87213752,16.1746244 1.8144335,15.0124227 C0.757090593,13.8494269 0.783813057,11.9272477 1.8747396,10.7277221 L2.22068718,10.3473363 C2.22104829,10.3465422 2.22213164,10.3465422 2.22249275,10.3457481 L9.39458547,2.46048549 C10.1612313,1.61712492 11.1824628,1.14898832 12.2694171,1.14342945 C13.352038,1.1513707 14.3689361,1.59210998 15.1258318,2.42435281 C16.6966794,4.1519714 16.6818737,6.97945288 15.0922482,8.72692459 L9.19344476,15.2121451 C8.99013736,15.4352942 8.99013736,15.797018 9.19344476,16.0201671 C9.2949179,16.1317416 9.42816911,16.1877274 9.5610592,16.1877274 C9.6943104,16.1877274 9.8272005,16.1317416 9.92867364,16.0201671 L15.827477,9.53454955 C17.8222729,7.34157381 17.8370786,3.78905635 15.8606996,1.61593373 L15.8606996,1.61593373 Z" id="Shape"></path>
                            </g>
                            <g id="clip_default_light" transform="translate(286.000000, 483.000000)" fill="#9B9B9B">
                                <path d="M15.8606996,1.61593373 C14.9062743,0.566100693 13.6214293,-0.0148016256 12.2643615,0.000286746305 C10.9015158,0.00783093226 9.62100419,0.594689187 8.65935659,1.65246347 L4.2176497,6.53633122 L1.13987184,9.91970009 C-0.356225043,11.5651268 -0.382947508,14.212739 1.07956573,15.8208418 C1.80035004,16.6133783 2.75008086,17.0076613 3.70739508,17.0076613 C4.69323734,17.0076613 5.68702412,16.5887605 6.44572543,15.7545323 L12.0599707,9.58219704 C12.0606929,9.58140291 12.0606929,9.58060879 12.0614152,9.58021172 L13.996266,7.45275128 C14.4996595,6.89964333 14.7820509,6.16626905 14.7910788,5.38802671 C14.8004677,4.60382843 14.5325209,3.87204239 14.0363497,3.32647863 C13.0129516,2.20080667 11.3294363,2.21986567 10.2829268,3.36936137 L3.49867097,10.8293701 C3.29536358,11.0529162 3.29536358,11.4146401 3.49867097,11.6377892 C3.60014411,11.7489667 3.73303421,11.8049525 3.86628541,11.8049525 C3.99953662,11.8049525 4.13242671,11.7489667 4.23389985,11.6377892 L11.0181557,4.17778045 C11.6584115,3.47339172 12.6825319,3.4535386 13.3011208,4.13410359 C13.5972346,4.45969477 13.7572083,4.89963993 13.7514305,5.37254127 C13.7452915,5.85100149 13.5719566,6.30246146 13.2613983,6.64353807 L11.2572134,8.84763156 C11.2564912,8.84842569 11.2564912,8.84921981 11.255769,8.84961687 L5.71049655,14.9461133 C4.61993112,16.1452418 2.87213752,16.1746244 1.8144335,15.0124227 C0.757090593,13.8494269 0.783813057,11.9272477 1.8747396,10.7277221 L2.22068718,10.3473363 C2.22104829,10.3465422 2.22213164,10.3465422 2.22249275,10.3457481 L9.39458547,2.46048549 C10.1612313,1.61712492 11.1824628,1.14898832 12.2694171,1.14342945 C13.352038,1.1513707 14.3689361,1.59210998 15.1258318,2.42435281 C16.6966794,4.1519714 16.6818737,6.97945288 15.0922482,8.72692459 L9.19344476,15.2121451 C8.99013736,15.4352942 8.99013736,15.797018 9.19344476,16.0201671 C9.2949179,16.1317416 9.42816911,16.1877274 9.5610592,16.1877274 C9.6943104,16.1877274 9.8272005,16.1317416 9.92867364,16.0201671 L15.827477,9.53454955 C17.8222729,7.34157381 17.8370786,3.78905635 15.8606996,1.61593373 L15.8606996,1.61593373 Z" id="Shape"></path>
                            </g>
                            <g id="tick" transform="translate(205.000000, 406.000000)" fill="#404040">
                                <rect id="Rectangle-29" transform="translate(4.828427, 2.828427) rotate(-45.000000) translate(-4.828427, -2.828427) " x="1.32842712" y="2.32842712" width="7" height="1"></rect>
                                <rect id="Rectangle-28" transform="translate(1.767767, 3.767767) rotate(-45.000000) translate(-1.767767, -3.767767) " x="1.26776695" y="1.76776695" width="1" height="4"></rect>
                            </g>
                            <path d="M298.503377,401.633972 C297.16674,401.641513 295.910854,402.228107 294.967699,403.285405 L290.61141,408.167073 L287.59282,411.548917 C286.125494,413.193603 286.099286,415.840022 287.533674,417.447401 C288.240597,418.23958 289.172063,418.633686 290.110968,418.633686 C291.077852,418.633686 292.052527,418.214974 292.796638,417.381121 L298.302917,411.211566 C298.303625,411.210773 300.201976,409.08308 300.201976,409.08308 C300.695689,408.530221 300.972649,407.797177 300.981504,407.019285 C300.990712,406.23544 300.727918,405.503984 300.241289,404.958666 C299.237571,403.833501 297.586431,403.852551 296.560047,405.001529 L289.906258,412.458178 C289.70686,412.681623 289.70686,413.043184 289.906258,413.266233 C290.005779,413.37736 290.136114,413.43332 290.266803,413.43332 C290.397491,413.43332 290.527826,413.37736 290.627347,413.266233 L297.281137,405.809584 C297.90908,405.105513 298.913506,405.085669 299.520199,405.765927 C299.810618,406.091372 299.967515,406.531119 299.961849,407.003807 C299.955828,407.482052 299.785826,407.933308 299.48124,408.274231 L297.515597,410.477332 C297.514889,410.478126 292.075548,416.573066 292.075548,416.573066 C291.005955,417.771655 289.291773,417.801024 288.254409,416.639346 C287.2174,415.476874 287.243608,413.555561 288.313556,412.356575 L288.65285,411.976361 C288.653205,411.975567 295.688789,404.093063 295.688789,404.093063 C296.440692,403.250082 297.442284,402.782156 298.508335,402.7766 C299.570137,402.784538 300.567479,403.225079 301.309819,404.056946 C302.850458,405.783787 302.835937,408.609995 301.276881,410.356679 L295.491516,416.838978 C295.292119,417.062027 295.292119,417.423588 295.491516,417.646636 C295.591038,417.758161 295.721727,417.814121 295.852061,417.814121 C295.98275,417.814121 296.113085,417.758161 296.212606,417.646636 L301.997971,411.16394 C303.954406,408.971952 303.968927,405.421035 302.030555,403.248892 C301.094484,402.199531 299.834347,401.618891 298.503377,401.633972 Z" id="ic_clip-white" fill="#FFFFFF"></path>
                        </g>
                    </g>
                    <g id="ic_zoom-light-grey" transform="translate(358.000000, 401.000000)" stroke="#808080">
                        <path d="M9.5,9.5 L14.5,14.5" id="Line" stroke-width="4" stroke-linecap="round"></path>
                        <path d="M5.5,11 C8.53756612,11 11,8.53756612 11,5.5 C11,2.46243388 8.53756612,0 5.5,0 C2.46243388,0 0,2.46243388 0,5.5 C0,8.53756612 2.46243388,11 5.5,11 Z" id="Oval-10" stroke-width="3"></path>
                    </g>
                </g>
            </g>
        </g>
    </g>
</svg>