<?xml version="1.0" encoding="UTF-8" standalone="no"?>
<svg width="64px" height="206px" viewBox="0 0 64 206" version="1.1" xmlns="http://www.w3.org/2000/svg" xmlns:xlink="http://www.w3.org/1999/xlink">
    <!-- Generator: Sketch 3.8.3 (29802) - http://www.bohemiancoding.com/sketch -->
    <title>Group 2</title>
    <desc>Created with Sketch.</desc>
    <defs>
        <circle id="path-1" cx="13.5" cy="10.5" r="4.5"></circle>
        <mask id="mask-2" maskContentUnits="userSpaceOnUse" maskUnits="objectBoundingBox" x="0" y="0" width="9" height="9" fill="white">
            <use xlink:href="#path-1"></use>
        </mask>
        <rect id="path-3" x="13" y="9" width="1" height="3"></rect>
        <mask id="mask-4" maskContentUnits="userSpaceOnUse" maskUnits="objectBoundingBox" x="0" y="0" width="1" height="3" fill="white">
            <use xlink:href="#path-3"></use>
        </mask>
        <rect id="path-5" x="12" y="10" width="3" height="1"></rect>
        <mask id="mask-6" maskContentUnits="userSpaceOnUse" maskUnits="objectBoundingBox" x="0" y="0" width="3" height="1" fill="white">
            <use xlink:href="#path-5"></use>
        </mask>
        <rect id="path-7" x="16.8106602" y="10.8713203" width="2.12132034" height="6"></rect>
        <mask id="mask-8" maskContentUnits="userSpaceOnUse" maskUnits="objectBoundingBox" x="0" y="0" width="2.12132034" height="6" fill="white">
            <use xlink:href="#path-7"></use>
        </mask>
        <path d="M11.2515478,1 L1.99188419,1 C0.893397331,1 0,1.89547804 0,3.00010618 L0,15.9998938 C0,17.1099416 0.891796927,18 1.99188419,18 L13.0081158,18 C14.1066027,18 15,17.1028865 15,15.9962409 L15,15.1808162 L15,14.9645556 C14.8366985,14.987914 14.6697607,15 14.5,15" id="path-9"></path>
        <mask id="mask-10" maskContentUnits="userSpaceOnUse" maskUnits="objectBoundingBox" x="0" y="0" width="15" height="17" fill="white">
            <use xlink:href="#path-9"></use>
        </mask>
        <polygon id="path-11" points="11.0814209 0.963256836 15 5 11 5"></polygon>
        <mask id="mask-12" maskContentUnits="userSpaceOnUse" maskUnits="objectBoundingBox" x="0" y="0" width="4" height="4.03674316" fill="white">
            <use xlink:href="#path-11"></use>
        </mask>
    </defs>
    <g id="Final" stroke="none" stroke-width="1" fill="none" fill-rule="evenodd">
        <g id="new-icons" transform="translate(0.000000, -1.000000)">
            <g id="Group-3">
                <g id="Group-2">
                    <g id="zoom-icon">
                        <g id="Group-4">
                            <use id="Oval-11" stroke="#404040" mask="url(#mask-2)" stroke-width="4" xlink:href="#path-1"></use>
                            <use id="Rectangle-111" stroke="#404040" mask="url(#mask-4)" stroke-width="2" fill="#D8D8D8" xlink:href="#path-3"></use>
                            <use id="Rectangle-110" stroke="#404040" mask="url(#mask-6)" stroke-width="2" fill="#D8D8D8" xlink:href="#path-5"></use>
                            <use id="Rectangle-106" stroke="#404040" mask="url(#mask-8)" stroke-width="2" transform="translate(17.871320, 13.871320) rotate(-45.000000) translate(-17.871320, -13.871320) " xlink:href="#path-7"></use>
                            <use id="Combined-Shape" stroke="#404040" mask="url(#mask-10)" stroke-width="2" xlink:href="#path-9"></use>
                            <use id="Rectangle-109" stroke="#404040" mask="url(#mask-12)" stroke-width="2" fill="#D8D8D8" xlink:href="#path-11"></use>
                            <polygon id="Line" fill="#404040" points="3 13 8 13 8 13 8 12 8 12 3 12 3 12 3 13"></polygon>
                            <polygon id="Line" fill="#404040" points="3 9 6 9 6 9 6 8 6 8 3 8 3 8 3 9"></polygon>
                            <polygon id="Line" fill="#404040" points="7 11 7 11 7 10 7 10 3 10 3 10 3 11 3 11"></polygon>
                            <polygon id="Line" fill="#404040" points="3 7 8 7 8 7 8 6 8 6 3 6 3 6 3 7"></polygon>
                            <path d="M52.9474566,22.16902 C52.0211465,22.16902 51.2040841,22.6103323 50.6702691,23.2861423 L45.7190103,20.754066 C45.7838297,20.5123098 45.8304187,20.2625187 45.8304187,19.9996286 C45.8304187,19.7134441 45.7750858,19.4440046 45.6978765,19.1818236 L50.6272925,16.6614282 C51.1581703,17.3678249 51.9963665,17.8295283 52.9481655,17.8295283 C54.5604812,17.8295283 55.8647358,16.5252737 55.8647358,14.9144097 C55.8647696,13.3049973 54.5604812,12 52.9481993,12 C51.3395297,12 50.0338234,13.3049973 50.0338234,14.9143759 C50.0338234,15.1780087 50.0804461,15.4285087 50.1459745,15.6710077 L45.1954246,18.203084 C44.6609007,17.526565 43.8423529,17.0838011 42.9145911,17.0838011 C41.3037271,17.0838011 40.0002152,18.3895074 40.0002152,19.9996286 C40.0002152,21.6097499 41.3037608,22.9147473 42.9145911,22.9147473 C43.8678418,22.9147473 44.705329,22.4515922 45.2383675,21.7444866 L50.1655891,24.2648819 C50.0883797,24.5263202 50.0323379,24.7979541 50.0323379,25.0848814 C50.0323379,26.6950027 51.3380442,28 52.9467138,28 C54.5590295,28 55.8632842,26.6950027 55.8632842,25.0848814 C55.8640269,23.4733084 54.5597723,22.16902 52.9474566,22.16902 L52.9474566,22.16902 Z" id="Shape" fill="#404040"></path>
                            <path d="M59.7603273,96.6033091 L54.1815273,91.0245636 C55.0928182,89.8651455 55.6369636,88.4041455 55.6369636,86.8185091 C55.6369636,83.0587455 52.5782182,80 48.8184545,80 C45.0587455,80 42,83.0587455 42,86.8185091 C42,90.5781636 45.0587455,93.6369091 48.8184545,93.6369091 C50.4040909,93.6369091 51.8650909,93.0928182 53.0244545,92.1815818 L58.6032545,97.7603273 C58.7630182,97.9201455 58.9724182,98 59.1818182,98 C59.3912182,98 59.6006182,97.9201455 59.7603273,97.7603273 C60.0799091,97.4408545 60.0799091,96.9227818 59.7603273,96.6033091 L59.7603273,96.6033091 Z M43.6363636,86.8185091 C43.6363636,83.9610364 45.9610364,81.6363636 48.8184545,81.6363636 C51.6759273,81.6363636 54.0006,83.9610364 54.0006,86.8184545 C54.0006,89.6758727 51.6759273,92.0004909 48.8184545,92.0004909 C45.9610364,92.0005455 43.6363636,89.6758727 43.6363636,86.8185091 L43.6363636,86.8185091 Z" id="Shape" fill="#404040"></path>
                            <path d="M51.546,86.0003273 L49.6366364,86.0003273 L49.6366364,84.0909091 C49.6366364,83.6390545 49.2703091,83.2727273 48.8184545,83.2727273 C48.3666,83.2727273 48.0002727,83.6390545 48.0002727,84.0909091 L48.0002727,86.0002727 L46.0909091,86.0002727 C45.6390545,86.0002727 45.2727273,86.3666 45.2727273,86.8184545 C45.2727273,87.2703091 45.6390545,87.6366364 46.0909091,87.6366364 L48.0002727,87.6366364 L48.0002727,89.5459455 C48.0002727,89.9978 48.3666,90.3641273 48.8184545,90.3641273 C49.2703091,90.3641273 49.6366364,89.9978 49.6366364,89.5459455 L49.6366364,87.6366364 L51.546,87.6366364 C51.9978545,87.6366364 52.3641818,87.2703091 52.3641818,86.8184545 C52.3641818,86.3666 51.9978545,86.0003273 51.546,86.0003273 L51.546,86.0003273 Z" id="Shape" fill="#404040"></path>
                            <path d="M54,140 L46,140 L46,158 L60,158 L60,145 L54,145 L54,140 Z M51,150 L54,150 L54,155 L51,155 L51,150 Z M50,150 L51,150 L51,151 L50,151 L50,150 Z M54,154 L55,154 L55,155 L54,155 L54,154 Z M51,147 L54,147 L54,149 L51,149 L51,147 Z M55,140 L55,144 L60,144 L55,140 Z" id="ic_metadata" fill="#FFFFFF"></path>
                            <polygon id="Shape" fill="#FFFFFF" points="53.0149254 204.492537 49.2537313 200.731343 48 201.985075 53.0149254 207 63.761194 196.253731 62.5074627 195"></polygon>
                        </g>
                    </g>
                    <g id="share" transform="translate(40.000000, 12.000000)">
                        <g id="Capa_1"></g>
                    </g>
                    <g id="zoom-in" transform="translate(42.000000, 80.000000)">
                        <g id="Capa_1">
                            <g id="Group"></g>
                        </g>
                    </g>
                </g>
                <g id="ic_metadata" transform="translate(46.000000, 140.000000)"></g>
            </g>
        </g>
    </g>
</svg>