<?xml version="1.0" encoding="UTF-8" standalone="no"?>
<svg width="384px" height="500px" viewBox="0 0 384 500" version="1.1" xmlns="http://www.w3.org/2000/svg" xmlns:xlink="http://www.w3.org/1999/xlink">
    <!-- Generator: Sketch 39.1 (31720) - http://www.bohemiancoding.com/sketch -->
    <title>Group 7</title>
    <desc>Created with Sketch.</desc>
    <defs>
        <circle id="path-1" cx="13.5" cy="10.5" r="4.5"></circle>
        <mask id="mask-2" maskContentUnits="userSpaceOnUse" maskUnits="objectBoundingBox" x="0" y="0" width="9" height="9" fill="white">
            <use xlink:href="#path-1"></use>
        </mask>
        <rect id="path-3" x="13" y="9" width="1" height="3"></rect>
        <mask id="mask-4" maskContentUnits="userSpaceOnUse" maskUnits="objectBoundingBox" x="0" y="0" width="1" height="3" fill="white">
            <use xlink:href="#path-3"></use>
        </mask>
        <rect id="path-5" x="12" y="10" width="3" height="1"></rect>
        <mask id="mask-6" maskContentUnits="userSpaceOnUse" maskUnits="objectBoundingBox" x="0" y="0" width="3" height="1" fill="white">
            <use xlink:href="#path-5"></use>
        </mask>
        <rect id="path-7" x="16.8106602" y="10.8713203" width="2.12132034" height="6"></rect>
        <mask id="mask-8" maskContentUnits="userSpaceOnUse" maskUnits="objectBoundingBox" x="0" y="0" width="2.12132034" height="6" fill="white">
            <use xlink:href="#path-7"></use>
        </mask>
        <path d="M11.2515478,1 L1.99188419,1 C0.893397331,1 0,1.89547804 0,3.00010618 L0,15.9998938 C0,17.1099416 0.891796927,18 1.99188419,18 L13.0081158,18 C14.1066027,18 15,17.1028865 15,15.9962409 L15,15.1808162 L15,14.9645556 C14.8366985,14.987914 14.6697607,15 14.5,15" id="path-9"></path>
        <mask id="mask-10" maskContentUnits="userSpaceOnUse" maskUnits="objectBoundingBox" x="0" y="0" width="15" height="17" fill="white">
            <use xlink:href="#path-9"></use>
        </mask>
        <polygon id="path-11" points="11.0814209 0.963256836 15 5 11 5"></polygon>
        <mask id="mask-12" maskContentUnits="userSpaceOnUse" maskUnits="objectBoundingBox" x="0" y="0" width="4" height="4.03674316" fill="white">
            <use xlink:href="#path-11"></use>
        </mask>
        <rect id="path-13" x="0.259259259" y="3.17647059" width="6.74074074" height="1.05882353"></rect>
        <mask id="mask-14" maskContentUnits="userSpaceOnUse" maskUnits="objectBoundingBox" x="0" y="0" width="6.74074074" height="1.05882353" fill="white">
            <use xlink:href="#path-13"></use>
        </mask>
        <polygon id="path-15" points="3.14814815 0 4.11111111 0 4.11111111 7.41176471 3.14814815 7.41176471"></polygon>
        <mask id="mask-16" maskContentUnits="userSpaceOnUse" maskUnits="objectBoundingBox" x="0" y="0" width="1" height="7.41176471" fill="white">
            <use xlink:href="#path-15"></use>
        </mask>
        <rect id="path-17" x="0.259259259" y="3.17647059" width="6.74074074" height="1.05882353"></rect>
        <mask id="mask-18" maskContentUnits="userSpaceOnUse" maskUnits="objectBoundingBox" x="0" y="0" width="6.74074074" height="1.05882353" fill="white">
            <use xlink:href="#path-17"></use>
        </mask>
        <polygon id="path-19" points="3.14814815 0 4.11111111 0 4.11111111 7.41176471 3.14814815 7.41176471"></polygon>
        <mask id="mask-20" maskContentUnits="userSpaceOnUse" maskUnits="objectBoundingBox" x="0" y="0" width="1" height="7.41176471" fill="white">
            <use xlink:href="#path-19"></use>
        </mask>
    </defs>
    <g id="Page-1" stroke="none" stroke-width="1" fill="none" fill-rule="evenodd">
        <g id="new-icons" transform="translate(0.000000, -1.000000)">
            <g id="Group-7">
                <g id="Group-6">
                    <g id="Group-5">
                        <g id="Group-9">
                            <g id="Group-3">
                                <g id="Group-2">
                                    <g id="zoom-icon">
                                        <g id="Group-4">
                                            <use id="Oval-11" stroke="#404040" mask="url(#mask-2)" stroke-width="4" xlink:href="#path-1"></use>
                                            <use id="Rectangle-111" stroke="#404040" mask="url(#mask-4)" stroke-width="2" fill="#D8D8D8" xlink:href="#path-3"></use>
                                            <use id="Rectangle-110" stroke="#404040" mask="url(#mask-6)" stroke-width="2" fill="#D8D8D8" xlink:href="#path-5"></use>
                                            <use id="Rectangle-106" stroke="#404040" mask="url(#mask-8)" stroke-width="2" transform="translate(17.871320, 13.871320) rotate(-45.000000) translate(-17.871320, -13.871320) " xlink:href="#path-7"></use>
                                            <use id="Combined-Shape" stroke="#404040" mask="url(#mask-10)" stroke-width="2" xlink:href="#path-9"></use>
                                            <use id="Rectangle-109" stroke="#404040" mask="url(#mask-12)" stroke-width="2" fill="#D8D8D8" xlink:href="#path-11"></use>
                                            <polygon id="Line" fill="#404040" points="3 13 8 13 8 13 8 12 8 12 3 12 3 12 3 13"></polygon>
                                            <polygon id="Line" fill="#404040" points="3 9 6 9 6 9 6 8 6 8 3 8 3 8 3 9"></polygon>
                                            <polygon id="Line" fill="#404040" points="7 11 7 11 7 10 7 10 3 10 3 10 3 11 3 11"></polygon>
                                            <polygon id="Line" fill="#404040" points="3 7 8 7 8 7 8 6 8 6 3 6 3 6 3 7"></polygon>
                                            <path d="M52.9474566,22.16902 C52.0211465,22.16902 51.2040841,22.6103323 50.6702691,23.2861423 L45.7190103,20.754066 C45.7838297,20.5123098 45.8304187,20.2625187 45.8304187,19.9996286 C45.8304187,19.7134441 45.7750858,19.4440046 45.6978765,19.1818236 L50.6272925,16.6614282 C51.1581703,17.3678249 51.9963665,17.8295283 52.9481655,17.8295283 C54.5604812,17.8295283 55.8647358,16.5252737 55.8647358,14.9144097 C55.8647696,13.3049973 54.5604812,12 52.9481993,12 C51.3395297,12 50.0338234,13.3049973 50.0338234,14.9143759 C50.0338234,15.1780087 50.0804461,15.4285087 50.1459745,15.6710077 L45.1954246,18.203084 C44.6609007,17.526565 43.8423529,17.0838011 42.9145911,17.0838011 C41.3037271,17.0838011 40.0002152,18.3895074 40.0002152,19.9996286 C40.0002152,21.6097499 41.3037608,22.9147473 42.9145911,22.9147473 C43.8678418,22.9147473 44.705329,22.4515922 45.2383675,21.7444866 L50.1655891,24.2648819 C50.0883797,24.5263202 50.0323379,24.7979541 50.0323379,25.0848814 C50.0323379,26.6950027 51.3380442,28 52.9467138,28 C54.5590295,28 55.8632842,26.6950027 55.8632842,25.0848814 C55.8640269,23.4733084 54.5597723,22.16902 52.9474566,22.16902 L52.9474566,22.16902 Z" id="Shape" fill="#404040"></path>
                                            <path d="M59.7603273,96.6033091 L54.1815273,91.0245636 C55.0928182,89.8651455 55.6369636,88.4041455 55.6369636,86.8185091 C55.6369636,83.0587455 52.5782182,80 48.8184545,80 C45.0587455,80 42,83.0587455 42,86.8185091 C42,90.5781636 45.0587455,93.6369091 48.8184545,93.6369091 C50.4040909,93.6369091 51.8650909,93.0928182 53.0244545,92.1815818 L58.6032545,97.7603273 C58.7630182,97.9201455 58.9724182,98 59.1818182,98 C59.3912182,98 59.6006182,97.9201455 59.7603273,97.7603273 C60.0799091,97.4408545 60.0799091,96.9227818 59.7603273,96.6033091 L59.7603273,96.6033091 Z M43.6363636,86.8185091 C43.6363636,83.9610364 45.9610364,81.6363636 48.8184545,81.6363636 C51.6759273,81.6363636 54.0006,83.9610364 54.0006,86.8184545 C54.0006,89.6758727 51.6759273,92.0004909 48.8184545,92.0004909 C45.9610364,92.0005455 43.6363636,89.6758727 43.6363636,86.8185091 L43.6363636,86.8185091 Z" id="Shape" fill="#404040"></path>
                                            <path d="M51.546,86.0003273 L49.6366364,86.0003273 L49.6366364,84.0909091 C49.6366364,83.6390545 49.2703091,83.2727273 48.8184545,83.2727273 C48.3666,83.2727273 48.0002727,83.6390545 48.0002727,84.0909091 L48.0002727,86.0002727 L46.0909091,86.0002727 C45.6390545,86.0002727 45.2727273,86.3666 45.2727273,86.8184545 C45.2727273,87.2703091 45.6390545,87.6366364 46.0909091,87.6366364 L48.0002727,87.6366364 L48.0002727,89.5459455 C48.0002727,89.9978 48.3666,90.3641273 48.8184545,90.3641273 C49.2703091,90.3641273 49.6366364,89.9978 49.6366364,89.5459455 L49.6366364,87.6366364 L51.546,87.6366364 C51.9978545,87.6366364 52.3641818,87.2703091 52.3641818,86.8184545 C52.3641818,86.3666 51.9978545,86.0003273 51.546,86.0003273 L51.546,86.0003273 Z" id="Shape" fill="#404040"></path>
                                            <path d="M54,140 L46,140 L46,158 L60,158 L60,145 L54,145 L54,140 Z M51,150 L54,150 L54,155 L51,155 L51,150 Z M50,150 L51,150 L51,151 L50,151 L50,150 Z M54,154 L55,154 L55,155 L54,155 L54,154 Z M51,147 L54,147 L54,149 L51,149 L51,147 Z M55,140 L55,144 L60,144 L55,140 Z" id="ic_metadata" fill="#FFFFFF"></path>
                                            <polygon id="Shape" fill="#FFFFFF" points="53.0149254 204.492537 49.2537313 200.731343 48 201.985075 53.0149254 207 63.761194 196.253731 62.5074627 195"></polygon>
                                        </g>
                                    </g>
                                    <g id="share" transform="translate(40.000000, 12.000000)">
                                        <g id="Capa_1"></g>
                                    </g>
                                    <g id="zoom-in" transform="translate(42.000000, 80.000000)">
                                        <g id="Capa_1">
                                            <g id="Group"></g>
                                        </g>
                                    </g>
                                </g>
                                <g id="ic_metadata" transform="translate(46.000000, 140.000000)"></g>
                            </g>
                            <polygon id="arrow-right-gray" fill="#404040" transform="translate(8.500000, 349.250000) rotate(90.000000) translate(-8.500000, -349.250000) " points="4 351.5 8.5 347 13 351.5"></polygon>
                            <polygon id="arrow-right-white" fill="#FFFFFF" transform="translate(8.500000, 388.250000) rotate(90.000000) translate(-8.500000, -388.250000) " points="4 390.5 8.5 386 13 390.5"></polygon>
                            <polygon id="Shape" fill="#D5D5CE" points="14.8333333 425 11 428.833333 7.16666667 425 6 426.166667 11 431.166667 16 426.166667"></polygon>
                            <polygon id="Shape" fill="#404040" points="14.8333333 462 11 465.833333 7.16666667 462 6 463.166667 11 468.166667 16 463.166667"></polygon>
                            <g id="add-light-gray" transform="translate(100.000000, 404.000000)" stroke="#979797" fill="#D8D8D8">
                                <use id="Rectangle-21" mask="url(#mask-14)" stroke-width="4" xlink:href="#path-13"></use>
                                <use id="Rectangle-22" mask="url(#mask-16)" stroke-width="2" xlink:href="#path-15"></use>
                            </g>
                            <rect id="Rectangle-21" fill="#404040" x="100.259259" y="484.176471" width="6.74074074" height="1.05882353"></rect>
                            <rect id="Rectangle-22" fill="#404040" x="103.148148" y="481" width="0.962962963" height="7.41176471"></rect>
                            <path d="M298.264361,483.000287 C296.901516,483.007831 295.621004,483.594689 294.659357,484.652463 L290.21765,489.536331 L287.139872,492.9197 C285.643775,494.565127 285.617052,497.212739 287.079566,498.820842 C287.80035,499.613378 288.750081,500.007661 289.707395,500.007661 C290.693237,500.007661 291.687024,499.58876 292.445725,498.754532 L298.059971,492.582197 C298.060693,492.581403 299.996266,490.452751 299.996266,490.452751 C300.499659,489.899643 301,488 300,487 C298.923281,485.923281 297.329436,486.219866 296.282927,487.369361 L289.498671,494.82937 C289.295364,495.052916 289.295364,495.41464 289.498671,495.637789 C289.600144,495.748967 289.733034,495.804952 289.866285,495.804952 C289.999537,495.804952 290.132427,495.748967 290.2339,495.637789 L297.018156,488.17778 C297.658412,487.473392 300,487 299.261398,489.643538 L297.257213,491.847632 C297.256491,491.848426 291.710497,497.946113 291.710497,497.946113 C290.619931,499.145242 288.872138,499.174624 287.814433,498.012423 C286.757091,496.849427 286.783813,494.927248 287.87474,493.727722 L288.220687,493.347336 C288.221048,493.346542 295.394585,485.460485 295.394585,485.460485 C296.161231,484.617125 297.182463,484.148988 298.269417,484.143429 C299.352038,484.151371 300.368936,484.59211 301.125832,485.424353 C302.696679,487.151971 302.681874,489.979453 301.092248,491.726925 L295.193445,498.212145 C294.990137,498.435294 294.990137,498.797018 295.193445,499.020167 C295.294918,499.131742 295.428169,499.187727 295.561059,499.187727 C295.69431,499.187727 295.8272,499.131742 295.928674,499.020167 L301.827477,492.53455 C303.822273,490.341574 303.837079,486.789056 301.8607,484.615934 C300.906274,483.566101 299.621429,482.985198 298.264361,483.000287 Z" id="ic_clip-light" stroke="#979797" stroke-width="0.5" fill="#9B9B9B"></path>
                            <path d="M299.264361,402.000287 C297.901516,402.007831 296.621004,402.594689 295.659357,403.652463 L291.21765,408.536331 L288.139872,411.9197 C286.643775,413.565127 286.617052,416.212739 288.079566,417.820842 C288.80035,418.613378 289.750081,419.007661 290.707395,419.007661 C291.693237,419.007661 292.687024,418.58876 293.445725,417.754532 L299.059971,411.582197 C299.060693,411.581403 300.996266,409.452751 300.996266,409.452751 C301.499659,408.899643 302,407 301,406 C299.923281,404.923281 298.329436,405.219866 297.282927,406.369361 L290.498671,413.82937 C290.295364,414.052916 290.295364,414.41464 290.498671,414.637789 C290.600144,414.748967 290.733034,414.804952 290.866285,414.804952 C290.999537,414.804952 291.132427,414.748967 291.2339,414.637789 L298.018156,407.17778 C298.658412,406.473392 301,406 300.261398,408.643538 L298.257213,410.847632 C298.256491,410.848426 292.710497,416.946113 292.710497,416.946113 C291.619931,418.145242 289.872138,418.174624 288.814433,417.012423 C287.757091,415.849427 287.783813,413.927248 288.87474,412.727722 L289.220687,412.347336 C289.221048,412.346542 296.394585,404.460485 296.394585,404.460485 C297.161231,403.617125 298.182463,403.148988 299.269417,403.143429 C300.352038,403.151371 301.368936,403.59211 302.125832,404.424353 C303.696679,406.151971 303.681874,408.979453 302.092248,410.726925 L296.193445,417.212145 C295.990137,417.435294 295.990137,417.797018 296.193445,418.020167 C296.294918,418.131742 296.428169,418.187727 296.561059,418.187727 C296.69431,418.187727 296.8272,418.131742 296.928674,418.020167 L302.827477,411.53455 C304.822273,409.341574 304.837079,405.789056 302.8607,403.615934 C301.906274,402.566101 300.621429,401.985198 299.264361,402.000287 Z" id="ic_clip-white" stroke="#FFFFFF" stroke-width="0.5" fill="#FFFFFF"></path>
                            <path d="M93.2643615,404.000287 C91.9015158,404.007831 90.6210042,404.594689 89.6593566,405.652463 L85.2176497,410.536331 L82.1398718,413.9197 C80.643775,415.565127 80.6170525,418.212739 82.0795657,419.820842 C82.80035,420.613378 83.7500809,421.007661 84.7073951,421.007661 C85.6932373,421.007661 86.6870241,420.58876 87.4457254,419.754532 L93.0599707,413.582197 C93.0606929,413.581403 94.996266,411.452751 94.996266,411.452751 C95.4996595,410.899643 96,409 95,408 C93.9232805,406.923281 92.3294363,407.219866 91.2829268,408.369361 L84.498671,415.82937 C84.2953636,416.052916 84.2953636,416.41464 84.498671,416.637789 C84.6001441,416.748967 84.7330342,416.804952 84.8662854,416.804952 C84.9995366,416.804952 85.1324267,416.748967 85.2338999,416.637789 L92.0181557,409.17778 C92.6584115,408.473392 95,408 94.2613983,410.643538 L92.2572134,412.847632 C92.2564912,412.848426 86.7104966,418.946113 86.7104966,418.946113 C85.6199311,420.145242 83.8721375,420.174624 82.8144335,419.012423 C81.7570906,417.849427 81.7838131,415.927248 82.8747396,414.727722 L83.2206872,414.347336 C83.2210483,414.346542 90.3945855,406.460485 90.3945855,406.460485 C91.1612313,405.617125 92.1824628,405.148988 93.2694171,405.143429 C94.352038,405.151371 95.3689361,405.59211 96.1258318,406.424353 C97.6966794,408.151971 97.6818737,410.979453 96.0922482,412.726925 L90.1934448,419.212145 C89.9901374,419.435294 89.9901374,419.797018 90.1934448,420.020167 C90.2949179,420.131742 90.4281691,420.187727 90.5610592,420.187727 C90.6943104,420.187727 90.8272005,420.131742 90.9286736,420.020167 L96.827477,413.53455 C98.8222729,411.341574 98.8370786,407.789056 96.8606996,405.615934 C95.9062743,404.566101 94.6214293,403.985198 93.2643615,404.000287 Z" id="ic_clip-light" stroke="#979797" stroke-width="0.5" fill="#9B9B9B"></path>
                            <path d="M370.264361,482.000287 C368.901516,482.007831 367.621004,482.594689 366.659357,483.652463 L362.21765,488.536331 L359.139872,491.9197 C357.643775,493.565127 357.617052,496.212739 359.079566,497.820842 C359.80035,498.613378 360.750081,499.007661 361.707395,499.007661 C362.693237,499.007661 363.687024,498.58876 364.445725,497.754532 L370.059971,491.582197 C370.060693,491.581403 371.996266,489.452751 371.996266,489.452751 C372.499659,488.899643 373,487 372,486 C370.923281,484.923281 369.329436,485.219866 368.282927,486.369361 L361.498671,493.82937 C361.295364,494.052916 361.295364,494.41464 361.498671,494.637789 C361.600144,494.748967 361.733034,494.804952 361.866285,494.804952 C361.999537,494.804952 362.132427,494.748967 362.2339,494.637789 L369.018156,487.17778 C369.658412,486.473392 372,486 371.261398,488.643538 L369.257213,490.847632 C369.256491,490.848426 363.710497,496.946113 363.710497,496.946113 C362.619931,498.145242 360.872138,498.174624 359.814433,497.012423 C358.757091,495.849427 358.783813,493.927248 359.87474,492.727722 L360.220687,492.347336 C360.221048,492.346542 367.394585,484.460485 367.394585,484.460485 C368.161231,483.617125 369.182463,483.148988 370.269417,483.143429 C371.352038,483.151371 372.368936,483.59211 373.125832,484.424353 C374.696679,486.151971 374.681874,488.979453 373.092248,490.726925 L367.193445,497.212145 C366.990137,497.435294 366.990137,497.797018 367.193445,498.020167 C367.294918,498.131742 367.428169,498.187727 367.561059,498.187727 C367.69431,498.187727 367.8272,498.131742 367.928674,498.020167 L373.827477,491.53455 C375.822273,489.341574 375.837079,485.789056 373.8607,483.615934 C372.906274,482.566101 371.621429,481.985198 370.264361,482.000287 Z" id="ic_clip-add-blue" stroke="#4990E2" stroke-width="0.5" fill="#4990E2"></path>
                            <g id="add-blue" transform="translate(377.000000, 482.000000)" stroke="#4990E2" fill="#4990E2">
                                <use id="Rectangle-21" mask="url(#mask-18)" stroke-width="4" xlink:href="#path-17"></use>
                                <use id="Rectangle-22" mask="url(#mask-20)" stroke-width="2" xlink:href="#path-19"></use>
                            </g>
                            <path d="M93.2643615,481.000287 C91.9015158,481.007831 90.6210042,481.594689 89.6593566,482.652463 L85.2176497,487.536331 L82.1398718,490.9197 C80.643775,492.565127 80.6170525,495.212739 82.0795657,496.820842 C82.80035,497.613378 83.7500809,498.007661 84.7073951,498.007661 C85.6932373,498.007661 86.6870241,497.58876 87.4457254,496.754532 L93.0599707,490.582197 C93.0606929,490.581403 94.996266,488.452751 94.996266,488.452751 C95.4996595,487.899643 96,486 95,485 C93.9232805,483.923281 92.3294363,484.219866 91.2829268,485.369361 L84.498671,492.82937 C84.2953636,493.052916 84.2953636,493.41464 84.498671,493.637789 C84.6001441,493.748967 84.7330342,493.804952 84.8662854,493.804952 C84.9995366,493.804952 85.1324267,493.748967 85.2338999,493.637789 L92.0181557,486.17778 C92.6584115,485.473392 95,485 94.2613983,487.643538 L92.2572134,489.847632 C92.2564912,489.848426 86.7104966,495.946113 86.7104966,495.946113 C85.6199311,497.145242 83.8721375,497.174624 82.8144335,496.012423 C81.7570906,494.849427 81.7838131,492.927248 82.8747396,491.727722 L83.2206872,491.347336 C83.2210483,491.346542 90.3945855,483.460485 90.3945855,483.460485 C91.1612313,482.617125 92.1824628,482.148988 93.2694171,482.143429 C94.352038,482.151371 95.3689361,482.59211 96.1258318,483.424353 C97.6966794,485.151971 97.6818737,487.979453 96.0922482,489.726925 L90.1934448,496.212145 C89.9901374,496.435294 89.9901374,496.797018 90.1934448,497.020167 C90.2949179,497.131742 90.4281691,497.187727 90.5610592,497.187727 C90.6943104,497.187727 90.8272005,497.131742 90.9286736,497.020167 L96.827477,490.53455 C98.8222729,488.341574 98.8370786,484.789056 96.8606996,482.615934 C95.9062743,481.566101 94.6214293,480.985198 93.2643615,481.000287 Z" id="ic_clip-add-dark" stroke="#404040" stroke-width="0.5" fill="#404040"></path>
                            <path d="M198.264361,405.000287 C196.901516,405.007831 195.621004,405.594689 194.659357,406.652463 L190.21765,411.536331 L187.139872,414.9197 C185.643775,416.565127 185.617052,419.212739 187.079566,420.820842 C187.80035,421.613378 188.750081,422.007661 189.707395,422.007661 C190.693237,422.007661 191.687024,421.58876 192.445725,420.754532 L198.059971,414.582197 C198.060693,414.581403 199.996266,412.452751 199.996266,412.452751 C200.499659,411.899643 201,410 200,409 C198.923281,407.923281 197.329436,408.219866 196.282927,409.369361 L189.498671,416.82937 C189.295364,417.052916 189.295364,417.41464 189.498671,417.637789 C189.600144,417.748967 189.733034,417.804952 189.866285,417.804952 C189.999537,417.804952 190.132427,417.748967 190.2339,417.637789 L197.018156,410.17778 C197.658412,409.473392 200,409 199.261398,411.643538 L197.257213,413.847632 C197.256491,413.848426 191.710497,419.946113 191.710497,419.946113 C190.619931,421.145242 188.872138,421.174624 187.814433,420.012423 C186.757091,418.849427 186.783813,416.927248 187.87474,415.727722 L188.220687,415.347336 C188.221048,415.346542 195.394585,407.460485 195.394585,407.460485 C196.161231,406.617125 197.182463,406.148988 198.269417,406.143429 C199.352038,406.151371 200.368936,406.59211 201.125832,407.424353 C202.696679,409.151971 202.681874,411.979453 201.092248,413.726925 L195.193445,420.212145 C194.990137,420.435294 194.990137,420.797018 195.193445,421.020167 C195.294918,421.131742 195.428169,421.187727 195.561059,421.187727 C195.69431,421.187727 195.8272,421.131742 195.928674,421.020167 L201.827477,414.53455 C203.822273,412.341574 203.837079,408.789056 201.8607,406.615934 C200.906274,405.566101 199.621429,404.985198 198.264361,405.000287 Z" id="ic_clip-added-dark" stroke="#4990E2" stroke-width="0.5" fill="#4990E2"></path>
                            <path d="M198.264361,483.000287 C196.901516,483.007831 195.621004,483.594689 194.659357,484.652463 L190.21765,489.536331 L187.139872,492.9197 C185.643775,494.565127 185.617052,497.212739 187.079566,498.820842 C187.80035,499.613378 188.750081,500.007661 189.707395,500.007661 C190.693237,500.007661 191.687024,499.58876 192.445725,498.754532 L198.059971,492.582197 C198.060693,492.581403 199.996266,490.452751 199.996266,490.452751 C200.499659,489.899643 201,488 200,487 C198.923281,485.923281 197.329436,486.219866 196.282927,487.369361 L189.498671,494.82937 C189.295364,495.052916 189.295364,495.41464 189.498671,495.637789 C189.600144,495.748967 189.733034,495.804952 189.866285,495.804952 C189.999537,495.804952 190.132427,495.748967 190.2339,495.637789 L197.018156,488.17778 C197.658412,487.473392 200,487 199.261398,489.643538 L197.257213,491.847632 C197.256491,491.848426 191.710497,497.946113 191.710497,497.946113 C190.619931,499.145242 188.872138,499.174624 187.814433,498.012423 C186.757091,496.849427 186.783813,494.927248 187.87474,493.727722 L188.220687,493.347336 C188.221048,493.346542 195.394585,485.460485 195.394585,485.460485 C196.161231,484.617125 197.182463,484.148988 198.269417,484.143429 C199.352038,484.151371 200.368936,484.59211 201.125832,485.424353 C202.696679,487.151971 202.681874,489.979453 201.092248,491.726925 L195.193445,498.212145 C194.990137,498.435294 194.990137,498.797018 195.193445,499.020167 C195.294918,499.131742 195.428169,499.187727 195.561059,499.187727 C195.69431,499.187727 195.8272,499.131742 195.928674,499.020167 L201.827477,492.53455 C203.822273,490.341574 203.837079,486.789056 201.8607,484.615934 C200.906274,483.566101 199.621429,482.985198 198.264361,483.000287 Z" id="ic_clip-dark" stroke="#404040" stroke-width="0.5" fill="#404040"></path>
                            <rect id="Rectangle-29" fill="#4990E2" transform="translate(209.828427, 408.828427) rotate(-45.000000) translate(-209.828427, -408.828427) " x="206.328427" y="408.328427" width="7" height="1"></rect>
                            <rect id="Rectangle-28" fill="#4990E2" transform="translate(206.767767, 409.767767) rotate(-45.000000) translate(-206.767767, -409.767767) " x="206.267767" y="407.767767" width="1" height="4"></rect>
                            <g id="ic_zoom-light-grey" transform="translate(358.000000, 401.000000)" stroke="#808080">
                                <path d="M9.5,9.5 L14.5,14.5" id="Line" stroke-width="4" stroke-linecap="round"></path>
                                <path d="M5.5,11 C8.53756612,11 11,8.53756612 11,5.5 C11,2.46243388 8.53756612,0 5.5,0 C2.46243388,0 0,2.46243388 0,5.5 C0,8.53756612 2.46243388,11 5.5,11 Z" id="Oval-10" stroke-width="3"></path>
                            </g>
                        </g>
                    </g>
                </g>
            </g>
        </g>
    </g>
</svg>