<?xml version="1.0" encoding="UTF-8" standalone="no"?>
<svg width="588px" height="530px" viewBox="0 0 588 530" version="1.1" xmlns="http://www.w3.org/2000/svg" xmlns:xlink="http://www.w3.org/1999/xlink">
    <!-- Generator: Sketch 3.8.3 (29802) - http://www.bohemiancoding.com/sketch -->
    <title>new-icons</title>
    <desc>Created with Sketch.</desc>
    <defs>
        <rect id="path-1" x="0" y="0" width="14.8965517" height="17.3793103" rx="4"></rect>
    </defs>
    <g id="Final" stroke="none" stroke-width="1" fill="none" fill-rule="evenodd">
        <g id="new-icons">
            <g id="zoom-icon">
                <path d="M15.4786623,15.337316 C15.2720455,16.4981243 14.2601236,17.3793103 13.0406568,17.3793103 L3.09727428,17.3793103 C1.72949436,17.3793103 0.620689655,16.2657185 0.620689655,14.8985138 L0.620689655,2.48079654 C0.620689655,1.11069044 1.72818204,0 3.09727428,0 L11.2918962,0 L11.1724138,0.206949573 L12.9640987,1.24137931 L3.09727428,1.24137931 C2.41480473,1.24137931 1.86206897,1.79525784 1.86206897,2.48079654 L1.86206897,14.8985138 C1.86206897,15.5818213 2.41678637,16.137931 3.09727428,16.137931 L13.0406568,16.137931 C13.5999062,16.137931 14.0720397,15.7660029 14.2242968,15.2544758 C14.5227924,15.3164852 14.8317718,15.3490716 15.1480106,15.3490716 C15.2592838,15.3490716 15.3695418,15.3451123 15.4786623,15.337316 Z M15.5172414,6.27208731 L15.5172414,2.71543695 L14.1428983,1.92195959 C14.2279064,2.089974 14.2758621,2.2798871 14.2758621,2.48079654 L14.2758621,6.34187033 C14.5583293,6.28638637 14.8499455,6.25729443 15.1480106,6.25729443 C15.2723128,6.25729443 15.395453,6.26228866 15.5172414,6.27208731 Z" id="Combined-Shape" fill="#404040"></path>
                <path d="M15.1480106,15.3490716 C16.2567639,15.3490716 17.2647215,14.9559682 18.0509284,14.2907162 L21.5787798,17.8185676 C21.6594164,17.8992042 21.7602122,17.9395225 21.8710875,17.9395225 C21.9718833,17.9395225 22.0827586,17.8992042 22.1633952,17.8185676 C22.3246684,17.6572944 22.3246684,17.3952255 22.1633952,17.2339523 L18.6355438,13.7061008 C19.2907162,12.9198939 19.6938992,11.9018568 19.6938992,10.803183 C19.6938992,8.2933687 17.6578249,6.25729443 15.1480106,6.25729443 C12.6482759,6.25729443 10.602122,8.30344828 10.602122,10.803183 C10.602122,13.3129973 12.6482759,15.3490716 15.1480106,15.3490716 L15.1480106,15.3490716 Z" id="Combined-Shape" stroke="#404040" stroke-width="2"></path>
                <path d="M15.7711419,10.3352609 L15.7711419,8.69868077 L14.6800885,8.69868077 L14.6800885,10.3352609 L13.0435084,10.3352609 L13.0435084,11.4263143 L14.6800885,11.4263143 L14.6800885,13.0344828 L15.7711419,13.0344828 L15.7711419,11.4263143 L17.3793103,11.4263143 L17.3793103,10.3352609 L15.7711419,10.3352609 Z" id="Combined-Shape" fill="#404040"></path>
                <mask id="mask-2" fill="white">
                    <use xlink:href="#path-1"></use>
                </mask>
                <g id="Mask"></g>
                <polygon id="Rectangle-738" fill="#404040" mask="url(#mask-2)" points="10.5517241 -1.24137931 15.5172414 3.72413793 10.5517241 3.72413793"></polygon>
                <polygon id="Line" fill="#404040" mask="url(#mask-2)" points="3.41106044 13.6551724 7.76135335 13.6551724 8.06896552 13.6551724 8.06896552 12.4137931 7.76135335 12.4137931 3.41106044 12.4137931 3.10344828 12.4137931 3.10344828 13.6551724"></polygon>
                <polygon id="Line" fill="#404040" mask="url(#mask-2)" points="3.36945813 8.68965517 10.2857143 8.68965517 10.5517241 8.68965517 10.5517241 7.44827586 10.2857143 7.44827586 3.36945813 7.44827586 3.10344828 7.44827586 3.10344828 8.68965517"></polygon>
                <polygon id="Line" fill="#404040" mask="url(#mask-2)" points="8.41034483 11.1724138 8.68965517 11.1724138 8.68965517 9.93103448 8.41034483 9.93103448 3.38275862 9.93103448 3.10344828 9.93103448 3.10344828 11.1724138 3.38275862 11.1724138"></polygon>
                <polygon id="Line" fill="#404040" mask="url(#mask-2)" points="3.4137931 6.20689655 12.1034483 6.20689655 12.4137931 6.20689655 12.4137931 4.96551724 12.1034483 4.96551724 3.4137931 4.96551724 3.10344828 4.96551724 3.10344828 6.20689655"></polygon>
            </g>
        </g>
    </g>
</svg>