<?xml version="1.0" encoding="UTF-8" standalone="no"?>
<svg width="58px" height="29px" viewBox="0 0 58 29" version="1.1" xmlns="http://www.w3.org/2000/svg" xmlns:xlink="http://www.w3.org/1999/xlink">
    <!-- Generator: Sketch 3.8.3 (29802) - http://www.bohemiancoding.com/sketch -->
    <title>Group 3</title>
    <desc>Created with Sketch.</desc>
    <defs>
        <circle id="path-1" cx="13.5" cy="10.5" r="4.5"></circle>
        <mask id="mask-2" maskContentUnits="userSpaceOnUse" maskUnits="objectBoundingBox" x="0" y="0" width="9" height="9" fill="white">
            <use xlink:href="#path-1"></use>
        </mask>
        <rect id="path-3" x="13" y="9" width="1" height="3"></rect>
        <mask id="mask-4" maskContentUnits="userSpaceOnUse" maskUnits="objectBoundingBox" x="0" y="0" width="1" height="3" fill="white">
            <use xlink:href="#path-3"></use>
        </mask>
        <rect id="path-5" x="12" y="10" width="3" height="1"></rect>
        <mask id="mask-6" maskContentUnits="userSpaceOnUse" maskUnits="objectBoundingBox" x="0" y="0" width="3" height="1" fill="white">
            <use xlink:href="#path-5"></use>
        </mask>
        <rect id="path-7" x="16.8106602" y="10.8713203" width="2.12132034" height="6"></rect>
        <mask id="mask-8" maskContentUnits="userSpaceOnUse" maskUnits="objectBoundingBox" x="0" y="0" width="2.12132034" height="6" fill="white">
            <use xlink:href="#path-7"></use>
        </mask>
        <path d="M11.2515478,1 L1.99188419,1 C0.893397331,1 0,1.89547804 0,3.00010618 L0,15.9998938 C0,17.1099416 0.891796927,18 1.99188419,18 L13.0081158,18 C14.1066027,18 15,17.1028865 15,15.9962409 L15,15.1808162 L15,14.9645556 C14.8366985,14.987914 14.6697607,15 14.5,15" id="path-9"></path>
        <mask id="mask-10" maskContentUnits="userSpaceOnUse" maskUnits="objectBoundingBox" x="0" y="0" width="15" height="17" fill="white">
            <use xlink:href="#path-9"></use>
        </mask>
        <polygon id="path-11" points="11.0814209 0.963256836 15 5 11 5"></polygon>
        <mask id="mask-12" maskContentUnits="userSpaceOnUse" maskUnits="objectBoundingBox" x="0" y="0" width="4" height="4.03674316" fill="white">
            <use xlink:href="#path-11"></use>
        </mask>
    </defs>
    <g id="Final" stroke="none" stroke-width="1" fill="none" fill-rule="evenodd">
        <g id="new-icons" transform="translate(0.000000, -1.000000)">
            <g id="Group-3">
                <g id="Group-2">
                    <g id="Group">
                        <g id="zoom-icon">
                            <use id="Oval-11" stroke="#404040" mask="url(#mask-2)" stroke-width="4" xlink:href="#path-1"></use>
                            <use id="Rectangle-111" stroke="#404040" mask="url(#mask-4)" stroke-width="2" fill="#D8D8D8" xlink:href="#path-3"></use>
                            <use id="Rectangle-110" stroke="#404040" mask="url(#mask-6)" stroke-width="2" fill="#D8D8D8" xlink:href="#path-5"></use>
                            <use id="Rectangle-106" stroke="#404040" mask="url(#mask-8)" stroke-width="2" transform="translate(17.871320, 13.871320) rotate(-45.000000) translate(-17.871320, -13.871320) " xlink:href="#path-7"></use>
                            <use id="Combined-Shape" stroke="#404040" mask="url(#mask-10)" stroke-width="2" xlink:href="#path-9"></use>
                            <use id="Rectangle-109" stroke="#404040" mask="url(#mask-12)" stroke-width="2" fill="#D8D8D8" xlink:href="#path-11"></use>
                            <polygon id="Line" fill="#404040" points="3 13 8 13 8 13 8 12 8 12 3 12 3 12 3 13"></polygon>
                            <polygon id="Line" fill="#404040" points="3 9 6 9 6 9 6 8 6 8 3 8 3 8 3 9"></polygon>
                            <polygon id="Line" fill="#404040" points="7 11 7 11 7 10 7 10 3 10 3 10 3 11 3 11"></polygon>
                            <polygon id="Line" fill="#404040" points="3 7 8 7 8 7 8 6 8 6 3 6 3 6 3 7"></polygon>
                        </g>
                        <g id="share" transform="translate(40.000000, 12.000000)" fill="#404040">
                            <g id="Capa_1">
                                <path d="M14.5637848,11.4385063 C13.5218354,11.4385063 12.6027722,11.9349114 12.0023165,12.6950886 L6.43294937,9.84691139 C6.50586076,9.57497468 6.55826582,9.294 6.55826582,8.99829114 C6.55826582,8.67637975 6.49602532,8.3733038 6.40917722,8.07839241 L11.9539747,5.24335443 C12.5511266,6.03793671 13.493962,6.55727848 14.5645823,6.55727848 C16.3781772,6.55727848 17.8452532,5.09020253 17.8452532,3.27824051 C17.8452911,1.46791139 16.3781772,0 14.5646203,0 C12.7551266,0 11.2864177,1.46791139 11.2864177,3.27820253 C11.2864177,3.57474684 11.3388608,3.85651899 11.4125696,4.12929114 L5.844,6.97746835 C5.24274684,6.21649367 4.32201266,5.7184557 3.27843038,5.7184557 C1.46646835,5.7184557 0.000227848101,7.18716456 0.000227848101,8.99829114 C0.000227848101,10.8094177 1.46650633,12.2773291 3.27843038,12.2773291 C4.35068354,12.2773291 5.29272152,11.7563544 5.8923038,10.9609747 L11.4346329,13.7960127 C11.3477848,14.0900886 11.2847468,14.3956329 11.2847468,14.7183797 C11.2847468,16.5295063 12.7534557,17.9974177 14.5629494,17.9974177 C16.3765443,17.9974177 17.8436203,16.5295063 17.8436203,14.7183797 C17.8444557,12.9056203 16.3773797,11.4385063 14.5637848,11.4385063 L14.5637848,11.4385063 Z" id="Shape"></path>
                            </g>
                        </g>
                    </g>
                </g>
            </g>
        </g>
    </g>
</svg>