<?xml version="1.0" encoding="UTF-8" standalone="no"?>
<svg width="465px" height="623px" viewBox="0 0 465 623" version="1.1" xmlns="http://www.w3.org/2000/svg" xmlns:xlink="http://www.w3.org/1999/xlink">
    <!-- Generator: Sketch 41.1 (35376) - http://www.bohemiancoding.com/sketch -->
    <title>ic-sprite</title>
    <desc>Created with Sketch.</desc>
    <defs>
        <circle id="path-1" cx="4.5" cy="4.5" r="4.5"></circle>
        <rect id="path-3" x="0" y="0" width="1" height="3"></rect>
        <rect id="path-5" x="0" y="0" width="3" height="1"></rect>
        <rect id="path-7" x="0.8106602" y="0.8713203" width="2.12132034" height="6"></rect>
        <path d="M11.2515478,0 L1.99188419,0 C0.893397331,0 0,0.89547804 0,2.00010618 L0,14.9998938 C0,16.1099416 0.891796927,17 1.99188419,17 L13.0081158,17 C14.1066027,17 15,16.1028865 15,14.9962409 L15,14.1808162 L15,13.9645556 C14.8366985,13.987914 14.6697607,14 14.5,14" id="path-9"></path>
        <polygon id="path-11" points="0.0814209 0.963256836 4 5 0 5"></polygon>
        <rect id="path-13" x="0.259259259" y="0.17647059" width="6.74074074" height="1.05882353"></rect>
        <polygon id="path-15" points="0.14814815 0 1.11111111 0 1.11111111 7.41176471 0.14814815 7.41176471"></polygon>
        <rect id="path-17" x="0.259259259" y="0.17647059" width="6.74074074" height="1.05882353"></rect>
        <polygon id="path-19" points="0.14814815 0 1.11111111 0 1.11111111 7.41176471 0.14814815 7.41176471"></polygon>
        <circle id="path-21" cx="4" cy="4" r="4"></circle>
        <rect id="path-23" x="0.66421356" y="0.2248737" width="1" height="5.12132034"></rect>
        <polygon id="path-25" points="0.5555556 0.56561086 6 0.56561086 6 1.42081448 0.5555556 1.42081448"></polygon>
    </defs>
    <g id="Page-1" stroke="none" stroke-width="1" fill="none" fill-rule="evenodd">
        <g id="ic-sprite" transform="translate(0.000000, -1.000000)">
            <g id="Page-1">
                <g>
                    <g id="ic-sprite">
                        <g id="Page-1">
                            <g id="ic-sprite-(1)">
                                <g id="Group-10">
                                    <g id="Page-1">
                                        <g id="new-icons">
                                            <g id="Group-10">
                                                <g id="Group-7">
                                                    <g id="Group-6">
                                                        <g id="Group-5">
                                                            <g id="Group-9">
                                                                <g id="Group-3">
                                                                    <g id="Group-2">
                                                                        <g id="zoom-icon">
                                                                            <g id="Group-4">
                                                                                <g id="Oval-11-Clipped" transform="translate(9.000000, 6.000000)">
                                                                                    <g id="Group">
                                                                                        <g id="Oval-11-Clipped">
                                                                                            <mask id="mask-2" fill="white">
                                                                                                <use xlink:href="#path-1"></use>
                                                                                            </mask>
                                                                                            <g id="path-1"></g>
                                                                                            <g id="Oval-11" mask="url(#mask-2)" stroke-width="4" stroke="#404040">
                                                                                                <circle id="path-1" cx="4.5" cy="4.5" r="4.5"></circle>
                                                                                            </g>
                                                                                        </g>
                                                                                    </g>
                                                                                </g>
                                                                                <g id="Rectangle-111-Clipped" transform="translate(13.000000, 9.000000)">
                                                                                    <g id="Group">
                                                                                        <g id="Rectangle-111-Clipped">
                                                                                            <mask id="mask-4" fill="white">
                                                                                                <use xlink:href="#path-3"></use>
                                                                                            </mask>
                                                                                            <g id="path-3"></g>
                                                                                            <g id="Rectangle-111" mask="url(#mask-4)" stroke="#404040" stroke-width="2" fill="#D8D8D8">
                                                                                                <rect id="path-3" x="0" y="0" width="1" height="3"></rect>
                                                                                            </g>
                                                                                        </g>
                                                                                    </g>
                                                                                </g>
                                                                                <g id="Rectangle-110-Clipped" transform="translate(12.000000, 10.000000)">
                                                                                    <g id="Group">
                                                                                        <g id="Rectangle-110-Clipped">
                                                                                            <mask id="mask-6" fill="white">
                                                                                                <use xlink:href="#path-5"></use>
                                                                                            </mask>
                                                                                            <g id="path-5"></g>
                                                                                            <g id="Rectangle-110" mask="url(#mask-6)" stroke="#404040" stroke-width="2" fill="#D8D8D8">
                                                                                                <rect id="path-5" x="0" y="0" width="3" height="1"></rect>
                                                                                            </g>
                                                                                        </g>
                                                                                    </g>
                                                                                </g>
                                                                                <g id="Rectangle-106-Clipped" transform="translate(16.000000, 10.000000)">
                                                                                    <g id="Group">
                                                                                        <g id="Rectangle-106-Clipped">
                                                                                            <mask id="mask-8" fill="white">
                                                                                                <use xlink:href="#path-7"></use>
                                                                                            </mask>
                                                                                            <g id="path-7"></g>
                                                                                            <g id="Rectangle-106" mask="url(#mask-8)">
                                                                                                <g transform="translate(-3.000000, 0.000000)" id="path-7">
                                                                                                    <g>
                                                                                                        <g id="Group" transform="translate(4.346194, 3.871320) rotate(-45.000000) translate(-4.346194, -3.871320) translate(2.846194, 0.371320)" stroke="#404040" stroke-width="2">
                                                                                                            <rect id="Rectangle-path" x="0.8106602" y="0.8713203" width="2.12132034" height="6"></rect>
                                                                                                        </g>
                                                                                                    </g>
                                                                                                </g>
                                                                                            </g>
                                                                                        </g>
                                                                                    </g>
                                                                                </g>
                                                                                <g id="Combined-Shape-Clipped" transform="translate(0.000000, 1.000000)">
                                                                                    <g id="Group">
                                                                                        <g id="Combined-Shape-Clipped">
                                                                                            <mask id="mask-10" fill="white">
                                                                                                <use xlink:href="#path-9"></use>
                                                                                            </mask>
                                                                                            <g id="path-9"></g>
                                                                                            <g id="Combined-Shape" mask="url(#mask-10)" stroke="#404040" stroke-width="2">
                                                                                                <path d="M11.2515478,0 L1.99188419,0 C0.893397331,0 0,0.89547804 0,2.00010618 L0,14.9998938 C0,16.1099416 0.891796927,17 1.99188419,17 L13.0081158,17 C14.1066027,17 15,16.1028865 15,14.9962409 L15,14.1808162 L15,13.9645556 C14.8366985,13.987914 14.6697607,14 14.5,14" id="path-9"></path>
                                                                                            </g>
                                                                                        </g>
                                                                                    </g>
                                                                                </g>
                                                                                <g id="Rectangle-109-Clipped" transform="translate(11.000000, 0.000000)">
                                                                                    <g id="Group">
                                                                                        <g id="Rectangle-109-Clipped">
                                                                                            <mask id="mask-12" fill="white">
                                                                                                <use xlink:href="#path-11"></use>
                                                                                            </mask>
                                                                                            <g id="path-11"></g>
                                                                                            <g id="Rectangle-109" mask="url(#mask-12)" stroke-width="2" stroke="#404040" fill="#D8D8D8">
                                                                                                <polygon id="path-11" points="0.0814209 0.963256836 4 5 0 5"></polygon>
                                                                                            </g>
                                                                                        </g>
                                                                                    </g>
                                                                                </g>
                                                                                <polygon id="Line" fill="#404040" points="3 13 8 13 8 13 8 12 8 12 3 12 3 12"></polygon>
                                                                                <polygon id="Line" fill="#404040" points="3 9 6 9 6 9 6 8 6 8 3 8 3 8"></polygon>
                                                                                <polygon id="Line" fill="#404040" points="7 11 7 11 7 10 7 10 3 10 3 10 3 11 3 11"></polygon>
                                                                                <polygon id="Line" fill="#404040" points="3 7 8 7 8 7 8 6 8 6 3 6 3 6"></polygon>
                                                                                <path d="M52.9474566,22.16902 C52.0211465,22.16902 51.2040841,22.6103323 50.6702691,23.2861423 L45.7190103,20.754066 C45.7838297,20.5123098 45.8304187,20.2625187 45.8304187,19.9996286 C45.8304187,19.7134441 45.7750858,19.4440046 45.6978765,19.1818236 L50.6272925,16.6614282 C51.1581703,17.3678249 51.9963665,17.8295283 52.9481655,17.8295283 C54.5604812,17.8295283 55.8647358,16.5252737 55.8647358,14.9144097 C55.8647696,13.3049973 54.5604812,12 52.9481993,12 C51.3395297,12 50.0338234,13.3049973 50.0338234,14.9143759 C50.0338234,15.1780087 50.0804461,15.4285087 50.1459745,15.6710077 L45.1954246,18.203084 C44.6609007,17.526565 43.8423529,17.0838011 42.9145911,17.0838011 C41.3037271,17.0838011 40.0002152,18.3895074 40.0002152,19.9996286 C40.0002152,21.6097499 41.3037608,22.9147473 42.9145911,22.9147473 C43.8678418,22.9147473 44.705329,22.4515922 45.2383675,21.7444866 L50.1655891,24.2648819 C50.0883797,24.5263202 50.0323379,24.7979541 50.0323379,25.0848814 C50.0323379,26.6950027 51.3380442,28 52.9467138,28 C54.5590295,28 55.8632842,26.6950027 55.8632842,25.0848814 C55.8640269,23.4733084 54.5597723,22.16902 52.9474566,22.16902 L52.9474566,22.16902 L52.9474566,22.16902 Z" id="Shape" fill="#404040"></path>
                                                                                <path d="M59.7603273,96.6033091 L54.1815273,91.0245636 C55.0928182,89.8651455 55.6369636,88.4041455 55.6369636,86.8185091 C55.6369636,83.0587455 52.5782182,80 48.8184545,80 C45.0587455,80 42,83.0587455 42,86.8185091 C42,90.5781636 45.0587455,93.6369091 48.8184545,93.6369091 C50.4040909,93.6369091 51.8650909,93.0928182 53.0244545,92.1815818 L58.6032545,97.7603273 C58.7630182,97.9201455 58.9724182,98 59.1818182,98 C59.3912182,98 59.6006182,97.9201455 59.7603273,97.7603273 C60.0799091,97.4408545 60.0799091,96.9227818 59.7603273,96.6033091 L59.7603273,96.6033091 L59.7603273,96.6033091 Z M43.6363636,86.8185091 C43.6363636,83.9610364 45.9610364,81.6363636 48.8184545,81.6363636 C51.6759273,81.6363636 54.0006,83.9610364 54.0006,86.8184545 C54.0006,89.6758727 51.6759273,92.0004909 48.8184545,92.0004909 C45.9610364,92.0005455 43.6363636,89.6758727 43.6363636,86.8185091 L43.6363636,86.8185091 L43.6363636,86.8185091 Z" id="Shape" fill="#404040"></path>
                                                                                <path d="M51.546,86.0003273 L49.6366364,86.0003273 L49.6366364,84.0909091 C49.6366364,83.6390545 49.2703091,83.2727273 48.8184545,83.2727273 C48.3666,83.2727273 48.0002727,83.6390545 48.0002727,84.0909091 L48.0002727,86.0002727 L46.0909091,86.0002727 C45.6390545,86.0002727 45.2727273,86.3666 45.2727273,86.8184545 C45.2727273,87.2703091 45.6390545,87.6366364 46.0909091,87.6366364 L48.0002727,87.6366364 L48.0002727,89.5459455 C48.0002727,89.9978 48.3666,90.3641273 48.8184545,90.3641273 C49.2703091,90.3641273 49.6366364,89.9978 49.6366364,89.5459455 L49.6366364,87.6366364 L51.546,87.6366364 C51.9978545,87.6366364 52.3641818,87.2703091 52.3641818,86.8184545 C52.3641818,86.3666 51.9978545,86.0003273 51.546,86.0003273 L51.546,86.0003273 L51.546,86.0003273 Z" id="Shape" fill="#404040"></path>
                                                                                <path d="M54,140 L46,140 L46,158 L60,158 L60,145 L54,145 L54,140 L54,140 Z M51,150 L54,150 L54,155 L51,155 L51,150 L51,150 Z M50,150 L51,150 L51,151 L50,151 L50,150 L50,150 Z M54,154 L55,154 L55,155 L54,155 L54,154 L54,154 Z M51,147 L54,147 L54,149 L51,149 L51,147 L51,147 Z M55,140 L55,144 L60,144 L55,140 L55,140 Z" id="ic_metadata" fill="#FFFFFF"></path>
                                                                                <polygon id="Shape" fill="#FFFFFF" points="53.0149254 204.492537 49.2537313 200.731343 48 201.985075 53.0149254 207 63.761194 196.253731 62.5074627 195"></polygon>
                                                                            </g>
                                                                        </g>
                                                                    </g>
                                                                </g>
                                                                <polygon id="arrow-right-gray" fill="#404040" transform="translate(8.500000, 349.250000) rotate(90.000000) translate(-8.500000, -349.250000) " points="4 351.5 8.5 347 13 351.5"></polygon>
                                                                <polygon id="arrow-right-white" fill="#FFFFFF" transform="translate(8.500000, 388.250000) rotate(90.000000) translate(-8.500000, -388.250000) " points="4 390.5 8.5 386 13 390.5"></polygon>
                                                                <polygon id="Shape" fill="#D5D5CE" points="14.8333333 425 11 428.833333 7.16666667 425 6 426.166667 11 431.166667 16 426.166667"></polygon>
                                                                <polygon id="Shape" fill="#404040" points="14.8333333 462 11 465.833333 7.16666667 462 6 463.166667 11 468.166667 16 463.166667"></polygon>
                                                                <g id="add-light-gray" transform="translate(100.000000, 404.000000)">
                                                                    <g id="Rectangle-21-Clipped" transform="translate(0.000000, 3.000000)">
                                                                        <g id="Group">
                                                                            <g id="Rectangle-21-Clipped">
                                                                                <mask id="mask-14" fill="white">
                                                                                    <use xlink:href="#path-13"></use>
                                                                                </mask>
                                                                                <g id="path-13"></g>
                                                                                <g id="Rectangle-21" mask="url(#mask-14)" stroke="#979797" stroke-width="4" fill="#D8D8D8">
                                                                                    <rect id="path-13" x="0.259259259" y="0.17647059" width="6.74074074" height="1.05882353"></rect>
                                                                                </g>
                                                                            </g>
                                                                        </g>
                                                                    </g>
                                                                    <g id="Rectangle-22-Clipped" transform="translate(3.000000, 0.000000)">
                                                                        <g id="Group">
                                                                            <g id="Rectangle-22-Clipped">
                                                                                <mask id="mask-16" fill="white">
                                                                                    <use xlink:href="#path-15"></use>
                                                                                </mask>
                                                                                <g id="path-15"></g>
                                                                                <g id="Rectangle-22" mask="url(#mask-16)" stroke-width="2" stroke="#979797" fill="#D8D8D8">
                                                                                    <polygon id="path-15" points="0.14814815 0 1.11111111 0 1.11111111 7.41176471 0.14814815 7.41176471"></polygon>
                                                                                </g>
                                                                            </g>
                                                                        </g>
                                                                    </g>
                                                                </g>
                                                                <rect id="Rectangle-21" fill="#404040" x="100.259259" y="484.176471" width="6.74074074" height="1.05882353"></rect>
                                                                <rect id="Rectangle-22" fill="#404040" x="103.148148" y="481" width="0.962962963" height="7.41176471"></rect>
                                                                <path d="M298.264361,483.000287 C296.901516,483.007831 295.621004,483.594689 294.659357,484.652463 L290.21765,489.536331 L287.139872,492.9197 C285.643775,494.565127 285.617052,497.212739 287.079566,498.820842 C287.80035,499.613378 288.750081,500.007661 289.707395,500.007661 C290.693237,500.007661 291.687024,499.58876 292.445725,498.754532 L298.059971,492.582197 C298.060693,492.581403 299.996266,490.452751 299.996266,490.452751 C300.499659,489.899643 301,488 300,487 C298.923281,485.923281 297.329436,486.219866 296.282927,487.369361 L289.498671,494.82937 C289.295364,495.052916 289.295364,495.41464 289.498671,495.637789 C289.600144,495.748967 289.733034,495.804952 289.866285,495.804952 C289.999537,495.804952 290.132427,495.748967 290.2339,495.637789 L297.018156,488.17778 C297.658412,487.473392 300,487 299.261398,489.643538 L297.257213,491.847632 C297.256491,491.848426 291.710497,497.946113 291.710497,497.946113 C290.619931,499.145242 288.872138,499.174624 287.814433,498.012423 C286.757091,496.849427 286.783813,494.927248 287.87474,493.727722 L288.220687,493.347336 C288.221048,493.346542 295.394585,485.460485 295.394585,485.460485 C296.161231,484.617125 297.182463,484.148988 298.269417,484.143429 C299.352038,484.151371 300.368936,484.59211 301.125832,485.424353 C302.696679,487.151971 302.681874,489.979453 301.092248,491.726925 L295.193445,498.212145 C294.990137,498.435294 294.990137,498.797018 295.193445,499.020167 C295.294918,499.131742 295.428169,499.187727 295.561059,499.187727 C295.69431,499.187727 295.8272,499.131742 295.928674,499.020167 L301.827477,492.53455 C303.822273,490.341574 303.837079,486.789056 301.8607,484.615934 C300.906274,483.566101 299.621429,482.985198 298.264361,483.000287 L298.264361,483.000287 Z" id="ic_clip-light" stroke="#979797" stroke-width="0.5" fill="#9B9B9B"></path>
                                                                <path d="M299.264361,402.000287 C297.901516,402.007831 296.621004,402.594689 295.659357,403.652463 L291.21765,408.536331 L288.139872,411.9197 C286.643775,413.565127 286.617052,416.212739 288.079566,417.820842 C288.80035,418.613378 289.750081,419.007661 290.707395,419.007661 C291.693237,419.007661 292.687024,418.58876 293.445725,417.754532 L299.059971,411.582197 C299.060693,411.581403 300.996266,409.452751 300.996266,409.452751 C301.499659,408.899643 302,407 301,406 C299.923281,404.923281 298.329436,405.219866 297.282927,406.369361 L290.498671,413.82937 C290.295364,414.052916 290.295364,414.41464 290.498671,414.637789 C290.600144,414.748967 290.733034,414.804952 290.866285,414.804952 C290.999537,414.804952 291.132427,414.748967 291.2339,414.637789 L298.018156,407.17778 C298.658412,406.473392 301,406 300.261398,408.643538 L298.257213,410.847632 C298.256491,410.848426 292.710497,416.946113 292.710497,416.946113 C291.619931,418.145242 289.872138,418.174624 288.814433,417.012423 C287.757091,415.849427 287.783813,413.927248 288.87474,412.727722 L289.220687,412.347336 C289.221048,412.346542 296.394585,404.460485 296.394585,404.460485 C297.161231,403.617125 298.182463,403.148988 299.269417,403.143429 C300.352038,403.151371 301.368936,403.59211 302.125832,404.424353 C303.696679,406.151971 303.681874,408.979453 302.092248,410.726925 L296.193445,417.212145 C295.990137,417.435294 295.990137,417.797018 296.193445,418.020167 C296.294918,418.131742 296.428169,418.187727 296.561059,418.187727 C296.69431,418.187727 296.8272,418.131742 296.928674,418.020167 L302.827477,411.53455 C304.822273,409.341574 304.837079,405.789056 302.8607,403.615934 C301.906274,402.566101 300.621429,401.985198 299.264361,402.000287 L299.264361,402.000287 Z" id="ic_clip-white" stroke="#FFFFFF" stroke-width="0.5" fill="#FFFFFF"></path>
                                                                <path d="M93.2643615,404.000287 C91.9015158,404.007831 90.6210042,404.594689 89.6593566,405.652463 L85.2176497,410.536331 L82.1398718,413.9197 C80.643775,415.565127 80.6170525,418.212739 82.0795657,419.820842 C82.80035,420.613378 83.7500809,421.007661 84.7073951,421.007661 C85.6932373,421.007661 86.6870241,420.58876 87.4457254,419.754532 L93.0599707,413.582197 C93.0606929,413.581403 94.996266,411.452751 94.996266,411.452751 C95.4996595,410.899643 96,409 95,408 C93.9232805,406.923281 92.3294363,407.219866 91.2829268,408.369361 L84.498671,415.82937 C84.2953636,416.052916 84.2953636,416.41464 84.498671,416.637789 C84.6001441,416.748967 84.7330342,416.804952 84.8662854,416.804952 C84.9995366,416.804952 85.1324267,416.748967 85.2338999,416.637789 L92.0181557,409.17778 C92.6584115,408.473392 95,408 94.2613983,410.643538 L92.2572134,412.847632 C92.2564912,412.848426 86.7104966,418.946113 86.7104966,418.946113 C85.6199311,420.145242 83.8721375,420.174624 82.8144335,419.012423 C81.7570906,417.849427 81.7838131,415.927248 82.8747396,414.727722 L83.2206872,414.347336 C83.2210483,414.346542 90.3945855,406.460485 90.3945855,406.460485 C91.1612313,405.617125 92.1824628,405.148988 93.2694171,405.143429 C94.352038,405.151371 95.3689361,405.59211 96.1258318,406.424353 C97.6966794,408.151971 97.6818737,410.979453 96.0922482,412.726925 L90.1934448,419.212145 C89.9901374,419.435294 89.9901374,419.797018 90.1934448,420.020167 C90.2949179,420.131742 90.4281691,420.187727 90.5610592,420.187727 C90.6943104,420.187727 90.8272005,420.131742 90.9286736,420.020167 L96.827477,413.53455 C98.8222729,411.341574 98.8370786,407.789056 96.8606996,405.615934 C95.9062743,404.566101 94.6214293,403.985198 93.2643615,404.000287 L93.2643615,404.000287 Z" id="ic_clip-light" stroke="#979797" stroke-width="0.5" fill="#9B9B9B"></path>
                                                                <path d="M370.264361,482.000287 C368.901516,482.007831 367.621004,482.594689 366.659357,483.652463 L362.21765,488.536331 L359.139872,491.9197 C357.643775,493.565127 357.617052,496.212739 359.079566,497.820842 C359.80035,498.613378 360.750081,499.007661 361.707395,499.007661 C362.693237,499.007661 363.687024,498.58876 364.445725,497.754532 L370.059971,491.582197 C370.060693,491.581403 371.996266,489.452751 371.996266,489.452751 C372.499659,488.899643 373,487 372,486 C370.923281,484.923281 369.329436,485.219866 368.282927,486.369361 L361.498671,493.82937 C361.295364,494.052916 361.295364,494.41464 361.498671,494.637789 C361.600144,494.748967 361.733034,494.804952 361.866285,494.804952 C361.999537,494.804952 362.132427,494.748967 362.2339,494.637789 L369.018156,487.17778 C369.658412,486.473392 372,486 371.261398,488.643538 L369.257213,490.847632 C369.256491,490.848426 363.710497,496.946113 363.710497,496.946113 C362.619931,498.145242 360.872138,498.174624 359.814433,497.012423 C358.757091,495.849427 358.783813,493.927248 359.87474,492.727722 L360.220687,492.347336 C360.221048,492.346542 367.394585,484.460485 367.394585,484.460485 C368.161231,483.617125 369.182463,483.148988 370.269417,483.143429 C371.352038,483.151371 372.368936,483.59211 373.125832,484.424353 C374.696679,486.151971 374.681874,488.979453 373.092248,490.726925 L367.193445,497.212145 C366.990137,497.435294 366.990137,497.797018 367.193445,498.020167 C367.294918,498.131742 367.428169,498.187727 367.561059,498.187727 C367.69431,498.187727 367.8272,498.131742 367.928674,498.020167 L373.827477,491.53455 C375.822273,489.341574 375.837079,485.789056 373.8607,483.615934 C372.906274,482.566101 371.621429,481.985198 370.264361,482.000287 L370.264361,482.000287 Z" id="ic_clip-add-blue" stroke="#4990E2" stroke-width="0.5" fill="#4990E2"></path>
                                                                <g id="add-blue" transform="translate(377.000000, 482.000000)">
                                                                    <g id="Rectangle-21-Clipped" transform="translate(0.000000, 3.000000)">
                                                                        <g id="Group">
                                                                            <g id="Rectangle-21-Clipped">
                                                                                <mask id="mask-18" fill="white">
                                                                                    <use xlink:href="#path-17"></use>
                                                                                </mask>
                                                                                <g id="path-17"></g>
                                                                                <g id="Rectangle-21" mask="url(#mask-18)" stroke="#4990E2" stroke-width="4" fill="#4990E2">
                                                                                    <rect id="path-17" x="0.259259259" y="0.17647059" width="6.74074074" height="1.05882353"></rect>
                                                                                </g>
                                                                            </g>
                                                                        </g>
                                                                    </g>
                                                                    <g id="Rectangle-22-Clipped" transform="translate(3.000000, 0.000000)">
                                                                        <g id="Group">
                                                                            <g id="Rectangle-22-Clipped">
                                                                                <mask id="mask-20" fill="white">
                                                                                    <use xlink:href="#path-19"></use>
                                                                                </mask>
                                                                                <g id="path-19"></g>
                                                                                <g id="Rectangle-22" mask="url(#mask-20)" stroke-width="2" stroke="#4990E2" fill="#4990E2">
                                                                                    <polygon id="path-19" points="0.14814815 0 1.11111111 0 1.11111111 7.41176471 0.14814815 7.41176471"></polygon>
                                                                                </g>
                                                                            </g>
                                                                        </g>
                                                                    </g>
                                                                </g>
                                                                <path d="M93.2643615,481.000287 C91.9015158,481.007831 90.6210042,481.594689 89.6593566,482.652463 L85.2176497,487.536331 L82.1398718,490.9197 C80.643775,492.565127 80.6170525,495.212739 82.0795657,496.820842 C82.80035,497.613378 83.7500809,498.007661 84.7073951,498.007661 C85.6932373,498.007661 86.6870241,497.58876 87.4457254,496.754532 L93.0599707,490.582197 C93.0606929,490.581403 94.996266,488.452751 94.996266,488.452751 C95.4996595,487.899643 96,486 95,485 C93.9232805,483.923281 92.3294363,484.219866 91.2829268,485.369361 L84.498671,492.82937 C84.2953636,493.052916 84.2953636,493.41464 84.498671,493.637789 C84.6001441,493.748967 84.7330342,493.804952 84.8662854,493.804952 C84.9995366,493.804952 85.1324267,493.748967 85.2338999,493.637789 L92.0181557,486.17778 C92.6584115,485.473392 95,485 94.2613983,487.643538 L92.2572134,489.847632 C92.2564912,489.848426 86.7104966,495.946113 86.7104966,495.946113 C85.6199311,497.145242 83.8721375,497.174624 82.8144335,496.012423 C81.7570906,494.849427 81.7838131,492.927248 82.8747396,491.727722 L83.2206872,491.347336 C83.2210483,491.346542 90.3945855,483.460485 90.3945855,483.460485 C91.1612313,482.617125 92.1824628,482.148988 93.2694171,482.143429 C94.352038,482.151371 95.3689361,482.59211 96.1258318,483.424353 C97.6966794,485.151971 97.6818737,487.979453 96.0922482,489.726925 L90.1934448,496.212145 C89.9901374,496.435294 89.9901374,496.797018 90.1934448,497.020167 C90.2949179,497.131742 90.4281691,497.187727 90.5610592,497.187727 C90.6943104,497.187727 90.8272005,497.131742 90.9286736,497.020167 L96.827477,490.53455 C98.8222729,488.341574 98.8370786,484.789056 96.8606996,482.615934 C95.9062743,481.566101 94.6214293,480.985198 93.2643615,481.000287 L93.2643615,481.000287 Z" id="ic_clip-add-dark" stroke="#404040" stroke-width="0.5" fill="#404040"></path>
                                                                <path d="M198.264361,483.000287 C196.901516,483.007831 195.621004,483.594689 194.659357,484.652463 L190.21765,489.536331 L187.139872,492.9197 C185.643775,494.565127 185.617052,497.212739 187.079566,498.820842 C187.80035,499.613378 188.750081,500.007661 189.707395,500.007661 C190.693237,500.007661 191.687024,499.58876 192.445725,498.754532 L198.059971,492.582197 C198.060693,492.581403 199.996266,490.452751 199.996266,490.452751 C200.499659,489.899643 201,488 200,487 C198.923281,485.923281 197.329436,486.219866 196.282927,487.369361 L189.498671,494.82937 C189.295364,495.052916 189.295364,495.41464 189.498671,495.637789 C189.600144,495.748967 189.733034,495.804952 189.866285,495.804952 C189.999537,495.804952 190.132427,495.748967 190.2339,495.637789 L197.018156,488.17778 C197.658412,487.473392 200,487 199.261398,489.643538 L197.257213,491.847632 C197.256491,491.848426 191.710497,497.946113 191.710497,497.946113 C190.619931,499.145242 188.872138,499.174624 187.814433,498.012423 C186.757091,496.849427 186.783813,494.927248 187.87474,493.727722 L188.220687,493.347336 C188.221048,493.346542 195.394585,485.460485 195.394585,485.460485 C196.161231,484.617125 197.182463,484.148988 198.269417,484.143429 C199.352038,484.151371 200.368936,484.59211 201.125832,485.424353 C202.696679,487.151971 202.681874,489.979453 201.092248,491.726925 L195.193445,498.212145 C194.990137,498.435294 194.990137,498.797018 195.193445,499.020167 C195.294918,499.131742 195.428169,499.187727 195.561059,499.187727 C195.69431,499.187727 195.8272,499.131742 195.928674,499.020167 L201.827477,492.53455 C203.822273,490.341574 203.837079,486.789056 201.8607,484.615934 C200.906274,483.566101 199.621429,482.985198 198.264361,483.000287 L198.264361,483.000287 Z" id="ic_clip-dark" stroke="#404040" stroke-width="0.5" fill="#404040"></path>
                                                                <path d="M198.264361,606.000287 C196.901516,606.007831 195.621004,606.594689 194.659357,607.652463 L190.21765,612.536331 L187.139872,615.9197 C185.643775,617.565127 185.617052,620.212739 187.079566,621.820842 C187.80035,622.613378 188.750081,623.007661 189.707395,623.007661 C190.693237,623.007661 191.687024,622.58876 192.445725,621.754532 L198.059971,615.582197 C198.060693,615.581403 199.996266,613.452751 199.996266,613.452751 C200.499659,612.899643 201,611 200,610 C198.923281,608.923281 197.329436,609.219866 196.282927,610.369361 L189.498671,617.82937 C189.295364,618.052916 189.295364,618.41464 189.498671,618.637789 C189.600144,618.748967 189.733034,618.804952 189.866285,618.804952 C189.999537,618.804952 190.132427,618.748967 190.2339,618.637789 L197.018156,611.17778 C197.658412,610.473392 200,610 199.261398,612.643538 L197.257213,614.847632 C197.256491,614.848426 191.710497,620.946113 191.710497,620.946113 C190.619931,622.145242 188.872138,622.174624 187.814433,621.012423 C186.757091,619.849427 186.783813,617.927248 187.87474,616.727722 L188.220687,616.347336 C188.221048,616.346542 195.394585,608.460485 195.394585,608.460485 C196.161231,607.617125 197.182463,607.148988 198.269417,607.143429 C199.352038,607.151371 200.368936,607.59211 201.125832,608.424353 C202.696679,610.151971 202.681874,612.979453 201.092248,614.726925 L195.193445,621.212145 C194.990137,621.435294 194.990137,621.797018 195.193445,622.020167 C195.294918,622.131742 195.428169,622.187727 195.561059,622.187727 C195.69431,622.187727 195.8272,622.131742 195.928674,622.020167 L201.827477,615.53455 C203.822273,613.341574 203.837079,609.789056 201.8607,607.615934 C200.906274,606.566101 199.621429,605.985198 198.264361,606.000287 L198.264361,606.000287 Z" id="ic_clip-dark-copy" stroke="#F37356" stroke-width="0.5" fill="#F37356"></path>
                                                                <path d="M298.264361,606.000287 C296.901516,606.007831 295.621004,606.594689 294.659357,607.652463 L290.21765,612.536331 L287.139872,615.9197 C285.643775,617.565127 285.617052,620.212739 287.079566,621.820842 C287.80035,622.613378 288.750081,623.007661 289.707395,623.007661 C290.693237,623.007661 291.687024,622.58876 292.445725,621.754532 L298.059971,615.582197 C298.060693,615.581403 299.996266,613.452751 299.996266,613.452751 C300.499659,612.899643 301,611 300,610 C298.923281,608.923281 297.329436,609.219866 296.282927,610.369361 L289.498671,617.82937 C289.295364,618.052916 289.295364,618.41464 289.498671,618.637789 C289.600144,618.748967 289.733034,618.804952 289.866285,618.804952 C289.999537,618.804952 290.132427,618.748967 290.2339,618.637789 L297.018156,611.17778 C297.658412,610.473392 300,610 299.261398,612.643538 L297.257213,614.847632 C297.256491,614.848426 291.710497,620.946113 291.710497,620.946113 C290.619931,622.145242 288.872138,622.174624 287.814433,621.012423 C286.757091,619.849427 286.783813,617.927248 287.87474,616.727722 L288.220687,616.347336 C288.221048,616.346542 295.394585,608.460485 295.394585,608.460485 C296.161231,607.617125 297.182463,607.148988 298.269417,607.143429 C299.352038,607.151371 300.368936,607.59211 301.125832,608.424353 C302.696679,610.151971 302.681874,612.979453 301.092248,614.726925 L295.193445,621.212145 C294.990137,621.435294 294.990137,621.797018 295.193445,622.020167 C295.294918,622.131742 295.428169,622.187727 295.561059,622.187727 C295.69431,622.187727 295.8272,622.131742 295.928674,622.020167 L301.827477,615.53455 C303.822273,613.341574 303.837079,609.789056 301.8607,607.615934 C300.906274,606.566101 299.621429,605.985198 298.264361,606.000287 L298.264361,606.000287 Z" id="ic_clip-dark-copy-2" stroke="#4A90E3" stroke-width="0.5" fill="#4A90E3"></path>
                                                                <path d="M368.264361,606.000287 C366.901516,606.007831 365.621004,606.594689 364.659357,607.652463 L360.21765,612.536331 L357.139872,615.9197 C355.643775,617.565127 355.617052,620.212739 357.079566,621.820842 C357.80035,622.613378 358.750081,623.007661 359.707395,623.007661 C360.693237,623.007661 361.687024,622.58876 362.445725,621.754532 L368.059971,615.582197 C368.060693,615.581403 369.996266,613.452751 369.996266,613.452751 C370.499659,612.899643 371,611 370,610 C368.923281,608.923281 367.329436,609.219866 366.282927,610.369361 L359.498671,617.82937 C359.295364,618.052916 359.295364,618.41464 359.498671,618.637789 C359.600144,618.748967 359.733034,618.804952 359.866285,618.804952 C359.999537,618.804952 360.132427,618.748967 360.2339,618.637789 L367.018156,611.17778 C367.658412,610.473392 370,610 369.261398,612.643538 L367.257213,614.847632 C367.256491,614.848426 361.710497,620.946113 361.710497,620.946113 C360.619931,622.145242 358.872138,622.174624 357.814433,621.012423 C356.757091,619.849427 356.783813,617.927248 357.87474,616.727722 L358.220687,616.347336 C358.221048,616.346542 365.394585,608.460485 365.394585,608.460485 C366.161231,607.617125 367.182463,607.148988 368.269417,607.143429 C369.352038,607.151371 370.368936,607.59211 371.125832,608.424353 C372.696679,610.151971 372.681874,612.979453 371.092248,614.726925 L365.193445,621.212145 C364.990137,621.435294 364.990137,621.797018 365.193445,622.020167 C365.294918,622.131742 365.428169,622.187727 365.561059,622.187727 C365.69431,622.187727 365.8272,622.131742 365.928674,622.020167 L371.827477,615.53455 C373.822273,613.341574 373.837079,609.789056 371.8607,607.615934 C370.906274,606.566101 369.621429,605.985198 368.264361,606.000287 L368.264361,606.000287 Z" id="ic_clip-dark-copy-4" stroke="#404040" stroke-width="0.5" fill="#404040"></path>
                                                                <path d="M92.2643611,606.000287 C90.9015161,606.007831 89.6210041,606.594689 88.6593571,607.652463 L84.2176501,612.536331 L81.1398721,615.9197 C79.6437751,617.565127 79.6170521,620.212739 81.0795661,621.820842 C81.8003501,622.613378 82.7500811,623.007661 83.7073951,623.007661 C84.6932371,623.007661 85.6870241,622.58876 86.4457251,621.754532 L92.0599711,615.582197 C92.0606931,615.581403 93.9962661,613.452751 93.9962661,613.452751 C94.4996591,612.899643 95.0000001,611 94.0000001,610 C92.9232811,608.923281 91.3294361,609.219866 90.2829271,610.369361 L83.4986711,617.82937 C83.2953641,618.052916 83.2953641,618.41464 83.4986711,618.637789 C83.6001441,618.748967 83.7330341,618.804952 83.8662851,618.804952 C83.9995371,618.804952 84.1324271,618.748967 84.2339001,618.637789 L91.0181561,611.17778 C91.6584121,610.473392 94.0000001,610 93.2613981,612.643538 L91.2572131,614.847632 C91.2564911,614.848426 85.7104971,620.946113 85.7104971,620.946113 C84.6199311,622.145242 82.8721381,622.174624 81.8144331,621.012423 C80.7570911,619.849427 80.7838131,617.927248 81.8747401,616.727722 L82.2206871,616.347336 C82.2210481,616.346542 89.3945851,608.460485 89.3945851,608.460485 C90.1612311,607.617125 91.1824631,607.148988 92.2694171,607.143429 C93.3520381,607.151371 94.3689361,607.59211 95.1258321,608.424353 C96.6966791,610.151971 96.6818741,612.979453 95.0922481,614.726925 L89.1934451,621.212145 C88.9901371,621.435294 88.9901371,621.797018 89.1934451,622.020167 C89.2949181,622.131742 89.4281691,622.187727 89.5610591,622.187727 C89.6943101,622.187727 89.8272001,622.131742 89.9286741,622.020167 L95.8274771,615.53455 C97.8222731,613.341574 97.8370791,609.789056 95.8607001,607.615934 C94.9062741,606.566101 93.6214291,605.985198 92.2643611,606.000287 L92.2643611,606.000287 Z" id="ic_clip-dark-copy-3" stroke="#268F55" stroke-width="0.5" fill="#268F55"></path>
                                                                <g id="clip-check-blue" transform="translate(186.000000, 405.000000)" fill="#4990E2">
                                                                    <path d="M12.264361,0.000287 C10.901516,0.007831 9.621004,0.594689 8.659357,1.652463 L4.21765,6.536331 L1.139872,9.9197 C-0.356225,11.565127 -0.382948,14.212739 1.079566,15.820842 C1.80035,16.613378 2.750081,17.007661 3.707395,17.007661 C4.693237,17.007661 5.687024,16.58876 6.445725,15.754532 L12.059971,9.582197 C12.060693,9.581403 13.996266,7.452751 13.996266,7.452751 C14.499659,6.899643 15,5 14,4 C12.923281,2.923281 11.329436,3.219866 10.282927,4.369361 L3.498671,11.82937 C3.295364,12.052916 3.295364,12.41464 3.498671,12.637789 C3.600144,12.748967 3.733034,12.804952 3.866285,12.804952 C3.999537,12.804952 4.132427,12.748967 4.2339,12.637789 L11.018156,5.17778 C11.658412,4.473392 14,4 13.261398,6.643538 L11.257213,8.847632 C11.256491,8.848426 5.710497,14.946113 5.710497,14.946113 C4.619931,16.145242 2.872138,16.174624 1.814433,15.012423 C0.757091,13.849427 0.783813,11.927248 1.87474,10.727722 L2.220687,10.347336 C2.221048,10.346542 9.394585,2.460485 9.394585,2.460485 C10.161231,1.617125 11.182463,1.148988 12.269417,1.143429 C13.352038,1.151371 14.368936,1.59211 15.125832,2.424353 C16.696679,4.151971 16.681874,6.979453 15.092248,8.726925 L9.193445,15.212145 C8.990137,15.435294 8.990137,15.797018 9.193445,16.020167 C9.294918,16.131742 9.428169,16.187727 9.561059,16.187727 C9.69431,16.187727 9.8272,16.131742 9.928674,16.020167 L15.827477,9.53455 C17.822273,7.341574 17.837079,3.789056 15.8607,1.615934 C14.906274,0.566101 13.621429,-0.014802 12.264361,0.000287 L12.264361,0.000287 Z" id="ic_clip-added-dark" stroke="#4990E2" stroke-width="0.5"></path>
                                                                    <rect id="Rectangle-29" transform="translate(23.828427, 3.828427) rotate(-45.000000) translate(-23.828427, -3.828427) " x="20.328427" y="3.328427" width="7" height="1"></rect>
                                                                    <rect id="Rectangle-28" transform="translate(20.767767, 4.767767) rotate(-45.000000) translate(-20.767767, -4.767767) " x="20.267767" y="2.767767" width="1" height="4"></rect>
                                                                </g>
                                                                <g id="clip-check-green" transform="translate(80.000000, 545.000000)" fill="#268F55">
                                                                    <path d="M10.9016542,0.000255111111 C9.69023644,0.00696088889 8.55200356,0.528612444 7.69720622,1.468856 L3.74902222,5.810072 L1.01321956,8.81751111 C-0.316644444,10.2801129 -0.340398222,12.6335458 0.959614222,14.0629707 C1.60031111,14.7674471 2.44451644,15.1179209 3.29546222,15.1179209 C4.17176622,15.1179209 5.05513244,14.7455644 5.72953333,14.0040284 L10.7199742,8.51750844 C10.720616,8.51680267 12.4411253,6.62466756 12.4411253,6.62466756 C12.8885858,6.133016 13.3333333,4.44444444 12.4444444,3.55555556 C11.4873609,2.598472 10.0706098,2.86210311 9.14037956,3.88387644 L3.10992978,10.5149956 C2.92921244,10.7137031 2.92921244,11.0352356 3.10992978,11.2335902 C3.200128,11.3324151 3.31825244,11.3821796 3.43669778,11.3821796 C3.555144,11.3821796 3.67326844,11.3324151 3.76346667,11.2335902 L9.79391644,4.60247111 C10.3630329,3.97634844 12.4444444,3.55555556 11.7879093,5.90536711 L10.0064116,7.86456178 C10.0057698,7.86526756 5.07599733,13.2854338 5.07599733,13.2854338 C4.10660533,14.3513262 2.55301156,14.3774436 1.61282933,13.344376 C0.672969778,12.3106018 0.696722667,10.6019982 1.66643556,9.53575289 L1.973944,9.197632 C1.97426489,9.19692622 8.35074222,2.18709778 8.35074222,2.18709778 C9.03220533,1.43744444 9.93996711,1.02132267 10.9061484,1.01638133 C11.8684782,1.02344089 12.7723876,1.41520889 13.445184,2.15498044 C14.8414924,3.69064089 14.8283324,6.20395822 13.4153316,7.75726667 L8.17195111,13.5219067 C7.99123289,13.7202613 7.99123289,14.0417938 8.17195111,14.2401484 C8.26214933,14.3393262 8.38059467,14.3890907 8.49871911,14.3890907 C8.61716444,14.3890907 8.73528889,14.3393262 8.825488,14.2401484 L14.0688684,8.47515556 C15.8420204,6.52584356 15.8551813,3.36804978 14.0984,1.43638578 C13.2500213,0.503200889 12.1079369,-0.0131573333 10.9016542,0.000255111111 L10.9016542,0.000255111111 Z" id="ic_clip-added-dark" stroke="#268F55" stroke-width="0.5"></path>
                                                                    <rect id="Rectangle-29" transform="translate(21.220108, 3.442330) rotate(-45.000000) translate(-21.220108, -3.442330) " x="18.1089968" y="2.94232986" width="6.22222222" height="0.888888889"></rect>
                                                                    <rect id="Rectangle-28" transform="translate(18.499521, 4.198731) rotate(-45.000000) translate(-18.499521, -4.198731) " x="17.999521" y="2.42095334" width="0.888888889" height="3.55555556"></rect>
                                                                </g>
                                                                <g id="clip-check-orange" transform="translate(181.000000, 545.000000)" fill="#F37356">
                                                                    <path d="M10.9016542,0.000255111111 C9.69023644,0.00696088889 8.55200356,0.528612444 7.69720622,1.468856 L3.74902222,5.810072 L1.01321956,8.81751111 C-0.316644444,10.2801129 -0.340398222,12.6335458 0.959614222,14.0629707 C1.60031111,14.7674471 2.44451644,15.1179209 3.29546222,15.1179209 C4.17176622,15.1179209 5.05513244,14.7455644 5.72953333,14.0040284 L10.7199742,8.51750844 C10.720616,8.51680267 12.4411253,6.62466756 12.4411253,6.62466756 C12.8885858,6.133016 13.3333333,4.44444444 12.4444444,3.55555556 C11.4873609,2.598472 10.0706098,2.86210311 9.14037956,3.88387644 L3.10992978,10.5149956 C2.92921244,10.7137031 2.92921244,11.0352356 3.10992978,11.2335902 C3.200128,11.3324151 3.31825244,11.3821796 3.43669778,11.3821796 C3.555144,11.3821796 3.67326844,11.3324151 3.76346667,11.2335902 L9.79391644,4.60247111 C10.3630329,3.97634844 12.4444444,3.55555556 11.7879093,5.90536711 L10.0064116,7.86456178 C10.0057698,7.86526756 5.07599733,13.2854338 5.07599733,13.2854338 C4.10660533,14.3513262 2.55301156,14.3774436 1.61282933,13.344376 C0.672969778,12.3106018 0.696722667,10.6019982 1.66643556,9.53575289 L1.973944,9.197632 C1.97426489,9.19692622 8.35074222,2.18709778 8.35074222,2.18709778 C9.03220533,1.43744444 9.93996711,1.02132267 10.9061484,1.01638133 C11.8684782,1.02344089 12.7723876,1.41520889 13.445184,2.15498044 C14.8414924,3.69064089 14.8283324,6.20395822 13.4153316,7.75726667 L8.17195111,13.5219067 C7.99123289,13.7202613 7.99123289,14.0417938 8.17195111,14.2401484 C8.26214933,14.3393262 8.38059467,14.3890907 8.49871911,14.3890907 C8.61716444,14.3890907 8.73528889,14.3393262 8.825488,14.2401484 L14.0688684,8.47515556 C15.8420204,6.52584356 15.8551813,3.36804978 14.0984,1.43638578 C13.2500213,0.503200889 12.1079369,-0.0131573333 10.9016542,0.000255111111 L10.9016542,0.000255111111 Z" id="ic_clip-added-dark" stroke="#F37356" stroke-width="0.5"></path>
                                                                    <rect id="Rectangle-29" transform="translate(21.220108, 3.442330) rotate(-45.000000) translate(-21.220108, -3.442330) " x="18.1089968" y="2.94232986" width="6.22222222" height="0.888888889"></rect>
                                                                    <rect id="Rectangle-28" transform="translate(18.499521, 4.198731) rotate(-45.000000) translate(-18.499521, -4.198731) " x="17.999521" y="2.42095334" width="0.888888889" height="3.55555556"></rect>
                                                                </g>
                                                                <g id="clip-check-country" transform="translate(283.000000, 545.000000)" fill="#0096E0">
                                                                    <path d="M10.9016542,0.000255111111 C9.69023644,0.00696088889 8.55200356,0.528612444 7.69720622,1.468856 L3.74902222,5.810072 L1.01321956,8.81751111 C-0.316644444,10.2801129 -0.340398222,12.6335458 0.959614222,14.0629707 C1.60031111,14.7674471 2.44451644,15.1179209 3.29546222,15.1179209 C4.17176622,15.1179209 5.05513244,14.7455644 5.72953333,14.0040284 L10.7199742,8.51750844 C10.720616,8.51680267 12.4411253,6.62466756 12.4411253,6.62466756 C12.8885858,6.133016 13.3333333,4.44444444 12.4444444,3.55555556 C11.4873609,2.598472 10.0706098,2.86210311 9.14037956,3.88387644 L3.10992978,10.5149956 C2.92921244,10.7137031 2.92921244,11.0352356 3.10992978,11.2335902 C3.200128,11.3324151 3.31825244,11.3821796 3.43669778,11.3821796 C3.555144,11.3821796 3.67326844,11.3324151 3.76346667,11.2335902 L9.79391644,4.60247111 C10.3630329,3.97634844 12.4444444,3.55555556 11.7879093,5.90536711 L10.0064116,7.86456178 C10.0057698,7.86526756 5.07599733,13.2854338 5.07599733,13.2854338 C4.10660533,14.3513262 2.55301156,14.3774436 1.61282933,13.344376 C0.672969778,12.3106018 0.696722667,10.6019982 1.66643556,9.53575289 L1.973944,9.197632 C1.97426489,9.19692622 8.35074222,2.18709778 8.35074222,2.18709778 C9.03220533,1.43744444 9.93996711,1.02132267 10.9061484,1.01638133 C11.8684782,1.02344089 12.7723876,1.41520889 13.445184,2.15498044 C14.8414924,3.69064089 14.8283324,6.20395822 13.4153316,7.75726667 L8.17195111,13.5219067 C7.99123289,13.7202613 7.99123289,14.0417938 8.17195111,14.2401484 C8.26214933,14.3393262 8.38059467,14.3890907 8.49871911,14.3890907 C8.61716444,14.3890907 8.73528889,14.3393262 8.825488,14.2401484 L14.0688684,8.47515556 C15.8420204,6.52584356 15.8551813,3.36804978 14.0984,1.43638578 C13.2500213,0.503200889 12.1079369,-0.0131573333 10.9016542,0.000255111111 L10.9016542,0.000255111111 Z" id="ic_clip-added-dark" stroke="#0096E0" stroke-width="0.5"></path>
                                                                    <rect id="Rectangle-29" transform="translate(21.220108, 3.442330) rotate(-45.000000) translate(-21.220108, -3.442330) " x="18.1089968" y="2.94232986" width="6.22222222" height="0.888888889"></rect>
                                                                    <rect id="Rectangle-28" transform="translate(18.499521, 4.198731) rotate(-45.000000) translate(-18.499521, -4.198731) " x="17.999521" y="2.42095334" width="0.888888889" height="3.55555556"></rect>
                                                                </g>
                                                                <g id="ic_zoom-light-grey" transform="translate(358.000000, 401.000000)" stroke="#808080">
                                                                    <path d="M9.5,9.5 L14.5,14.5" id="Line" stroke-width="4"></path>
                                                                    <path d="M5.5,11 C8.53756612,11 11,8.53756612 11,5.5 C11,2.46243388 8.53756612,0 5.5,0 C2.46243388,0 0,2.46243388 0,5.5 C0,8.53756612 2.46243388,11 5.5,11 L5.5,11 Z" id="Oval-10" stroke-width="3"></path>
                                                                </g>
                                                                <g id="remove-icon" transform="translate(360.000000, 543.000000)" fill="#F47A5E">
                                                                    <rect id="Rectangle-2" transform="translate(8.826087, 9.000000) rotate(45.000000) translate(-8.826087, -9.000000) " x="7.82608696" y="-1.56521742" width="2" height="21.1304348" rx="1"></rect>
                                                                    <rect id="Rectangle-2-Copy" transform="translate(8.826087, 9.000000) rotate(-45.000000) translate(-8.826087, -9.000000) " x="7.82608698" y="-1.56521736" width="2" height="21.1304348" rx="1"></rect>
                                                                </g>
                                                            </g>
                                                        </g>
                                                    </g>
                                                </g>
                                                <g id="ic_view-greenish-blue" transform="translate(447.000000, 479.000000)">
                                                    <rect id="Rectangle-34" fill="#59A9B8" x="3" y="4" width="5" height="1"></rect>
                                                    <rect id="Rectangle-34-Copy" fill="#59A9B8" x="3" y="7" width="6" height="1"></rect>
                                                    <rect id="Rectangle-34-Copy-2" fill="#59A9B8" x="3" y="10" width="4" height="1"></rect>
                                                    <rect id="Rectangle-34-Copy-3" fill="#59A9B8" x="3" y="13" width="3" height="1"></rect>
                                                    <g id="Oval-19-Clipped" transform="translate(10.000000, 7.000000)">
                                                        <g id="Group">
                                                            <g id="Oval-19-Clipped">
                                                                <mask id="mask-22" fill="white">
                                                                    <use xlink:href="#path-21"></use>
                                                                </mask>
                                                                <g id="path-21"></g>
                                                                <g id="Oval-19" mask="url(#mask-22)" stroke-width="2" stroke="#59A9B8">
                                                                    <circle id="path-21" cx="4" cy="4" r="4"></circle>
                                                                </g>
                                                            </g>
                                                        </g>
                                                    </g>
                                                    <g id="Rectangle-37-Clipped" transform="translate(9.000000, 13.000000)">
                                                        <g id="Group">
                                                            <g id="Rectangle-37-Clipped">
                                                                <mask id="mask-24" fill="white">
                                                                    <use xlink:href="#path-23"></use>
                                                                </mask>
                                                                <g id="path-23"></g>
                                                                <g id="Rectangle-37" mask="url(#mask-24)">
                                                                    <g transform="translate(-2.000000, -1.000000)" id="path-23">
                                                                        <g>
                                                                            <g id="Group" transform="translate(2.896447, 3.821068) rotate(45.000000) translate(-2.896447, -3.821068) translate(1.896447, 0.821068)" stroke="#59A9B8" stroke-width="2">
                                                                                <rect id="Rectangle-path" x="0.66421356" y="0.2248737" width="1" height="5.12132034"></rect>
                                                                            </g>
                                                                        </g>
                                                                    </g>
                                                                </g>
                                                            </g>
                                                        </g>
                                                    </g>
                                                    <polygon id="Path-66" fill="#59A9B8" points="10 0 0 1.11022302e-15 1.10218212e-15 18 7 18 7 17 1 17 1 1 10 1"></polygon>
                                                    <polygon id="Path-67" fill="#59A9B8" points="10 0 15 5 10 5"></polygon>
                                                    <rect id="Rectangle-36" fill="#59A9B8" x="14" y="5" width="1" height="1"></rect>
                                                </g>
                                                <g id="Group-8" transform="translate(439.000000, 407.000000)">
                                                    <g id="Rectangle-21-Clipped" transform="translate(15.000000, 2.000000)">
                                                        <g id="Group">
                                                            <g id="Rectangle-21-Clipped">
                                                                <mask id="mask-26" fill="white">
                                                                    <use xlink:href="#path-25"></use>
                                                                </mask>
                                                                <g id="path-25"></g>
                                                                <g id="Rectangle-21" mask="url(#mask-26)" stroke-width="4" stroke="#404040" fill="#404040">
                                                                    <polygon id="path-25" points="0.5555556 0.56561086 6 0.56561086 6 1.42081448 0.5555556 1.42081448"></polygon>
                                                                </g>
                                                            </g>
                                                        </g>
                                                    </g>
                                                    <path d="M9.9058304,0.000231602785 C8.80507044,0.00632498375 7.77081107,0.480325882 6.99409571,1.33468203 L3.40656322,5.27934445 L0.920665714,8.01206546 C-0.287720227,9.34106392 -0.309303756,11.4795199 0.87195694,12.7783722 C1.45412888,13.4184979 2.22121916,13.7369572 2.99443449,13.7369572 C3.7906917,13.7369572 4.59336564,13.3986142 5.20616285,12.7248146 L9.74074558,7.73946684 C9.74132891,7.73882543 11.3046764,6.01952988 11.3046764,6.01952988 C11.7112634,5.57278885 12.1153846,4.03846154 11.3076923,3.23076923 C10.4380343,2.36111121 9.15069857,2.60066073 8.30544091,3.52909957 L2.82584963,9.55449123 C2.66163981,9.73504773 2.66163981,10.0272093 2.82584963,10.2074451 C2.90780871,10.2972423 3.01514301,10.3424616 3.12276899,10.3424616 C3.23039496,10.3424616 3.33772927,10.2972423 3.41968834,10.2074451 L8.89927962,4.18205344 C9.41640931,3.61312408 11.3076923,3.23076923 10.7111294,5.3659346 L9.09236471,7.14616395 C9.09178137,7.14680536 4.61232414,12.0718607 4.61232414,12.0718607 C3.73148283,13.0403876 2.31980338,13.0641197 1.46550398,12.1254183 C0.611496248,11.1860755 0.633079777,9.6335462 1.51421276,8.66469863 L1.79363195,8.35746395 C1.79392362,8.35682254 7.58793442,1.98731521 7.58793442,1.98731521 C8.20714836,1.30613935 9.03198916,0.928029031 9.90991377,0.923539171 C10.7843384,0.929953256 11.6056791,1.28593499 12.217018,1.95813112 C13.4857795,3.35351536 13.473821,5.6372504 12.1898928,7.04866986 L7.42547461,12.2867326 C7.26126479,12.4669684 7.26126479,12.7591299 7.42547461,12.9393657 C7.50743369,13.0294836 7.61505966,13.0747029 7.72239397,13.0747029 C7.83001994,13.0747029 7.93735425,13.0294836 8.01931332,12.9393657 L12.7837315,7.70098233 C14.3949127,5.92973269 14.4068712,3.06039166 12.810565,1.30517724 C12.0396831,0.457235175 11.0019237,-0.0119551591 9.9058304,0.000231602785 L9.9058304,0.000231602785 Z" id="ic_clip-add-dark" stroke="#404040" stroke-width="0.5" fill="#404040"></path>
                                                </g>
                                            </g>
                                        </g>
                                    </g>
                                </g>
                            </g>
                        </g>
                    </g>
                </g>
            </g>
        </g>
    </g>
</svg>