<svg width="284" height="163" viewBox="0 0 284 163" fill="none" xmlns="http://www.w3.org/2000/svg">
<path d="M52.031 14.617L56.314 18.899L54.899 20.314L50.617 16.031C49.0237 17.3082 47.042 18.0029 45 18C40.032 18 36 13.968 36 9C36 4.032 40.032 0 45 0C49.968 0 54 4.032 54 9C54.0029 11.042 53.3082 13.0237 52.031 14.617ZM50.025 13.875C51.2941 12.5699 52.0029 10.8204 52 9C52 5.132 48.867 2 45 2C41.132 2 38 5.132 38 9C38 12.867 41.132 16 45 16C46.8204 16.0029 48.5699 15.2941 49.875 14.025L50.025 13.875Z" fill="white"/>
<path fill-rule="evenodd" clip-rule="evenodd" d="M0 8.8L4.8 13.6L4.8 4L0 8.8Z" fill="#404040"/>
<rect x="7.20001" width="19.2" height="3.2" rx="1" fill="#404040"/>
<rect x="7.20007" y="6.3999" width="19.2" height="3.2" rx="1" fill="#404040"/>
<rect x="7.20007" y="12.7998" width="19.2" height="3.2" rx="1" fill="#404040"/>
<path opacity="0.15" d="M282.341 62.7766L282.342 62.7791C287.594 84.4656 274.486 106.152 253.017 111.729V106.091C267.873 101.487 278.276 87.7762 278.276 72.1599C278.276 52.5716 262.583 36.8323 243.045 36.8323C223.508 36.8323 207.815 52.5716 207.815 72.1599C207.815 90.4687 221.908 105.563 239.843 107.169L240.388 107.218V106.671V96.5392V96.3325L240.242 96.1861L223.824 79.7222C222.756 78.6509 222.756 77.067 223.824 75.9957C224.892 74.9252 226.469 74.9252 227.536 75.9957L239.534 88.027L240.388 88.8835V87.674V68.0439V67.8372L240.242 67.6908L231.717 59.1422C230.649 58.0709 230.649 56.4871 231.717 55.4158C232.785 54.3452 234.362 54.3452 235.429 55.4158L245.703 65.7177V75.0094V76.2449L246.562 75.3571L256.976 64.5976C256.977 64.5967 256.978 64.5959 256.979 64.5951C258.046 63.527 259.621 63.5279 260.688 64.5976C261.757 65.6689 261.757 67.2528 260.688 68.3241L245.849 83.2049L245.703 83.3513V83.558V95.2727V152.334H240.388V113.003V112.539L239.925 112.505C219.03 110.941 202.5 93.4258 202.5 72.1599C202.5 49.6385 220.59 31.5 243.045 31.5C261.756 31.5 277.974 44.3202 282.341 62.7766Z" fill="white" stroke="#496291"/>
<path d="M107.444 8.16667H74V5.83333H107.444V0L117 7L107.444 14V8.16667Z" fill="white"/>
<path d="M4.47938 140.968H67.1907C69.6604 140.968 71.6701 138.655 71.6701 135.813V63.6468C71.6701 63.5884 71.6462 63.5402 71.6432 63.4853C71.6373 63.4062 71.6193 63.3375 71.6044 63.2619C71.5575 63.0231 71.4658 62.7991 71.3356 62.6055C71.3147 62.5746 71.3177 62.5368 71.2968 62.5059L47.4068 31.5773C47.3978 31.567 47.3859 31.567 47.3769 31.5567C47.1947 31.3375 46.9647 31.1785 46.711 31.0962C46.6543 31.0756 46.6035 31.0687 46.5438 31.0584C46.4572 31.0412 46.3765 31 46.2869 31H4.47938C2.00975 31 0 33.3128 0 36.1548V135.813C0 138.655 2.00975 140.968 4.47938 140.968ZM47.7801 37.2373L66.8533 61.9285H49.2732C48.6162 61.9285 47.7801 60.4852 47.7801 59.3511V37.2373ZM2.98625 36.1548C2.98625 35.699 3.14357 35.262 3.42358 34.9398C3.7036 34.6175 4.08338 34.4365 4.47938 34.4365H44.7938V59.3511C44.7938 62.1313 46.7498 65.365 49.2732 65.365H68.6839V135.813C68.6839 136.269 68.5265 136.706 68.2465 137.028C67.9665 137.351 67.5867 137.532 67.1907 137.532H4.47938C3.64323 137.532 2.98625 136.776 2.98625 135.813V36.1548Z" fill="black"/>
<path d="M16.4244 84.1114H55.2457C55.6417 84.1114 56.0215 83.9304 56.3015 83.6081C56.5815 83.2859 56.7388 82.8488 56.7388 82.3931C56.7388 81.9374 56.5815 81.5003 56.3015 81.1781C56.0215 80.8558 55.6417 80.6748 55.2457 80.6748H16.4244C16.0284 80.6748 15.6486 80.8558 15.3686 81.1781C15.0886 81.5003 14.9313 81.9374 14.9313 82.3931C14.9313 82.8488 15.0886 83.2859 15.3686 83.6081C15.6486 83.9304 16.0284 84.1114 16.4244 84.1114V84.1114Z" fill="black"/>
<path d="M16.4244 97.8574H55.2457C55.6417 97.8574 56.0215 97.6763 56.3015 97.3541C56.5815 97.0319 56.7388 96.5948 56.7388 96.1391C56.7388 95.6834 56.5815 95.2464 56.3015 94.9242C56.0215 94.6019 55.6417 94.4209 55.2457 94.4209H16.4244C16.0284 94.4209 15.6486 94.6019 15.3686 94.9242C15.0886 95.2464 14.9313 95.6834 14.9313 96.1391C14.9313 96.5948 15.0886 97.0319 15.3686 97.3541C15.6486 97.6763 16.0284 97.8574 16.4244 97.8574V97.8574Z" fill="black"/>
<path d="M16.4244 70.3648H34.3419C34.7379 70.3648 35.1177 70.1838 35.3977 69.8615C35.6777 69.5393 35.8351 69.1022 35.8351 68.6465C35.8351 68.1908 35.6777 67.7537 35.3977 67.4315C35.1177 67.1093 34.7379 66.9282 34.3419 66.9282H16.4244C16.0284 66.9282 15.6486 67.1093 15.3686 67.4315C15.0886 67.7537 14.9313 68.1908 14.9313 68.6465C14.9313 69.1022 15.0886 69.5393 15.3686 69.8615C15.6486 70.1838 16.0284 70.3648 16.4244 70.3648V70.3648Z" fill="black"/>
<path d="M16.4244 111.603H55.2457C55.6417 111.603 56.0215 111.422 56.3015 111.1C56.5815 110.777 56.7388 110.34 56.7388 109.885C56.7388 109.429 56.5815 108.992 56.3015 108.67C56.0215 108.348 55.6417 108.167 55.2457 108.167H16.4244C16.0284 108.167 15.6486 108.348 15.3686 108.67C15.0886 108.992 14.9313 109.429 14.9313 109.885C14.9313 110.34 15.0886 110.777 15.3686 111.1C15.6486 111.422 16.0284 111.603 16.4244 111.603V111.603Z" fill="black"/>
<path d="M16.4244 125.349H55.2457C55.6417 125.349 56.0215 125.168 56.3015 124.846C56.5815 124.524 56.7388 124.087 56.7388 123.631C56.7388 123.175 56.5815 122.738 56.3015 122.416C56.0215 122.094 55.6417 121.913 55.2457 121.913H16.4244C16.0284 121.913 15.6486 122.094 15.3686 122.416C15.0886 122.738 14.9313 123.175 14.9313 123.631C14.9313 124.087 15.0886 124.524 15.3686 124.846C15.6486 125.168 16.0284 125.349 16.4244 125.349V125.349Z" fill="black"/>
<g opacity="0.15">
<path fill-rule="evenodd" clip-rule="evenodd" d="M153.02 42.4286C156.176 42.4286 158.735 39.8702 158.735 36.7143C158.735 33.5584 156.176 31 153.02 31C149.865 31 147.306 33.5584 147.306 36.7143C147.306 39.8702 149.865 42.4286 153.02 42.4286Z" fill="white"/>
<path fill-rule="evenodd" clip-rule="evenodd" d="M153.02 80.7958C156.176 80.7958 158.735 78.2374 158.735 75.0815C158.735 71.9256 156.176 69.3672 153.02 69.3672C149.865 69.3672 147.306 71.9256 147.306 75.0815C147.306 78.2374 149.865 80.7958 153.02 80.7958Z" fill="white"/>
<path fill-rule="evenodd" clip-rule="evenodd" d="M153.02 121.612C156.176 121.612 158.735 119.054 158.735 115.898C158.735 112.742 156.176 110.184 153.02 110.184C149.865 110.184 147.306 112.742 147.306 115.898C147.306 119.054 149.865 121.612 153.02 121.612Z" fill="white"/>
<path fill-rule="evenodd" clip-rule="evenodd" d="M120.367 97.1224C123.523 97.1224 126.082 94.564 126.082 91.4081C126.082 88.2522 123.523 85.6938 120.367 85.6938C117.211 85.6938 114.653 88.2522 114.653 91.4081C114.653 94.564 117.211 97.1224 120.367 97.1224Z" fill="white"/>
<path fill-rule="evenodd" clip-rule="evenodd" d="M185.673 97.1224C188.829 97.1224 191.388 94.564 191.388 91.4081C191.388 88.2522 188.829 85.6938 185.673 85.6938C182.518 85.6938 179.959 88.2522 179.959 91.4081C179.959 94.564 182.518 97.1224 185.673 97.1224Z" fill="white"/>
<path fill-rule="evenodd" clip-rule="evenodd" d="M153.02 162.429C156.176 162.429 158.735 159.87 158.735 156.714C158.735 153.558 156.176 151 153.02 151C149.865 151 147.306 153.558 147.306 156.714C147.306 159.87 149.865 162.429 153.02 162.429Z" fill="white"/>
<path fill-rule="evenodd" clip-rule="evenodd" d="M120.367 137.939C123.523 137.939 126.082 135.38 126.082 132.225C126.082 129.069 123.523 126.51 120.367 126.51C117.211 126.51 114.653 129.069 114.653 132.225C114.653 135.38 117.211 137.939 120.367 137.939Z" fill="white"/>
<path fill-rule="evenodd" clip-rule="evenodd" d="M185.673 137.939C188.829 137.939 191.388 135.38 191.388 132.225C191.388 129.069 188.829 126.51 185.673 126.51C182.518 126.51 179.959 129.069 179.959 132.225C179.959 135.38 182.518 137.939 185.673 137.939Z" fill="white"/>
<path d="M153.429 37.1225V74.6824" stroke="white" stroke-linecap="square"/>
<path d="M152.612 74.6733L120.776 90.9998" stroke="white" stroke-linecap="square"/>
<path fill-rule="evenodd" clip-rule="evenodd" d="M87.7143 154.265C90.8702 154.265 93.4286 151.707 93.4286 148.551C93.4286 145.395 90.8702 142.837 87.7143 142.837C84.5584 142.837 82 145.395 82 148.551C82 151.707 84.5584 154.265 87.7143 154.265Z" fill="white"/>
<path d="M119.959 131.816L88.1225 148.143" stroke="white" stroke-linecap="square"/>
<path d="M153.429 74.6733L185.265 90.9998" stroke="white" stroke-linecap="square"/>
<path d="M153.429 75.4897V117.122" stroke="white" stroke-linecap="square"/>
<path d="M120.776 92.6328V134.265" stroke="white" stroke-linecap="square"/>
<path d="M185.265 92.6328V134.265" stroke="white" stroke-linecap="square"/>
<path d="M153.429 117.939V159.572" stroke="white" stroke-linecap="square"/>
</g>
</svg>
