<?xml version="1.0" encoding="UTF-8" standalone="no"?>
<svg width="300px" height="119px" viewBox="0 0 300 119" version="1.1" xmlns="http://www.w3.org/2000/svg" xmlns:xlink="http://www.w3.org/1999/xlink">
    <!-- Generator: Sketch 41.1 (35376) - http://www.bohemiancoding.com/sketch -->
    <title>NRGI_Logo</title>
    <desc>Created with Sketch.</desc>
    <defs></defs>
    <g id="Page-1" stroke="none" stroke-width="1" fill="none" fill-rule="evenodd">
        <g id="Artboard" transform="translate(-6.000000, -168.000000)" fill="#ffffff">
            <g id="NRGI_Logo" transform="translate(6.000000, 168.000000)">
                <g id="Layer_1">
                    <path d="M239.041534,107.635783 C239.329073,106.102236 239.904153,105 240.670927,104.376997 C241.4377,103.70607 242.396166,103.41853 243.498403,103.41853 C243.977636,103.41853 244.504792,103.514377 244.984026,103.658147 C245.511182,103.84984 245.942492,104.089457 246.325879,104.42492 C246.709265,104.760383 247.044728,105.239617 247.284345,105.766773 C247.523962,106.29393 247.667732,106.916933 247.715655,107.635783 L239.041534,107.635783 Z M250.686901,109.744409 C250.686901,108.498403 250.543131,107.396166 250.255591,106.341853 C249.968051,105.28754 249.488818,104.42492 248.913738,103.658147 C248.338658,102.939297 247.571885,102.316294 246.661342,101.932907 C245.750799,101.501597 244.696486,101.309904 243.498403,101.309904 C242.396166,101.309904 241.389776,101.501597 240.479233,101.932907 C239.56869,102.316294 238.801917,102.891374 238.178914,103.658147 C237.555911,104.376997 237.076677,105.28754 236.693291,106.341853 C236.357827,107.396166 236.166134,108.546326 236.166134,109.840256 C236.166134,111.277955 236.357827,112.523962 236.741214,113.578275 C237.124601,114.632588 237.651757,115.543131 238.370607,116.261981 C239.089457,116.980831 239.904153,117.507987 240.910543,117.891374 C241.86901,118.27476 243.019169,118.466454 244.217252,118.466454 C245.798722,118.466454 247.092652,118.13099 248.051118,117.460064 C249.009585,116.789137 249.776358,115.926518 250.351438,114.920128 L248.626198,113.769968 C248.194888,114.488818 247.619808,115.111821 246.900958,115.638978 C246.182109,116.166134 245.319489,116.405751 244.313099,116.405751 C242.539936,116.405751 241.15016,115.830671 240.239617,114.680511 C239.28115,113.530351 238.84984,111.900958 238.84984,109.840256 L250.686901,109.840256 L250.686901,109.744409 Z M229.696486,103.897764 L234.009585,103.897764 L234.009585,101.741214 L229.744409,101.741214 L229.744409,97.284345 L227.108626,97.284345 L227.108626,101.741214 L224.28115,101.741214 L224.28115,103.897764 L227.108626,103.897764 L227.108626,114.632588 C227.108626,115.926518 227.444089,116.884984 228.115016,117.507987 C228.785942,118.13099 229.744409,118.466454 230.942492,118.466454 C231.900958,118.466454 232.619808,118.370607 233.099042,118.13099 C233.626198,117.891374 234.153355,117.603834 234.680511,117.220447 L233.674121,115.447284 C233.338658,115.686901 233.003195,115.926518 232.619808,116.118211 C232.236422,116.309904 231.805112,116.405751 231.373802,116.405751 C230.894569,116.405751 230.511182,116.261981 230.175719,116.022364 C229.888179,115.782748 229.696486,115.207668 229.696486,114.440895 L229.696486,103.897764 L229.696486,103.897764 Z M209.904153,101.741214 L207.268371,101.741214 L207.268371,112.092652 C207.268371,114.249201 207.747604,115.830671 208.70607,116.884984 C209.664537,117.939297 211.246006,118.466454 213.402556,118.466454 C214.552716,118.466454 215.559105,118.322684 216.325879,118.035144 C217.092652,117.747604 217.811502,117.316294 218.482428,116.837061 L218.674121,118.083067 L221.118211,118.083067 L221.118211,101.741214 L218.434505,101.741214 L218.434505,114.536741 C217.907348,115.015974 217.236422,115.447284 216.373802,115.830671 C215.559105,116.166134 214.696486,116.357827 213.833866,116.357827 C212.539936,116.357827 211.533546,116.022364 210.910543,115.399361 C210.239617,114.728435 209.904153,113.722045 209.904153,112.284345 L209.904153,101.741214 L209.904153,101.741214 Z M199.744409,103.897764 L204.057508,103.897764 L204.057508,101.741214 L199.792332,101.741214 L199.792332,97.284345 L197.15655,97.284345 L197.15655,101.741214 L194.329073,101.741214 L194.329073,103.897764 L197.15655,103.897764 L197.15655,114.632588 C197.15655,115.926518 197.492013,116.884984 198.162939,117.507987 C198.833866,118.13099 199.792332,118.466454 200.990415,118.466454 C201.948882,118.466454 202.667732,118.370607 203.146965,118.13099 C203.674121,117.891374 204.201278,117.603834 204.728435,117.220447 L203.722045,115.447284 C203.386581,115.686901 203.051118,115.926518 202.667732,116.118211 C202.284345,116.309904 201.853035,116.405751 201.421725,116.405751 C200.942492,116.405751 200.559105,116.261981 200.223642,116.022364 C199.936102,115.782748 199.744409,115.207668 199.744409,114.440895 L199.744409,103.897764 Z M191.118211,101.741214 L188.434505,101.741214 L188.434505,118.083067 L191.118211,118.083067 L191.118211,101.741214 Z M191.022364,98.5782748 C191.357827,98.1948882 191.549521,97.715655 191.549521,97.1884984 C191.549521,96.6613419 191.357827,96.2300319 191.022364,95.798722 C190.686901,95.4153355 190.255591,95.2236422 189.776358,95.2236422 C189.297125,95.2236422 188.865815,95.4153355 188.530351,95.798722 C188.194888,96.1821086 188.003195,96.6613419 188.003195,97.1884984 C188.003195,97.715655 188.194888,98.1948882 188.530351,98.5782748 C188.865815,98.9616613 189.297125,99.1533546 189.776358,99.1533546 C190.255591,99.1533546 190.686901,98.9616613 191.022364,98.5782748 L191.022364,98.5782748 Z M180.57508,103.897764 L184.888179,103.897764 L184.888179,101.741214 L180.623003,101.741214 L180.623003,97.284345 L177.98722,97.284345 L177.98722,101.741214 L175.159744,101.741214 L175.159744,103.897764 L177.98722,103.897764 L177.98722,114.632588 C177.98722,115.926518 178.322684,116.884984 178.99361,117.507987 C179.664537,118.13099 180.623003,118.466454 181.821086,118.466454 C182.779553,118.466454 183.498403,118.370607 183.977636,118.13099 C184.504792,117.891374 185.031949,117.603834 185.559105,117.220447 L184.552716,115.447284 C184.217252,115.686901 183.881789,115.926518 183.498403,116.118211 C183.115016,116.309904 182.683706,116.405751 182.252396,116.405751 C181.773163,116.405751 181.389776,116.261981 181.054313,116.022364 C180.766773,115.782748 180.57508,115.207668 180.57508,114.440895 L180.57508,103.897764 Z M160.926518,115.303514 C161.453674,116.214058 162.220447,116.980831 163.13099,117.555911 C164.041534,118.13099 165.335463,118.466454 166.916933,118.466454 C167.779553,118.466454 168.546326,118.370607 169.265176,118.13099 C169.984026,117.891374 170.607029,117.603834 171.086262,117.172524 C171.613419,116.741214 171.996805,116.261981 172.284345,115.638978 C172.571885,115.015974 172.715655,114.345048 172.715655,113.578275 C172.715655,112.236422 172.332268,111.182109 171.565495,110.415335 C170.798722,109.600639 169.648562,108.929712 168.115016,108.450479 C167.300319,108.162939 166.677316,107.923323 166.15016,107.731629 C165.623003,107.492013 165.239617,107.300319 164.904153,107.060703 C164.56869,106.821086 164.376997,106.58147 164.233227,106.341853 C164.089457,106.102236 164.041534,105.766773 164.041534,105.43131 C164.041534,104.904153 164.28115,104.42492 164.760383,104.041534 C165.239617,103.658147 165.958466,103.466454 166.916933,103.466454 C167.683706,103.466454 168.402556,103.658147 169.025559,103.99361 C169.648562,104.376997 170.175719,104.808307 170.654952,105.383387 L172.523962,103.897764 C171.900958,103.083067 171.134185,102.460064 170.271565,101.980831 C169.361022,101.549521 168.258786,101.309904 166.964856,101.309904 C165.383387,101.309904 164.089457,101.693291 163.13099,102.460064 C162.172524,103.226837 161.693291,104.233227 161.693291,105.57508 C161.693291,106.198083 161.789137,106.72524 161.932907,107.204473 C162.124601,107.683706 162.364217,108.067093 162.747604,108.450479 C163.13099,108.833866 163.5623,109.169329 164.13738,109.456869 C164.71246,109.744409 165.383387,110.079872 166.246006,110.319489 C167.01278,110.607029 167.635783,110.846645 168.162939,111.086262 C168.690096,111.325879 169.121406,111.565495 169.456869,111.853035 C169.792332,112.092652 170.031949,112.428115 170.175719,112.763578 C170.319489,113.099042 170.415335,113.482428 170.415335,113.961661 C170.415335,115.543131 169.313099,116.357827 167.060703,116.357827 C166.054313,116.357827 165.191693,116.166134 164.616613,115.734824 C163.99361,115.351438 163.514377,114.776358 163.13099,114.057508 L160.926518,115.303514 Z M146.501597,118.083067 L146.501597,105.28754 C147.076677,104.85623 147.795527,104.42492 148.658147,104.041534 C149.472843,103.658147 150.335463,103.466454 151.198083,103.466454 C152.587859,103.466454 153.594249,103.84984 154.217252,104.616613 C154.840256,105.383387 155.127796,106.485623 155.127796,107.827476 L155.127796,118.083067 L157.763578,118.083067 L157.763578,107.923323 C157.763578,105.766773 157.284345,104.13738 156.373802,102.98722 C155.463259,101.884984 153.881789,101.309904 151.629393,101.309904 C150.670927,101.309904 149.71246,101.453674 148.801917,101.789137 C147.891374,102.124601 147.124601,102.507987 146.453674,103.035144 L146.261981,101.741214 L143.817891,101.741214 L143.817891,118.083067 L146.501597,118.083067 Z M138.738019,95.2236422 L136.00639,95.2236422 L136.00639,118.083067 L138.738019,118.083067 L138.738019,95.2236422 Z" id="Shape"></path>
                    <path d="M287.923323,76.1980831 C288.210863,74.6645367 288.785942,73.5623003 289.552716,72.9392971 C290.319489,72.2683706 291.277955,71.9808307 292.380192,71.9808307 C292.907348,71.9808307 293.386581,72.0766773 293.865815,72.2204473 C294.345048,72.4121406 294.824281,72.6517572 295.207668,72.9872204 C295.591054,73.3226837 295.926518,73.8019169 296.166134,74.3290735 C296.405751,74.85623 296.549521,75.4792332 296.597444,76.1980831 L287.923323,76.1980831 Z M299.616613,78.3067093 C299.616613,77.0607029 299.472843,75.9584665 299.185304,74.9041534 C298.897764,73.8498403 298.466454,72.9872204 297.84345,72.2204473 C297.268371,71.5015974 296.501597,70.8785942 295.591054,70.4952077 C294.680511,70.0638978 293.626198,69.8722045 292.428115,69.8722045 C291.325879,69.8722045 290.319489,70.0638978 289.408946,70.4952077 C288.498403,70.8785942 287.731629,71.4536741 287.108626,72.2204473 C286.485623,72.9392971 286.00639,73.8498403 285.623003,74.9041534 C285.28754,75.9584665 285.095847,77.1086262 285.095847,78.4025559 C285.095847,79.8402556 285.28754,81.086262 285.670927,82.1405751 C286.054313,83.1948882 286.58147,84.1054313 287.300319,84.8242812 C288.019169,85.543131 288.833866,86.0702875 289.840256,86.4536741 C290.846645,86.8370607 291.948882,87.028754 293.146965,87.028754 C294.728435,87.028754 296.022364,86.6932907 296.980831,86.0223642 C297.939297,85.3514377 298.70607,84.4888179 299.28115,83.4824281 L297.555911,82.3322684 C297.124601,83.0511182 296.549521,83.6741214 295.830671,84.201278 C295.111821,84.6805112 294.249201,84.9680511 293.242812,84.9680511 C291.469649,84.9680511 290.079872,84.3929712 289.169329,83.2428115 C288.210863,82.0926518 287.779553,80.4632588 287.779553,78.4025559 L299.616613,78.4025559 L299.616613,78.3067093 Z M280.686901,81.9968051 C280.207668,83.0031949 279.584665,83.7699681 278.865815,84.201278 C278.146965,84.6805112 277.332268,84.8722045 276.565495,84.8722045 C275.846645,84.8722045 275.175719,84.7284345 274.552716,84.4408946 C273.929712,84.1533546 273.354633,83.7220447 272.923323,83.1948882 C272.444089,82.6677316 272.060703,81.9968051 271.821086,81.1821086 C271.533546,80.3674121 271.389776,79.456869 271.389776,78.4504792 C271.389776,77.4440895 271.533546,76.485623 271.821086,75.7188498 C272.108626,74.9041534 272.444089,74.2332268 272.923323,73.7060703 C273.354633,73.1789137 273.881789,72.7476038 274.456869,72.4600639 C275.031949,72.172524 275.607029,72.028754 276.230032,72.028754 C277.044728,72.028754 277.811502,72.2683706 278.530351,72.7476038 C279.249201,73.2268371 279.872204,73.9936102 280.351438,75.0958466 L282.316294,73.8498403 C282.172524,73.4664537 281.932907,73.0830671 281.645367,72.6038339 C281.357827,72.1246006 280.926518,71.6932907 280.447284,71.3099042 C279.968051,70.8785942 279.345048,70.543131 278.674121,70.3035144 C277.955272,70.0159744 277.188498,69.8722045 276.277955,69.8722045 C275.367412,69.8722045 274.504792,70.0159744 273.594249,70.3514377 C272.683706,70.686901 271.916933,71.1661342 271.198083,71.884984 C270.479233,72.6038339 269.904153,73.4664537 269.472843,74.5686901 C269.041534,75.6709265 268.801917,76.9648562 268.801917,78.4984026 C268.801917,79.9361022 269.041534,81.1821086 269.472843,82.2364217 C269.904153,83.2907348 270.479233,84.201278 271.198083,84.8722045 C271.916933,85.5910543 272.731629,86.1182109 273.642173,86.4536741 C274.552716,86.7891374 275.511182,86.9808307 276.469649,86.9808307 C277.715655,86.9808307 278.865815,86.6453674 279.968051,86.0223642 C281.070288,85.399361 281.932907,84.4408946 282.603834,83.0990415 L280.686901,81.9968051 Z M254.185304,86.6453674 L254.185304,73.8019169 C254.760383,73.3226837 255.479233,72.9392971 256.341853,72.5559105 C257.15655,72.172524 258.019169,71.9808307 258.881789,71.9808307 C260.271565,71.9808307 261.277955,72.3642173 261.900958,73.1309904 C262.523962,73.8977636 262.811502,75 262.811502,76.341853 L262.811502,86.5974441 L265.447284,86.5974441 L265.447284,76.4376997 C265.447284,74.2811502 264.968051,72.6517572 264.057508,71.5015974 C263.146965,70.399361 261.565495,69.8242812 259.313099,69.8242812 C258.354633,69.8242812 257.396166,69.9680511 256.485623,70.3035144 C255.57508,70.6389776 254.808307,71.0223642 254.13738,71.5495208 L253.945687,70.2555911 L251.501597,70.2555911 L251.501597,86.5974441 L254.185304,86.5974441 L254.185304,86.6453674 Z M244.121406,83.1948882 C243.594249,83.6741214 243.019169,84.057508 242.300319,84.3929712 C241.629393,84.7284345 240.910543,84.8722045 240.095847,84.8722045 C239.71246,84.8722045 239.376997,84.8242812 238.99361,84.7284345 C238.610224,84.6325879 238.27476,84.4408946 237.98722,84.201278 C237.699681,83.9616613 237.412141,83.6741214 237.220447,83.2907348 C237.028754,82.9073482 236.932907,82.4760383 236.932907,81.9488818 C236.932907,81.1341853 237.172524,80.4632588 237.651757,79.9840256 C238.13099,79.5047923 238.70607,79.1214058 239.42492,78.8338658 C240.14377,78.5942492 240.910543,78.4025559 241.773163,78.3067093 C242.635783,78.2108626 243.402556,78.1629393 244.169329,78.115016 L244.169329,83.1948882 L244.121406,83.1948882 Z M246.757188,86.6453674 L246.757188,76.0063898 C246.757188,73.8019169 246.230032,72.2683706 245.223642,71.3099042 C244.217252,70.3514377 242.779553,69.9201278 240.958466,69.9201278 C239.56869,69.9201278 238.466454,70.1118211 237.555911,70.543131 C236.645367,70.9744409 235.878594,71.5974441 235.207668,72.5079872 L237.076677,73.8019169 C237.507987,73.2747604 238.035144,72.7955272 238.658147,72.4600639 C239.28115,72.1246006 240,71.9808307 240.71885,71.9808307 C241.821086,71.9808307 242.635783,72.2683706 243.258786,72.8913738 C243.833866,73.4664537 244.121406,74.4728435 244.121406,75.8146965 L244.121406,76.0063898 C243.019169,76.0063898 241.916933,76.1022364 240.71885,76.2939297 C239.56869,76.485623 238.514377,76.7731629 237.507987,77.2523962 C236.549521,77.6837061 235.734824,78.3067093 235.111821,79.0734824 C234.488818,79.8402556 234.153355,80.798722 234.153355,81.9488818 C234.153355,82.8115016 234.297125,83.5303514 234.632588,84.1533546 C234.968051,84.7763578 235.351438,85.3035144 235.878594,85.7348243 C236.405751,86.1661342 236.980831,86.4536741 237.651757,86.6932907 C238.322684,86.9329073 238.99361,87.028754 239.71246,87.028754 C240.623003,87.028754 241.4377,86.884984 242.15655,86.5495208 C242.875399,86.2140575 243.546326,85.7827476 244.121406,85.2076677 L244.265176,86.5974441 L246.757188,86.5974441 L246.757188,86.6453674 Z M219.392971,86.6453674 L219.392971,73.8019169 C219.968051,73.3226837 220.686901,72.9392971 221.549521,72.5559105 C222.364217,72.172524 223.226837,71.9808307 224.089457,71.9808307 C225.479233,71.9808307 226.485623,72.3642173 227.108626,73.1309904 C227.731629,73.8977636 228.019169,75 228.019169,76.341853 L228.019169,86.5974441 L230.654952,86.5974441 L230.654952,76.4376997 C230.654952,74.2811502 230.175719,72.6517572 229.265176,71.5015974 C228.354633,70.399361 226.773163,69.8242812 224.520767,69.8242812 C223.514377,69.8242812 222.603834,69.9680511 221.693291,70.3035144 C220.782748,70.6389776 220.015974,71.0223642 219.345048,71.5495208 L219.153355,70.2555911 L216.709265,70.2555911 L216.709265,86.5974441 L219.392971,86.5974441 L219.392971,86.6453674 Z M207.795527,86.6453674 L207.795527,73.9456869 C208.226837,73.5623003 208.753994,73.1789137 209.376997,72.7955272 C210,72.4121406 210.623003,72.2683706 211.29393,72.2683706 C212.15655,72.2683706 212.875399,72.4121406 213.450479,72.6517572 L213.929712,70.2076677 C213.690096,70.1597444 213.354633,70.0638978 212.971246,70.0159744 C212.539936,69.9680511 212.108626,69.9201278 211.58147,69.9201278 C210.86262,69.9201278 210.191693,70.1118211 209.472843,70.4952077 C208.801917,70.8785942 208.226837,71.3099042 207.795527,71.7412141 L207.603834,70.3035144 L205.207668,70.3035144 L205.207668,86.6453674 L207.795527,86.6453674 Z M189.584665,76.1980831 C189.872204,74.6645367 190.447284,73.5623003 191.214058,72.9392971 C191.980831,72.2683706 192.939297,71.9808307 194.041534,71.9808307 C194.520767,71.9808307 195.047923,72.0766773 195.527157,72.2204473 C196.054313,72.4121406 196.485623,72.6517572 196.86901,72.9872204 C197.252396,73.3226837 197.587859,73.8019169 197.827476,74.3290735 C198.067093,74.85623 198.210863,75.4792332 198.258786,76.1980831 L189.584665,76.1980831 Z M201.230032,78.3067093 C201.230032,77.0607029 201.086262,75.9584665 200.798722,74.9041534 C200.511182,73.8498403 200.079872,72.9872204 199.456869,72.2204473 C198.881789,71.5015974 198.115016,70.8785942 197.204473,70.4952077 C196.29393,70.0638978 195.239617,69.8722045 194.041534,69.8722045 C192.939297,69.8722045 191.932907,70.0638978 191.022364,70.4952077 C190.111821,70.8785942 189.345048,71.4536741 188.722045,72.2204473 C188.099042,72.9392971 187.619808,73.8498403 187.236422,74.9041534 C186.900958,75.9584665 186.709265,77.1086262 186.709265,78.4025559 C186.709265,79.8402556 186.900958,81.086262 187.284345,82.1405751 C187.667732,83.1948882 188.194888,84.1054313 188.913738,84.8242812 C189.632588,85.543131 190.447284,86.0702875 191.453674,86.4536741 C192.412141,86.8370607 193.5623,87.028754 194.760383,87.028754 C196.341853,87.028754 197.635783,86.6932907 198.594249,86.0223642 C199.552716,85.3514377 200.319489,84.4888179 200.894569,83.4824281 L199.169329,82.3322684 C198.738019,83.0511182 198.162939,83.6741214 197.444089,84.201278 C196.72524,84.6805112 195.86262,84.9680511 194.85623,84.9680511 C193.083067,84.9680511 191.693291,84.3929712 190.782748,83.2428115 C189.824281,82.0926518 189.392971,80.4632588 189.392971,78.4025559 L201.230032,78.4025559 L201.230032,78.3067093 Z M179.13738,86.6453674 L185.271565,70.3035144 L182.587859,70.3035144 L177.699681,83.6261981 L172.811502,70.3035144 L169.984026,70.3035144 L176.118211,86.6453674 L179.13738,86.6453674 Z M156.805112,80.798722 C156.613419,80.0319489 156.517572,79.2172524 156.517572,78.4025559 C156.517572,77.5878594 156.613419,76.8210863 156.805112,76.0543131 C156.996805,75.2875399 157.332268,74.6166134 157.715655,73.9936102 C158.146965,73.370607 158.626198,72.8913738 159.297125,72.5559105 C159.920128,72.172524 160.638978,72.028754 161.501597,72.028754 C162.364217,72.028754 163.083067,72.2204473 163.70607,72.5559105 C164.329073,72.9392971 164.85623,73.4185304 165.28754,73.9936102 C165.71885,74.6166134 166.00639,75.2875399 166.246006,76.0543131 C166.4377,76.8210863 166.533546,77.6357827 166.533546,78.4025559 C166.533546,79.2172524 166.4377,79.9840256 166.246006,80.7507987 C166.054313,81.5175719 165.71885,82.2364217 165.28754,82.8115016 C164.85623,83.4345048 164.329073,83.913738 163.70607,84.2971246 C163.083067,84.6805112 162.364217,84.8722045 161.501597,84.8722045 C160.686901,84.8722045 159.968051,84.6805112 159.345048,84.2971246 C158.722045,83.913738 158.194888,83.4345048 157.763578,82.8594249 C157.332268,82.2364217 156.996805,81.5654952 156.805112,80.798722 L156.805112,80.798722 Z M161.501597,87.028754 C162.747604,87.028754 163.84984,86.7891374 164.808307,86.3099042 C165.766773,85.8306709 166.58147,85.1597444 167.204473,84.3929712 C167.827476,83.5782748 168.306709,82.6677316 168.642173,81.6613419 C168.977636,80.6549521 169.121406,79.600639 169.121406,78.4984026 C169.121406,77.3961661 168.977636,76.3897764 168.642173,75.3354633 C168.306709,74.3290735 167.827476,73.370607 167.204473,72.6038339 C166.58147,71.7891374 165.766773,71.1661342 164.808307,70.686901 C163.84984,70.2076677 162.747604,69.9680511 161.501597,69.9680511 C160.207668,69.9680511 159.105431,70.2076677 158.146965,70.686901 C157.188498,71.1661342 156.421725,71.7891374 155.750799,72.6038339 C155.127796,73.4185304 154.648562,74.3290735 154.313099,75.3354633 C154.025559,76.341853 153.833866,77.3961661 153.833866,78.4504792 C153.833866,79.5047923 153.977636,80.5591054 154.313099,81.6134185 C154.648562,82.6677316 155.127796,83.5782748 155.750799,84.3929712 C156.373802,85.2076677 157.188498,85.8785942 158.099042,86.3578275 C159.105431,86.7891374 160.255591,87.028754 161.501597,87.028754 L161.501597,87.028754 Z M150.958466,75.7188498 L144.440895,75.7188498 L144.440895,78.115016 L148.226837,78.115016 L148.226837,84.057508 C147.747604,84.201278 147.124601,84.3450479 146.357827,84.4888179 C145.591054,84.6325879 144.728435,84.6805112 143.674121,84.6805112 C142.715655,84.6805112 141.853035,84.4888179 141.038339,84.057508 C140.223642,83.6261981 139.456869,83.0511182 138.833866,82.2364217 C138.210863,81.4217252 137.731629,80.4632588 137.348243,79.313099 C136.964856,78.1629393 136.821086,76.8210863 136.821086,75.3354633 C136.821086,73.658147 137.01278,72.2204473 137.348243,71.0223642 C137.683706,69.8242812 138.162939,68.8178914 138.738019,68.0511182 C139.313099,67.284345 139.984026,66.7092652 140.750799,66.3258786 C141.517572,65.942492 142.284345,65.798722 143.099042,65.798722 C144.488818,65.798722 145.543131,66.086262 146.357827,66.7092652 C147.172524,67.3322684 147.84345,68.1469649 148.370607,69.1533546 L150.57508,67.8115016 C150.239617,67.1405751 149.85623,66.5175719 149.42492,65.942492 C148.99361,65.4153355 148.466454,64.9361022 147.891374,64.5527157 C147.316294,64.1693291 146.597444,63.8817891 145.830671,63.6421725 C145.063898,63.4504792 144.153355,63.3546326 143.146965,63.3546326 C141.948882,63.3546326 140.798722,63.5942492 139.696486,64.0255591 C138.594249,64.456869 137.587859,65.1757188 136.773163,66.1341853 C135.910543,67.0926518 135.239617,68.3386581 134.71246,69.8242812 C134.185304,71.3099042 133.945687,73.1789137 133.945687,75.2875399 C133.945687,77.3961661 134.185304,79.1693291 134.71246,80.6549521 C135.239617,82.1405751 135.910543,83.3386581 136.821086,84.2971246 C137.731629,85.2555911 138.738019,85.9265176 139.936102,86.4057508 C141.134185,86.8370607 142.380192,87.0766773 143.722045,87.0766773 C144.488818,87.0766773 145.255591,87.028754 145.974441,86.9329073 C146.693291,86.8370607 147.412141,86.7412141 148.035144,86.6453674 C148.658147,86.5015974 149.233227,86.3578275 149.760383,86.2140575 C150.239617,86.0702875 150.670927,85.9265176 151.00639,85.7827476 L151.00639,75.7188498 L150.958466,75.7188498 Z" id="Shape"></path>
                    <path d="M251.166134,44.7603834 C251.453674,43.2268371 252.028754,42.1246006 252.795527,41.5015974 C253.5623,40.8306709 254.520767,40.543131 255.623003,40.543131 C256.102236,40.543131 256.629393,40.6389776 257.108626,40.7827476 C257.587859,40.9744409 258.067093,41.2140575 258.450479,41.5495208 C258.833866,41.884984 259.169329,42.3642173 259.408946,42.8913738 C259.648562,43.4185304 259.792332,44.0415335 259.840256,44.7603834 L251.166134,44.7603834 Z M262.811502,46.8690096 C262.811502,45.6230032 262.667732,44.5207668 262.380192,43.4664537 C262.092652,42.4121406 261.661342,41.5495208 261.038339,40.7827476 C260.463259,40.0638978 259.696486,39.4408946 258.785942,39.057508 C257.875399,38.6261981 256.821086,38.4345048 255.623003,38.4345048 C254.520767,38.4345048 253.514377,38.6261981 252.603834,39.0095847 C251.693291,39.3929712 250.926518,39.9680511 250.303514,40.7348243 C249.680511,41.4536741 249.201278,42.3642173 248.817891,43.4185304 C248.482428,44.4728435 248.290735,45.6230032 248.290735,46.9169329 C248.290735,48.3546326 248.482428,49.600639 248.865815,50.6549521 C249.249201,51.7092652 249.776358,52.6198083 250.495208,53.3386581 C251.214058,54.057508 252.028754,54.5846645 253.035144,54.9680511 C253.99361,55.3514377 255.14377,55.543131 256.341853,55.543131 C257.923323,55.543131 259.217252,55.2076677 260.175719,54.5367412 C261.134185,53.8658147 261.900958,53.0031949 262.476038,51.9968051 L260.750799,50.8466454 C260.319489,51.5654952 259.744409,52.1884984 259.025559,52.715655 C258.306709,53.1948882 257.444089,53.4824281 256.4377,53.4824281 C254.664537,53.4824281 253.27476,52.9073482 252.364217,51.7571885 C251.453674,50.6070288 250.974441,48.9776358 250.974441,46.9169329 L262.811502,46.9169329 L262.811502,46.8690096 Z M243.929712,50.5111821 C243.450479,51.5175719 242.827476,52.284345 242.108626,52.715655 C241.389776,53.1948882 240.57508,53.3865815 239.808307,53.3865815 C239.089457,53.3865815 238.41853,53.2428115 237.795527,52.9552716 C237.172524,52.6677316 236.597444,52.2364217 236.166134,51.7092652 C235.686901,51.1821086 235.303514,50.5111821 235.063898,49.6964856 C234.776358,48.8817891 234.632588,47.971246 234.632588,46.9648562 C234.632588,45.9584665 234.776358,45 235.063898,44.2332268 C235.351438,43.4185304 235.686901,42.7476038 236.166134,42.2204473 C236.645367,41.6932907 237.124601,41.2619808 237.699681,40.9744409 C238.27476,40.686901 238.84984,40.543131 239.472843,40.543131 C240.28754,40.543131 241.054313,40.7827476 241.773163,41.2619808 C242.492013,41.7412141 243.115016,42.5079872 243.594249,43.6102236 L245.559105,42.3642173 C245.415335,41.9808307 245.175719,41.5974441 244.888179,41.1182109 C244.600639,40.6389776 244.169329,40.2076677 243.690096,39.8242812 C243.210863,39.3929712 242.587859,39.057508 241.916933,38.8178914 C241.198083,38.5303514 240.43131,38.3865815 239.520767,38.3865815 C238.610224,38.3865815 237.747604,38.5303514 236.837061,38.8658147 C235.926518,39.201278 235.159744,39.6805112 234.440895,40.399361 C233.722045,41.1182109 233.146965,41.9808307 232.715655,43.0830671 C232.284345,44.1853035 232.044728,45.4792332 232.044728,47.0127796 C232.044728,48.4504792 232.284345,49.6964856 232.715655,50.7507987 C233.146965,51.8051118 233.722045,52.715655 234.440895,53.3865815 C235.159744,54.1054313 235.974441,54.6325879 236.884984,54.9680511 C237.795527,55.3035144 238.753994,55.4952077 239.71246,55.4952077 C240.958466,55.4952077 242.108626,55.1597444 243.210863,54.5367412 C244.313099,53.913738 245.175719,52.9552716 245.846645,51.6134185 L243.929712,50.5111821 Z M224.329073,55.2076677 L224.329073,42.5079872 C224.760383,42.1246006 225.28754,41.7412141 225.910543,41.3578275 C226.533546,40.9744409 227.15655,40.8306709 227.827476,40.8306709 C228.690096,40.8306709 229.408946,40.9744409 229.984026,41.2140575 L230.463259,38.7699681 C230.223642,38.7220447 229.888179,38.6261981 229.504792,38.5782748 C229.121406,38.5303514 228.642173,38.4824281 228.115016,38.4824281 C227.396166,38.4824281 226.72524,38.6741214 226.00639,39.057508 C225.335463,39.4408946 224.760383,39.8722045 224.329073,40.3035144 L224.13738,38.8658147 L221.741214,38.8658147 L221.741214,55.2076677 L224.329073,55.2076677 Z M205.638978,38.8658147 L203.003195,38.8658147 L203.003195,49.2172524 C203.003195,51.3738019 203.482428,52.9552716 204.440895,54.0095847 C205.399361,55.0638978 206.980831,55.5910543 209.13738,55.5910543 C210.28754,55.5910543 211.29393,55.4472843 212.060703,55.1597444 C212.827476,54.8722045 213.546326,54.4408946 214.217252,53.9616613 L214.408946,55.2076677 L216.853035,55.2076677 L216.853035,38.8658147 L214.169329,38.8658147 L214.169329,51.6613419 C213.642173,52.1884984 212.971246,52.571885 212.108626,52.9552716 C211.29393,53.2907348 210.43131,53.4824281 209.56869,53.4824281 C208.27476,53.4824281 207.268371,53.1469649 206.645367,52.5239617 C205.974441,51.8530351 205.638978,50.8466454 205.638978,49.4089457 L205.638978,38.8658147 L205.638978,38.8658147 Z M186.709265,49.313099 C186.517572,48.5463259 186.421725,47.7316294 186.421725,46.9169329 C186.421725,46.1022364 186.517572,45.3354633 186.709265,44.5686901 C186.900958,43.8019169 187.236422,43.1309904 187.619808,42.5079872 C188.051118,41.884984 188.530351,41.4057508 189.201278,41.0702875 C189.824281,40.686901 190.543131,40.543131 191.405751,40.543131 C192.268371,40.543131 192.98722,40.7348243 193.610224,41.0702875 C194.233227,41.4536741 194.760383,41.9329073 195.191693,42.5079872 C195.623003,43.1309904 195.910543,43.8019169 196.15016,44.5686901 C196.341853,45.3354633 196.4377,46.1501597 196.4377,46.9169329 C196.4377,47.7316294 196.341853,48.4984026 196.15016,49.2651757 C195.958466,50.0319489 195.623003,50.7507987 195.191693,51.3258786 C194.760383,51.9488818 194.233227,52.428115 193.610224,52.8115016 C192.98722,53.1948882 192.268371,53.3865815 191.405751,53.3865815 C190.591054,53.3865815 189.872204,53.1948882 189.249201,52.8115016 C188.626198,52.428115 188.099042,51.9488818 187.667732,51.3738019 C187.236422,50.798722 186.948882,50.1277955 186.709265,49.313099 L186.709265,49.313099 Z M191.405751,55.5910543 C192.651757,55.5910543 193.753994,55.3514377 194.71246,54.8722045 C195.670927,54.3929712 196.485623,53.7220447 197.108626,52.9552716 C197.731629,52.1405751 198.210863,51.2300319 198.546326,50.2236422 C198.881789,49.2172524 199.025559,48.1629393 199.025559,47.0607029 C199.025559,46.0063898 198.881789,44.9520767 198.546326,43.8977636 C198.210863,42.8913738 197.731629,41.9329073 197.108626,41.1661342 C196.485623,40.3514377 195.670927,39.7284345 194.71246,39.2492013 C193.753994,38.7699681 192.651757,38.5303514 191.405751,38.5303514 C190.111821,38.5303514 189.009585,38.7699681 188.051118,39.2492013 C187.092652,39.7284345 186.325879,40.3514377 185.654952,41.1661342 C185.031949,41.9808307 184.552716,42.8913738 184.217252,43.8977636 C183.929712,44.9041534 183.738019,45.9584665 183.738019,47.0127796 C183.738019,48.0670927 183.881789,49.1214058 184.217252,50.1757188 C184.552716,51.2300319 185.031949,52.1405751 185.654952,52.9552716 C186.277955,53.7699681 187.092652,54.4408946 188.003195,54.9201278 C189.057508,55.3514377 190.159744,55.5910543 191.405751,55.5910543 L191.405751,55.5910543 Z M169.121406,52.428115 C169.648562,53.3386581 170.415335,54.1054313 171.325879,54.6805112 C172.236422,55.2555911 173.530351,55.5910543 175.111821,55.5910543 C175.974441,55.5910543 176.741214,55.4952077 177.460064,55.2555911 C178.178914,55.0159744 178.801917,54.7284345 179.28115,54.2971246 C179.808307,53.8658147 180.191693,53.3865815 180.479233,52.7635783 C180.766773,52.1405751 180.910543,51.4696486 180.910543,50.7028754 C180.910543,49.3610224 180.527157,48.3067093 179.760383,47.5399361 C178.99361,46.7252396 177.84345,46.0543131 176.357827,45.5750799 C175.543131,45.2875399 174.920128,45.0479233 174.392971,44.85623 C173.865815,44.6166134 173.482428,44.4249201 173.146965,44.1853035 C172.811502,43.9456869 172.619808,43.7060703 172.476038,43.4664537 C172.332268,43.2268371 172.284345,42.8913738 172.284345,42.5559105 C172.284345,42.028754 172.523962,41.5495208 173.003195,41.1661342 C173.482428,40.7827476 174.201278,40.5910543 175.159744,40.5910543 C175.926518,40.5910543 176.645367,40.7827476 177.268371,41.1182109 C177.891374,41.5015974 178.41853,41.9329073 178.897764,42.5079872 L180.766773,41.0223642 C180.14377,40.2076677 179.376997,39.5846645 178.514377,39.1054313 C177.603834,38.6741214 176.501597,38.4345048 175.207668,38.4345048 C173.626198,38.4345048 172.332268,38.8178914 171.373802,39.5846645 C170.415335,40.3514377 169.936102,41.3578275 169.936102,42.6996805 C169.936102,43.3226837 170.031949,43.8498403 170.175719,44.3290735 C170.367412,44.8083067 170.607029,45.1916933 170.990415,45.5750799 C171.373802,45.9584665 171.805112,46.2939297 172.380192,46.5814696 C172.955272,46.8690096 173.626198,47.2044728 174.488818,47.4440895 C175.255591,47.7316294 175.878594,47.971246 176.405751,48.2108626 C176.932907,48.4504792 177.364217,48.6900958 177.699681,48.9776358 C178.035144,49.2651757 178.27476,49.5527157 178.41853,49.8881789 C178.5623,50.2236422 178.658147,50.6070288 178.658147,51.086262 C178.658147,52.6677316 177.555911,53.4824281 175.303514,53.4824281 C174.297125,53.4824281 173.434505,53.2907348 172.859425,52.8594249 C172.236422,52.4760383 171.757188,51.9009585 171.373802,51.1821086 L169.121406,52.428115 Z M155.367412,44.7603834 C155.654952,43.2268371 156.230032,42.1246006 156.996805,41.5015974 C157.763578,40.8306709 158.722045,40.543131 159.824281,40.543131 C160.351438,40.543131 160.830671,40.6389776 161.309904,40.7827476 C161.789137,40.9744409 162.268371,41.2140575 162.651757,41.5495208 C163.035144,41.884984 163.370607,42.3642173 163.610224,42.8913738 C163.84984,43.4185304 163.99361,44.0415335 164.041534,44.7603834 L155.367412,44.7603834 Z M167.01278,46.8690096 C167.01278,45.6230032 166.86901,44.5207668 166.58147,43.4664537 C166.29393,42.4121406 165.86262,41.5495208 165.239617,40.7827476 C164.664537,40.0638978 163.897764,39.4408946 162.98722,39.057508 C162.076677,38.6261981 161.022364,38.4345048 159.824281,38.4345048 C158.722045,38.4345048 157.715655,38.6261981 156.805112,39.0095847 C155.894569,39.3929712 155.127796,39.9680511 154.504792,40.7348243 C153.881789,41.4536741 153.402556,42.3642173 153.019169,43.4185304 C152.683706,44.4728435 152.492013,45.6230032 152.492013,46.9169329 C152.492013,48.3546326 152.683706,49.600639 153.067093,50.6549521 C153.450479,51.7092652 153.977636,52.6198083 154.696486,53.3386581 C155.415335,54.057508 156.230032,54.5846645 157.236422,54.9680511 C158.194888,55.3514377 159.345048,55.543131 160.543131,55.543131 C162.124601,55.543131 163.41853,55.2076677 164.376997,54.5367412 C165.335463,53.8658147 166.102236,53.0031949 166.677316,51.9968051 L164.952077,50.8466454 C164.520767,51.5654952 163.945687,52.1884984 163.226837,52.715655 C162.507987,53.1948882 161.645367,53.4824281 160.638978,53.4824281 C158.865815,53.4824281 157.476038,52.9073482 156.565495,51.7571885 C155.654952,50.6070288 155.175719,48.9776358 155.175719,46.9169329 L167.01278,46.9169329 L167.01278,46.8690096 Z M137.731629,34.6964856 L142.380192,34.6964856 C143.865815,34.6964856 144.968051,35.0319489 145.734824,35.6549521 C146.501597,36.2779553 146.884984,37.284345 146.884984,38.5782748 C146.884984,41.4057508 145.303514,42.8434505 142.140575,42.8434505 L137.731629,42.8434505 L137.731629,34.6964856 Z M137.731629,55.2076677 L137.731629,45.1916933 L141.038339,45.1916933 L147.220447,55.2076677 L150.335463,55.2076677 L144.105431,45.0479233 C144.920128,44.9041534 145.638978,44.6645367 146.357827,44.3769968 C147.076677,44.0415335 147.651757,43.658147 148.178914,43.1309904 C148.70607,42.6038339 149.089457,41.9808307 149.376997,41.2619808 C149.664537,40.543131 149.808307,39.6325879 149.808307,38.6261981 C149.808307,36.7571885 149.185304,35.2236422 147.98722,34.1214058 C146.789137,32.971246 144.872204,32.3961661 142.332268,32.3961661 L135,32.3961661 L135,55.2555911 L137.731629,55.2555911 L137.731629,55.2076677 Z" id="Shape"></path>
                    <path d="M232.428115,0.383386581 L229.792332,0.383386581 L229.792332,23.2428115 L232.428115,23.2428115 L232.428115,0.383386581 Z M222.364217,19.7923323 C221.837061,20.2715655 221.261981,20.6549521 220.543131,20.9904153 C219.872204,21.3258786 219.153355,21.4696486 218.338658,21.4696486 C217.955272,21.4696486 217.619808,21.4217252 217.236422,21.3258786 C216.853035,21.2300319 216.517572,21.0383387 216.230032,20.798722 C215.942492,20.5591054 215.654952,20.2715655 215.463259,19.8881789 C215.271565,19.5047923 215.175719,19.0734824 215.175719,18.5463259 C215.175719,17.7316294 215.415335,17.0607029 215.894569,16.5814696 C216.373802,16.0543131 216.948882,15.7188498 217.667732,15.4313099 C218.386581,15.1916933 219.153355,15 220.015974,14.9041534 C220.878594,14.8083067 221.645367,14.7603834 222.412141,14.7124601 L222.412141,19.7923323 L222.364217,19.7923323 Z M225,23.2428115 L225,12.6038339 C225,10.399361 224.472843,8.8658147 223.466454,7.90734824 C222.460064,6.94888179 221.022364,6.51757188 219.201278,6.51757188 C217.811502,6.51757188 216.709265,6.70926518 215.798722,7.14057508 C214.888179,7.57188498 214.121406,8.19488818 213.450479,9.10543131 L215.319489,10.399361 C215.750799,9.87220447 216.277955,9.39297125 216.900958,9.05750799 C217.523962,8.72204473 218.242812,8.57827476 218.961661,8.57827476 C220.063898,8.57827476 220.878594,8.8658147 221.501597,9.48881789 C222.076677,10.0638978 222.364217,11.0702875 222.364217,12.4121406 L222.364217,12.6038339 C221.261981,12.6038339 220.159744,12.6996805 218.961661,12.8913738 C217.811502,13.0830671 216.757188,13.370607 215.798722,13.8498403 C214.840256,14.2811502 214.025559,14.9041534 213.402556,15.6709265 C212.779553,16.4376997 212.444089,17.3961661 212.444089,18.5463259 C212.444089,19.4089457 212.587859,20.1277955 212.923323,20.7507987 C213.258786,21.3738019 213.642173,21.9009585 214.169329,22.3322684 C214.696486,22.7635783 215.271565,23.0511182 215.942492,23.2907348 C216.613419,23.5303514 217.284345,23.6261981 218.003195,23.6261981 C218.913738,23.6261981 219.728435,23.4824281 220.447284,23.1469649 C221.166134,22.8594249 221.837061,22.3801917 222.412141,21.8051118 L222.555911,23.1948882 L225,23.1948882 L225,23.2428115 Z M204.728435,23.2428115 L204.728435,10.543131 C205.159744,10.1597444 205.686901,9.77635783 206.309904,9.39297125 C206.932907,9.00958466 207.555911,8.8658147 208.226837,8.8658147 C209.089457,8.8658147 209.808307,9.00958466 210.383387,9.24920128 L210.86262,6.80511182 C210.623003,6.7571885 210.28754,6.66134185 209.904153,6.61341853 C209.472843,6.56549521 209.041534,6.51757188 208.514377,6.51757188 C207.795527,6.51757188 207.124601,6.70926518 206.405751,7.09265176 C205.734824,7.47603834 205.159744,7.90734824 204.728435,8.33865815 L204.536741,6.90095847 L202.140575,6.90095847 L202.140575,23.2428115 L204.728435,23.2428115 Z M186.038339,6.90095847 L183.402556,6.90095847 L183.402556,17.2523962 C183.402556,19.4089457 183.881789,20.9904153 184.840256,22.0447284 C185.798722,23.0990415 187.380192,23.6261981 189.536741,23.6261981 C190.686901,23.6261981 191.693291,23.4824281 192.460064,23.1948882 C193.226837,22.9073482 193.945687,22.4760383 194.616613,21.9968051 L194.808307,23.2428115 L197.252396,23.2428115 L197.252396,6.90095847 L194.56869,6.90095847 L194.56869,19.6964856 C194.041534,20.2236422 193.370607,20.6070288 192.507987,20.9904153 C191.693291,21.3258786 190.830671,21.5175719 189.968051,21.5175719 C188.674121,21.5175719 187.667732,21.1821086 187.044728,20.5591054 C186.373802,19.8881789 186.038339,18.8817891 186.038339,17.4440895 L186.038339,6.90095847 L186.038339,6.90095847 Z M175.830671,9.05750799 L180.14377,9.05750799 L180.14377,6.90095847 L175.878594,6.90095847 L175.878594,2.44408946 L173.242812,2.44408946 L173.242812,6.90095847 L170.415335,6.90095847 L170.415335,9.05750799 L173.242812,9.05750799 L173.242812,19.7923323 C173.242812,21.086262 173.578275,22.0447284 174.249201,22.6677316 C174.920128,23.2907348 175.878594,23.6261981 177.076677,23.6261981 C178.035144,23.6261981 178.753994,23.5303514 179.233227,23.2907348 C179.760383,23.0511182 180.28754,22.7635783 180.814696,22.3801917 L179.808307,20.6070288 C179.472843,20.8466454 179.13738,21.086262 178.753994,21.2779553 C178.370607,21.4696486 177.939297,21.5654952 177.507987,21.5654952 C177.028754,21.5654952 176.645367,21.4217252 176.309904,21.1821086 C176.022364,20.942492 175.830671,20.3674121 175.830671,19.600639 L175.830671,9.05750799 Z M165.14377,19.7923323 C164.616613,20.2715655 164.041534,20.6549521 163.322684,20.9904153 C162.651757,21.3258786 161.932907,21.4696486 161.118211,21.4696486 C160.734824,21.4696486 160.399361,21.4217252 160.015974,21.3258786 C159.632588,21.2300319 159.297125,21.0383387 159.009585,20.798722 C158.722045,20.5591054 158.434505,20.2715655 158.242812,19.8881789 C158.051118,19.5047923 157.955272,19.0734824 157.955272,18.5463259 C157.955272,17.7316294 158.194888,17.0607029 158.674121,16.5814696 C159.153355,16.0543131 159.728435,15.7188498 160.447284,15.4313099 C161.166134,15.1916933 161.932907,15 162.795527,14.9041534 C163.658147,14.8083067 164.42492,14.7603834 165.191693,14.7124601 L165.191693,19.7923323 L165.14377,19.7923323 Z M167.779553,23.2428115 L167.779553,12.6038339 C167.779553,10.399361 167.252396,8.8658147 166.246006,7.90734824 C165.239617,6.94888179 163.801917,6.51757188 161.980831,6.51757188 C160.591054,6.51757188 159.488818,6.70926518 158.578275,7.14057508 C157.667732,7.57188498 156.900958,8.19488818 156.230032,9.10543131 L158.099042,10.399361 C158.530351,9.87220447 159.057508,9.39297125 159.680511,9.05750799 C160.303514,8.72204473 161.022364,8.57827476 161.741214,8.57827476 C162.84345,8.57827476 163.658147,8.8658147 164.28115,9.48881789 C164.85623,10.0638978 165.14377,11.0702875 165.14377,12.4121406 L165.14377,12.6038339 C164.041534,12.6038339 162.939297,12.6996805 161.741214,12.8913738 C160.591054,13.0830671 159.536741,13.370607 158.578275,13.8498403 C157.619808,14.2811502 156.805112,14.9041534 156.182109,15.6709265 C155.559105,16.4376997 155.223642,17.3961661 155.223642,18.5463259 C155.223642,19.4089457 155.367412,20.1277955 155.702875,20.7507987 C156.038339,21.3738019 156.421725,21.9009585 156.948882,22.3322684 C157.476038,22.7635783 158.051118,23.0511182 158.722045,23.2907348 C159.392971,23.5303514 160.063898,23.6261981 160.782748,23.6261981 C161.693291,23.6261981 162.507987,23.4824281 163.226837,23.1469649 C163.945687,22.8594249 164.616613,22.3801917 165.191693,21.8051118 L165.335463,23.1948882 L167.779553,23.1948882 L167.779553,23.2428115 Z M137.683706,23.2428115 L137.683706,5.12779553 L149.952077,23.2428115 L151.964856,23.2428115 L151.964856,0.383386581 L149.28115,0.383386581 L149.28115,17.3961661 L137.779553,0.383386581 L135,0.383386581 L135,23.2428115 L137.683706,23.2428115 Z" id="Shape"></path>
                    <polygon id="Shape" points="56.3099042 118.41853 56.3578275 118.41853 56.3578275 82.2364217 0.335463259 82.2364217 0.335463259 118.41853"></polygon>
                    <path d="M0.335463259,0.431309904 L0.335463259,78.5463259 L50.1757188,42.1246006 C54.0095847,39.2971246 56.3099042,34.7444089 56.3099042,29.9041534 L56.3099042,0.431309904 L56.3099042,0.431309904 L0.335463259,0.431309904 Z" id="Shape"></path>
                    <polygon id="Shape" points="61.1980831 0.431309904 61.1980831 0.431309904 61.1980831 36.6134185 117.172524 36.6134185 117.172524 0.431309904"></polygon>
                    <path d="M67.3322684,76.7252396 C63.4984026,79.5527157 61.1980831,84.1054313 61.1980831,88.9456869 L61.1980831,118.41853 L61.1980831,118.41853 L117.172524,118.41853 L117.172524,40.3035144 L67.3322684,76.7252396 Z" id="Shape"></path>
                </g>
            </g>
        </g>
    </g>
</svg>