<?xml version="1.0" encoding="UTF-8"?>
<svg width="46px" height="149px" viewBox="0 0 46 149" version="1.1" xmlns="http://www.w3.org/2000/svg" xmlns:xlink="http://www.w3.org/1999/xlink">
    <!-- Generator: Sketch 60 (88103) - https://sketch.com -->
    <title>ic_sprite</title>
    <desc>Created with Sketch.</desc>
    <defs>
        <linearGradient x1="50.009%" y1="97.097%" x2="50.009%" y2="5.34%" id="linearGradient-1">
            <stop stop-color="#2AF598" offset="0%"></stop>
            <stop stop-color="#08AEEA" offset="100%"></stop>
        </linearGradient>
        <linearGradient x1="0.001%" y1="50.006%" x2="99.993%" y2="50.006%" id="linearGradient-2">
            <stop stop-color="#2AF598" offset="0%"></stop>
            <stop stop-color="#08AEEA" offset="100%"></stop>
        </linearGradient>
        <linearGradient x1="50.007%" y1="105.097%" x2="50.007%" y2="4.324%" id="linearGradient-3">
            <stop stop-color="#2AF598" offset="0%"></stop>
            <stop stop-color="#08AEEA" offset="100%"></stop>
        </linearGradient>
    </defs>
    <g id="Page-1" stroke="none" stroke-width="1" fill="none" fill-rule="evenodd">
        <g id="Artboard" fill-rule="nonzero">
            <g id="ic_sprite">
                <g id="group-7-(1)" transform="translate(0.000000, 114.000000)">
                    <path d="M40.134,8.801 L40.134,30.578 C40.134,31.902 39.056,32.98 37.731,32.98 L35.668,32.98 L35.668,33.041 L16.468,33.041 C14.025,33.041 12.043,31.06 12.043,28.616 C12.043,26.173 14.025,24.191 16.468,24.191 L35.525,24.191 L35.525,10.957 L24.815,10.957 C23.245,10.957 21.971,9.684 21.971,8.113 C21.971,6.543 23.245,5.269 24.815,5.269 L37.167,5.269 L37.167,5.32 C38.85,5.587 40.134,7.045 40.134,8.8 L40.134,8.801 Z" id="Path" fill="url(#linearGradient-1)"></path>
                    <path d="M37.834,34.088 L3.305,34.088 C1.581,34.088 0.185,32.692 0.185,30.968 L0.185,3.348 C0.185,1.624 1.581,0.228 3.306,0.228 L15.031,0.228 C17.341,0.228 19.025,0.988 20.647,2.774 C22.341,4.633 22.69,4.828 24.353,4.828 L37.833,4.828 C39.559,4.828 40.955,6.224 40.955,7.948 L40.955,18.328 C40.955,18.78 40.585,19.15 40.134,19.15 C39.682,19.15 39.312,18.78 39.312,18.329 L39.312,7.948 C39.312,7.137 38.645,6.469 37.834,6.469 L24.354,6.469 C21.992,6.469 21.212,5.833 19.425,3.872 C18.111,2.424 16.879,1.859 15.031,1.859 L3.306,1.859 C2.496,1.859 1.828,2.527 1.828,3.338 L1.828,30.956 C1.828,31.767 2.495,32.434 3.306,32.434 L37.835,32.434 C38.646,32.434 39.313,31.767 39.313,30.956 L39.313,21.449 L34.713,21.449 L34.713,13.698 C34.713,11.614 32.989,11.07 32.085,11.07 L9.056,11.07 C6.971,11.07 6.427,12.795 6.427,13.698 L6.427,23.236 L36.437,23.236 L36.437,30.967 C36.437,31.419 36.068,31.789 35.617,31.789 C35.164,31.789 34.795,31.419 34.795,30.967 L34.795,24.879 L4.785,24.879 L4.785,13.698 C4.785,11.623 6.284,9.426 9.055,9.426 L32.075,9.426 C34.148,9.426 36.345,10.926 36.345,13.697 L36.345,19.807 L40.945,19.807 L40.945,30.967 C40.955,32.681 39.548,34.087 37.834,34.087 L37.834,34.088 Z M17.444,15.772 C17.444,15.32 17.074,14.951 16.622,14.951 L9.662,14.951 C9.21,14.951 8.84,15.321 8.84,15.772 C8.84,16.224 9.21,16.594 9.661,16.594 L16.622,16.594 C17.074,16.594 17.444,16.224 17.444,15.772 Z M30.668,20.711 C30.668,20.259 30.298,19.889 29.846,19.889 L9.661,19.889 C9.21,19.889 8.84,20.259 8.84,20.711 C8.84,21.162 9.21,21.531 9.661,21.531 L29.846,21.531 C30.298,21.531 30.668,21.162 30.668,20.711 Z" id="Shape" fill="#000000"></path>
                </g>
                <g id="group-6-(1)" transform="translate(0.000000, 61.000000)">
                    <path d="M9.637,34.838 C12.612,36.926 16.213,38.158 20.117,38.158 C30.201,38.158 38.405,29.953 38.405,19.869 C38.405,9.786 30.201,1.581 20.117,1.581 L24.021,2.729 C24.021,2.729 38.061,15.089 29.501,25.976 C20.941,36.863 10.974,32.343 8.104,29.974 C4.304,26.852 2.195,28.314 9.638,34.838 L9.637,34.838 Z" id="Path" fill="url(#linearGradient-2)"></path>
                    <path d="M20.117,38.992 C9.574,38.992 0.994,30.412 0.994,19.869 C0.994,15.934 2.194,12.145 4.47,8.909 C4.731,8.533 5.253,8.439 5.629,8.711 C6.004,8.971 6.099,9.493 5.827,9.869 C3.75,12.823 2.654,16.279 2.654,19.869 C2.654,29.493 10.483,37.322 20.107,37.322 C29.731,37.322 37.56,29.493 37.56,19.869 C37.56,19.409 37.936,19.034 38.395,19.034 C38.855,19.034 39.2300087,19.41 39.2300087,19.869 C39.24,30.412 30.66,38.992 20.117,38.992 L20.117,38.992 Z M23.405,33.982 L23.364,33.982 C23.259,33.972 23.144,33.951 23.04,33.898 C23.03,33.898 23.03,33.888 23.02,33.888 C22.925,33.836 22.852,33.773 22.79,33.7 C22.727,33.637 22.685,33.554 22.643,33.47 C22.643,33.46 22.633,33.45 22.633,33.429 C20.378,27.239 18.583,23.909 16.025,21.174 C14.335,19.368 12.873,18.136 11.579,17.061 L11.569,17.051 C8.656,14.619 6.359,12.688 6.359,7.281 L6.359,6.956 C6.359,6.736 6.443,6.517 6.599,6.361 C10.211,2.74 15.024,0.746 20.128,0.746 C24.48,0.746 28.583,2.176 31.996,4.88 C35.306,7.5 37.685,11.195 38.687,15.255 C38.802,15.705 38.531,16.153 38.082,16.268 C37.632,16.383 37.184,16.111 37.069,15.662 C35.535,9.493 30.859,4.796 24.992,3.106 C25.336,8.086 22.142,11.175 20.879,12.396 L20.66,12.616 C20.378,12.897 19.94,12.939 19.616,12.72 C18.844,12.208 17.57,11.613 15.952,11.613 C14.846,11.613 12.476,13.117 11.902,15.152 C12.132,15.35 12.382,15.559 12.632,15.768 L12.643,15.778 C13.969,16.895 15.483,18.158 17.236,20.038 C19.679,22.647 21.443,25.695 23.468,30.904 C23.551,30.716 23.624,30.517 23.708,30.319 C24.46,28.482 24.971,27.239 25.253,26.759 C26.13,25.299 26.819,24.139 26.819,23.085 C26.819,21.78 24.699,19.62 22.278,19.62 C21.098,19.62 20.086,20.173 19.438,20.643 C19.063,20.914 18.541,20.831 18.27,20.455 C17.998,20.079 18.082,19.557 18.457,19.285 C19.303,18.68 20.65,17.95 22.277,17.95 C23.75,17.95 25.305,18.544 26.547,19.588 C27.769,20.611 28.499,21.927 28.499,23.085 C28.499,24.599 27.664,25.998 26.693,27.615 C26.453,28.023 25.785,29.641 25.253,30.945 C24.793,32.073 24.397,33.054 24.167,33.503 C24.167,33.513 24.157,33.523 24.157,33.534 C24.115,33.618 24.052,33.691 23.99,33.754 C23.906,33.826 23.812,33.889 23.708,33.92 C23.604,33.962 23.51,33.983 23.405,33.983 L23.405,33.982 Z M8.019,7.312 C8.029,10.642 8.979,12.374 10.566,13.951 C11.62,11.561 14.251,9.953 15.942,9.953 C17.602,9.953 18.969,10.453 19.94,10.986 C21.276,9.671 23.791,6.956 23.27,2.708 C22.247,2.521 21.192,2.427 20.128,2.427 C15.576,2.427 11.297,4.159 8.019,7.312 L8.019,7.312 Z" id="Shape" fill="#000000"></path>
                </g>
                <g id="group-5-(1)">
                    <path d="M33.104,31.569 C35.927,28.349 37.646,24.142 37.646,19.537 C37.646,9.444 29.438,1.235 19.344,1.235 L19.24,1.235 C19.24,3.902 20.958,6.277 23.51,7.09 C28.781,8.787 32.396,13.6 32.396,19.59 C32.396,25.61 28.74,30.454 23.416,32.12 C20.927,32.902 19.24,35.235 19.24,37.85 L19.344,37.85 C22.667,37.85 25.781,36.944 28.469,35.37 L30.104,34.433 C30.625,34.11 31.292,34.183 31.729,34.61 L42.302,44.892 C42.646,45.225 43.208,45.225 43.552,44.882 L44.969,43.454 L33.104,31.569 L33.104,31.569 Z" id="Path" fill="url(#linearGradient-3)"></path>
                    <path d="M42.698,46.548 C42.49,46.548 42.281,46.464 42.115,46.308 L30.073,34.61 C29.74,34.287 29.74,33.767 30.053,33.433 C30.375,33.1 30.896,33.1 31.229,33.413 L42.688,44.547 L43.792,43.443 L32.51,32.162 C32.198,31.85 32.188,31.35 32.469,31.027 C35.271,27.829 36.813,23.757 36.813,19.537 C36.813,9.902 28.979,2.069 19.343,2.069 C9.708,2.069 1.876,9.902 1.876,19.537 C1.876,29.173 9.709,37.007 19.345,37.007 C22.386,37.007 25.397,36.194 28.043,34.642 C28.439,34.412 28.949,34.548 29.178,34.944 C29.408,35.339 29.272,35.85 28.876,36.079 C25.97,37.767 22.668,38.662 19.334,38.662 C8.781,38.662 0.198,30.079 0.198,19.527 C0.198,8.975 8.792,0.402 19.344,0.402 C29.896,0.402 38.478,8.985 38.478,19.537 C38.478,23.892 36.978,28.121 34.228,31.527 L45.551,42.85 C45.707,43.006 45.791,43.214 45.791,43.444 C45.791,43.673 45.707,43.881 45.551,44.037 L43.281,46.308 C43.124,46.465 42.905,46.548 42.697,46.548 L42.698,46.548 Z M28.99,29.422 C31.635,26.797 33.094,23.307 33.094,19.588 C33.094,11.953 26.885,5.745 19.25,5.745 C11.615,5.745 5.396,11.954 5.396,19.589 C5.396,20.048 5.771,20.423 6.229,20.423 L13.979,20.423 C14.438,20.423 14.813,20.048 14.813,19.589 C14.813,19.131 14.438,18.756 13.979,18.756 L7.094,18.756 C7.521,12.423 12.813,7.412 19.25,7.412 C25.969,7.412 31.427,12.882 31.427,19.59 C31.427,22.86 30.146,25.933 27.823,28.246 C25.531,30.516 22.479,31.777 19.25,31.777 C18.792,31.777 18.417,32.152 18.417,32.61 C18.417,33.069 18.792,33.444 19.25,33.444 C22.917,33.434 26.375,32.006 28.99,29.423 L28.99,29.422 Z" id="Shape" fill="#000000"></path>
                </g>
            </g>
        </g>
    </g>
</svg>